STARTFONT 2.1
COMMENT
COMMENT Converted from OpenType font "OpenSans-Light.ttf" by "otf2bdf 3.0".
COMMENT
FONT -FreeType-Open Sans Light-Medium-R-Normal--25-120-149-149-P-121-ISO10646-1
SIZE 12 149 149
FONTBOUNDINGBOX 41 33 -12 -7
STARTPROPERTIES 19
FOUNDRY "FreeType"
FAMILY_NAME "Open Sans Light"
WEIGHT_NAME "Medium"
SLANT "R"
SETWIDTH_NAME "Normal"
ADD_STYLE_NAME ""
PIXEL_SIZE 25
POINT_SIZE 120
RESOLUTION_X 149
RESOLUTION_Y 149
SPACING "P"
AVERAGE_WIDTH 121
CHARSET_REGISTRY "ISO10646"
CHARSET_ENCODING "1"
FONT_ASCENT 26
FONT_DESCENT 7
COPYRIGHT "Digitized data copyright © 2010-2011, Google Corporation."
_OTF_FONTFILE "OpenSans-Light.ttf"
_OTF_PSNAME "OpenSans-Light"
ENDPROPERTIES
CHARS 883
STARTCHAR 0020
ENCODING 32
SWIDTH 281 0
DWIDTH 7 0
BBX 0 0 0 0
BITMAP
ENDCHAR
STARTCHAR 0021
ENCODING 33
SWIDTH 241 0
DWIDTH 6 0
BBX 2 18 2 0
BITMAP
C0
C0
C0
C0
C0
C0
C0
80
80
80
80
80
80
00
00
00
C0
C0
ENDCHAR
STARTCHAR 0022
ENCODING 34
SWIDTH 362 0
DWIDTH 9 0
BBX 5 6 2 12
BITMAP
88
88
88
88
88
88
ENDCHAR
STARTCHAR 0023
ENCODING 35
SWIDTH 644 0
DWIDTH 16 0
BBX 14 18 1 0
BITMAP
0410
0410
0430
0420
0420
0C20
7FFC
0820
0840
0840
1040
FFF8
1080
1080
1080
3080
2080
2080
ENDCHAR
STARTCHAR 0024
ENCODING 36
SWIDTH 563 0
DWIDTH 14 0
BBX 10 20 2 -1
BITMAP
0800
0800
1F80
6880
4800
C800
C800
C800
6800
3C00
0F00
0980
08C0
0840
08C0
08C0
C980
7E00
0800
0800
ENDCHAR
STARTCHAR 0025
ENCODING 37
SWIDTH 805 0
DWIDTH 20 0
BBX 18 18 1 0
BITMAP
380400
640C00
420800
421800
C21000
C23000
C22000
424F00
425980
649080
3C9080
0110C0
0310C0
0210C0
061080
041080
0C0980
080F00
ENDCHAR
STARTCHAR 0026
ENCODING 38
SWIDTH 724 0
DWIDTH 18 0
BBX 15 18 2 0
BITMAP
1F00
3180
60C0
60C0
60C0
2080
3100
1E00
1C00
3600
C304
8184
80CC
8068
8030
8038
60CC
3F06
ENDCHAR
STARTCHAR 0027
ENCODING 39
SWIDTH 201 0
DWIDTH 5 0
BBX 1 6 2 12
BITMAP
80
80
80
80
80
80
ENDCHAR
STARTCHAR 0028
ENCODING 40
SWIDTH 281 0
DWIDTH 7 0
BBX 5 22 1 -4
BITMAP
18
10
30
20
60
40
40
C0
C0
80
80
80
80
80
C0
40
40
60
20
30
10
18
ENDCHAR
STARTCHAR 0029
ENCODING 41
SWIDTH 281 0
DWIDTH 7 0
BBX 5 22 1 -4
BITMAP
C0
40
60
20
30
10
10
18
18
08
08
08
08
18
18
10
10
30
20
60
40
C0
ENDCHAR
STARTCHAR 002A
ENCODING 42
SWIDTH 563 0
DWIDTH 14 0
BBX 12 11 1 8
BITMAP
0600
0600
0600
0600
E4F0
7FE0
0600
0900
1980
1080
1080
ENDCHAR
STARTCHAR 002B
ENCODING 43
SWIDTH 563 0
DWIDTH 14 0
BBX 12 11 1 3
BITMAP
0400
0400
0400
0400
0400
FFF0
0400
0400
0400
0400
0400
ENDCHAR
STARTCHAR 002C
ENCODING 44
SWIDTH 201 0
DWIDTH 5 0
BBX 2 6 1 -3
BITMAP
40
40
40
80
80
80
ENDCHAR
STARTCHAR 002D
ENCODING 45
SWIDTH 322 0
DWIDTH 8 0
BBX 6 1 1 6
BITMAP
FC
ENDCHAR
STARTCHAR 002E
ENCODING 46
SWIDTH 241 0
DWIDTH 6 0
BBX 2 2 2 0
BITMAP
C0
C0
ENDCHAR
STARTCHAR 002F
ENCODING 47
SWIDTH 362 0
DWIDTH 9 0
BBX 7 18 1 0
BITMAP
02
02
06
04
04
0C
08
18
10
10
30
20
60
40
40
C0
80
80
ENDCHAR
STARTCHAR 0030
ENCODING 48
SWIDTH 563 0
DWIDTH 14 0
BBX 12 18 1 0
BITMAP
0F00
30C0
2040
6060
4020
4020
C020
C030
C030
C030
C030
C030
4020
4020
4060
2040
30C0
0F00
ENDCHAR
STARTCHAR 0031
ENCODING 49
SWIDTH 563 0
DWIDTH 14 0
BBX 6 18 2 0
BITMAP
0C
1C
34
C4
04
04
04
04
04
04
04
04
04
04
04
04
04
04
ENDCHAR
STARTCHAR 0032
ENCODING 50
SWIDTH 563 0
DWIDTH 14 0
BBX 11 18 1 0
BITMAP
1F00
6180
4040
0040
0060
0040
0040
0040
0080
0180
0300
0600
0400
0800
1000
2000
4000
FFE0
ENDCHAR
STARTCHAR 0033
ENCODING 51
SWIDTH 563 0
DWIDTH 14 0
BBX 11 18 1 0
BITMAP
1F00
60C0
0040
0060
0060
0060
0040
0180
1E00
01C0
0060
0020
0020
0020
0020
0060
C1C0
7F00
ENDCHAR
STARTCHAR 0034
ENCODING 52
SWIDTH 563 0
DWIDTH 14 0
BBX 13 18 1 0
BITMAP
00C0
0140
0340
0240
04C0
0CC0
08C0
10C0
20C0
60C0
40C0
80C0
FFF8
00C0
00C0
00C0
00C0
00C0
ENDCHAR
STARTCHAR 0035
ENCODING 53
SWIDTH 563 0
DWIDTH 14 0
BBX 10 18 2 0
BITMAP
7F80
4000
4000
4000
4000
C000
C000
FE00
0180
00C0
0040
0040
0040
0040
0040
00C0
C380
7E00
ENDCHAR
STARTCHAR 0036
ENCODING 54
SWIDTH 563 0
DWIDTH 14 0
BBX 11 18 2 0
BITMAP
0F80
1800
2000
4000
4000
8000
8000
9F00
A080
C040
8040
8060
8060
8060
C040
40C0
3180
1F00
ENDCHAR
STARTCHAR 0037
ENCODING 55
SWIDTH 563 0
DWIDTH 14 0
BBX 12 18 1 0
BITMAP
FFF0
0020
0020
0060
0040
00C0
0080
0180
0100
0100
0300
0200
0600
0400
0C00
0800
0800
1800
ENDCHAR
STARTCHAR 0038
ENCODING 56
SWIDTH 563 0
DWIDTH 14 0
BBX 12 18 1 0
BITMAP
1F00
30C0
6060
4020
4020
6060
2040
1980
0600
1980
6060
4020
4020
C030
4020
4020
30C0
1F80
ENDCHAR
STARTCHAR 0039
ENCODING 57
SWIDTH 563 0
DWIDTH 14 0
BBX 11 18 1 0
BITMAP
1F00
3080
6040
4060
C020
C020
C020
4020
4060
20A0
1F20
0020
0020
0060
0040
0080
0300
7E00
ENDCHAR
STARTCHAR 003A
ENCODING 58
SWIDTH 241 0
DWIDTH 6 0
BBX 2 13 2 0
BITMAP
C0
C0
00
00
00
00
00
00
00
00
00
C0
C0
ENDCHAR
STARTCHAR 003B
ENCODING 59
SWIDTH 241 0
DWIDTH 6 0
BBX 3 16 1 -3
BITMAP
60
60
00
00
00
00
00
00
00
00
60
40
40
40
80
80
ENDCHAR
STARTCHAR 003C
ENCODING 60
SWIDTH 563 0
DWIDTH 14 0
BBX 12 12 1 3
BITMAP
0010
0060
0180
0600
1800
6000
C000
3000
0E00
0380
00E0
0010
ENDCHAR
STARTCHAR 003D
ENCODING 61
SWIDTH 563 0
DWIDTH 14 0
BBX 12 6 1 6
BITMAP
FFF0
0000
0000
0000
0000
FFF0
ENDCHAR
STARTCHAR 003E
ENCODING 62
SWIDTH 563 0
DWIDTH 14 0
BBX 12 12 1 3
BITMAP
8000
6000
1800
0600
0180
0060
0030
00C0
0700
1C00
7000
8000
ENDCHAR
STARTCHAR 003F
ENCODING 63
SWIDTH 442 0
DWIDTH 11 0
BBX 9 18 1 0
BITMAP
7E00
8300
0180
0080
0080
0080
0100
0300
0400
0800
1000
1000
1000
0000
0000
0000
3000
3000
ENDCHAR
STARTCHAR 0040
ENCODING 64
SWIDTH 885 0
DWIDTH 22 0
BBX 20 20 1 -2
BITMAP
01FC00
070300
0C0080
100040
200060
20FC20
418420
430430
420410
C60410
C60430
C60C20
C20C20
431440
41E380
600000
200000
100000
0C0C00
03F800
ENDCHAR
STARTCHAR 0041
ENCODING 65
SWIDTH 604 0
DWIDTH 15 0
BBX 15 18 0 0
BITMAP
0100
0180
0280
0280
06C0
0440
0460
0C60
0820
1830
1810
1FF0
3018
2008
600C
4004
4004
C006
ENDCHAR
STARTCHAR 0042
ENCODING 66
SWIDTH 644 0
DWIDTH 16 0
BBX 12 18 3 0
BITMAP
FF00
81C0
8060
8020
8020
8020
8060
80C0
FF00
81C0
8060
8020
8030
8030
8020
8060
80C0
FF00
ENDCHAR
STARTCHAR 0043
ENCODING 67
SWIDTH 644 0
DWIDTH 16 0
BBX 13 18 2 0
BITMAP
07F0
1C18
3000
6000
4000
C000
8000
8000
8000
8000
8000
8000
C000
C000
6000
3000
1C10
07F0
ENDCHAR
STARTCHAR 0044
ENCODING 68
SWIDTH 724 0
DWIDTH 18 0
BBX 13 18 3 0
BITMAP
FF00
81C0
8060
8030
8018
8008
8008
8008
8008
8008
8008
8008
8018
8018
8030
8060
81C0
FF00
ENDCHAR
STARTCHAR 0045
ENCODING 69
SWIDTH 563 0
DWIDTH 14 0
BBX 9 18 3 0
BITMAP
FF80
8000
8000
8000
8000
8000
8000
8000
FF80
8000
8000
8000
8000
8000
8000
8000
8000
FF80
ENDCHAR
STARTCHAR 0046
ENCODING 70
SWIDTH 523 0
DWIDTH 13 0
BBX 10 18 3 0
BITMAP
FFC0
8000
8000
8000
8000
8000
8000
8000
8000
FF80
8000
8000
8000
8000
8000
8000
8000
8000
ENDCHAR
STARTCHAR 0047
ENCODING 71
SWIDTH 724 0
DWIDTH 18 0
BBX 14 18 2 0
BITMAP
07F0
1C1C
3000
6000
4000
C000
8000
8000
8000
81FC
8004
8004
8004
C004
4004
3004
1C0C
07F0
ENDCHAR
STARTCHAR 0048
ENCODING 72
SWIDTH 724 0
DWIDTH 18 0
BBX 12 18 3 0
BITMAP
8010
8010
8010
8010
8010
8010
8010
8010
FFF0
8010
8010
8010
8010
8010
8010
8010
8010
8010
ENDCHAR
STARTCHAR 0049
ENCODING 73
SWIDTH 241 0
DWIDTH 6 0
BBX 2 18 2 0
BITMAP
C0
C0
C0
C0
C0
C0
C0
C0
C0
C0
C0
C0
C0
C0
C0
C0
C0
C0
ENDCHAR
STARTCHAR 004A
ENCODING 74
SWIDTH 241 0
DWIDTH 6 0
BBX 6 23 -2 -5
BITMAP
0C
0C
0C
0C
0C
0C
0C
0C
0C
0C
0C
0C
0C
0C
0C
0C
0C
0C
0C
0C
08
18
F0
ENDCHAR
STARTCHAR 004B
ENCODING 75
SWIDTH 604 0
DWIDTH 15 0
BBX 12 18 3 0
BITMAP
8020
8040
8080
8100
8200
8400
8800
9000
B800
CC00
8400
8200
8300
8180
8080
8040
8060
8030
ENDCHAR
STARTCHAR 004C
ENCODING 76
SWIDTH 523 0
DWIDTH 13 0
BBX 9 18 3 0
BITMAP
8000
8000
8000
8000
8000
8000
8000
8000
8000
8000
8000
8000
8000
8000
8000
8000
8000
FF80
ENDCHAR
STARTCHAR 004D
ENCODING 77
SWIDTH 885 0
DWIDTH 22 0
BBX 16 18 3 0
BITMAP
C003
C003
E003
A005
A005
B00D
9009
9819
8811
8811
8421
8421
8661
8241
8241
8181
8181
8181
ENDCHAR
STARTCHAR 004E
ENCODING 78
SWIDTH 724 0
DWIDTH 18 0
BBX 12 18 3 0
BITMAP
8010
C010
C010
A010
B010
9010
8810
8C10
8410
8210
8310
8110
8090
80D0
8050
8030
8030
8010
ENDCHAR
STARTCHAR 004F
ENCODING 79
SWIDTH 765 0
DWIDTH 19 0
BBX 15 18 2 0
BITMAP
07C0
1830
2008
4004
C006
8002
8002
8002
8002
8002
8002
8002
8002
C006
4004
2008
1830
07C0
ENDCHAR
STARTCHAR 0050
ENCODING 80
SWIDTH 604 0
DWIDTH 15 0
BBX 11 18 3 0
BITMAP
FE00
8180
80C0
8040
8060
8060
8040
80C0
8180
FE00
8000
8000
8000
8000
8000
8000
8000
8000
ENDCHAR
STARTCHAR 0051
ENCODING 81
SWIDTH 765 0
DWIDTH 19 0
BBX 15 22 2 -4
BITMAP
07C0
1830
2008
4004
C006
8002
8002
8002
8002
8002
8002
8002
8002
C006
4004
2008
1830
0FC0
0040
0020
0030
0018
ENDCHAR
STARTCHAR 0052
ENCODING 82
SWIDTH 604 0
DWIDTH 15 0
BBX 11 18 3 0
BITMAP
FE00
8180
80C0
8040
8040
8040
8040
80C0
8180
FE00
8200
8300
8100
8180
8080
80C0
8060
8020
ENDCHAR
STARTCHAR 0053
ENCODING 83
SWIDTH 563 0
DWIDTH 14 0
BBX 12 18 1 0
BITMAP
0FC0
3060
6000
4000
4000
4000
6000
3000
0E00
0380
0060
0020
0030
0030
0030
0060
C0C0
7F80
ENDCHAR
STARTCHAR 0054
ENCODING 84
SWIDTH 523 0
DWIDTH 13 0
BBX 13 18 0 0
BITMAP
FFF8
0200
0200
0200
0200
0200
0200
0200
0200
0200
0200
0200
0200
0200
0200
0200
0200
0200
ENDCHAR
STARTCHAR 0055
ENCODING 85
SWIDTH 724 0
DWIDTH 18 0
BBX 14 18 2 0
BITMAP
C00C
C00C
C00C
C00C
C00C
C00C
C00C
C00C
C00C
C00C
C00C
C00C
C00C
4008
4008
6018
3870
0FC0
ENDCHAR
STARTCHAR 0056
ENCODING 86
SWIDTH 563 0
DWIDTH 14 0
BBX 14 18 0 0
BITMAP
C00C
4008
4008
6018
2010
2010
3030
1020
1020
1860
0840
0840
0CC0
0480
0480
0300
0300
0300
ENDCHAR
STARTCHAR 0057
ENCODING 87
SWIDTH 885 0
DWIDTH 22 0
BBX 20 18 1 0
BITMAP
806010
806010
C06030
40B020
409020
409020
619060
210840
210840
210840
330CC0
120480
120480
120480
1C0300
0C0300
0C0300
0C0300
ENDCHAR
STARTCHAR 0058
ENCODING 88
SWIDTH 523 0
DWIDTH 13 0
BBX 13 18 0 0
BITMAP
4010
6030
2020
1040
18C0
0880
0D80
0500
0200
0700
0500
0880
18C0
1040
3060
2020
4010
C018
ENDCHAR
STARTCHAR 0059
ENCODING 89
SWIDTH 523 0
DWIDTH 13 0
BBX 13 18 0 0
BITMAP
C018
4010
6030
2020
3060
1040
18C0
0880
0D80
0500
0200
0200
0200
0200
0200
0200
0200
0200
ENDCHAR
STARTCHAR 005A
ENCODING 90
SWIDTH 563 0
DWIDTH 14 0
BBX 12 18 1 0
BITMAP
FFF0
0020
0060
0040
0080
0180
0100
0300
0600
0400
0C00
0800
1000
3000
2000
4000
C000
FFF0
ENDCHAR
STARTCHAR 005B
ENCODING 91
SWIDTH 322 0
DWIDTH 8 0
BBX 5 22 2 -4
BITMAP
F8
80
80
80
80
80
80
80
80
80
80
80
80
80
80
80
80
80
80
80
80
F8
ENDCHAR
STARTCHAR 005C
ENCODING 92
SWIDTH 362 0
DWIDTH 9 0
BBX 7 18 1 0
BITMAP
80
80
C0
40
40
60
20
30
10
10
18
08
0C
04
04
06
02
02
ENDCHAR
STARTCHAR 005D
ENCODING 93
SWIDTH 322 0
DWIDTH 8 0
BBX 5 22 1 -4
BITMAP
F8
08
08
08
08
08
08
08
08
08
08
08
08
08
08
08
08
08
08
08
08
F8
ENDCHAR
STARTCHAR 005E
ENCODING 94
SWIDTH 563 0
DWIDTH 14 0
BBX 12 11 1 7
BITMAP
0600
0600
0D00
0900
1880
1080
30C0
2040
6060
4020
C030
ENDCHAR
STARTCHAR 005F
ENCODING 95
SWIDTH 402 0
DWIDTH 10 0
BBX 10 1 0 -3
BITMAP
FFC0
ENDCHAR
STARTCHAR 0060
ENCODING 96
SWIDTH 563 0
DWIDTH 14 0
BBX 4 4 5 15
BITMAP
C0
40
20
10
ENDCHAR
STARTCHAR 0061
ENCODING 97
SWIDTH 523 0
DWIDTH 13 0
BBX 10 13 1 0
BITMAP
1F00
2180
00C0
0040
0040
0040
1FC0
7040
C040
8040
C0C0
6140
3E40
ENDCHAR
STARTCHAR 0062
ENCODING 98
SWIDTH 604 0
DWIDTH 15 0
BBX 12 19 2 0
BITMAP
8000
8000
8000
8000
8000
8000
9F00
B0C0
C060
C020
C020
8020
8030
8020
C020
C020
C060
B0C0
9F00
ENDCHAR
STARTCHAR 0063
ENCODING 99
SWIDTH 483 0
DWIDTH 12 0
BBX 10 13 1 0
BITMAP
0FC0
3040
2000
4000
4000
C000
C000
4000
4000
4000
6000
3040
0FC0
ENDCHAR
STARTCHAR 0064
ENCODING 100
SWIDTH 604 0
DWIDTH 15 0
BBX 12 19 1 0
BITMAP
0010
0010
0010
0010
0010
0010
0F90
30D0
6030
4030
4030
C010
C010
C010
4030
4030
6030
30D0
0F90
ENDCHAR
STARTCHAR 0065
ENCODING 101
SWIDTH 563 0
DWIDTH 14 0
BBX 12 13 1 0
BITMAP
0F80
30C0
2060
4020
4020
4030
FFF0
4000
4000
4000
6000
3020
0FC0
ENDCHAR
STARTCHAR 0066
ENCODING 102
SWIDTH 322 0
DWIDTH 8 0
BBX 9 19 0 0
BITMAP
0780
0800
1800
1000
1000
1000
FF00
1000
1000
1000
1000
1000
1000
1000
1000
1000
1000
1000
1000
ENDCHAR
STARTCHAR 0067
ENCODING 103
SWIDTH 523 0
DWIDTH 13 0
BBX 12 19 1 -6
BITMAP
1FF0
6180
40C0
4040
4040
40C0
6180
1F00
2000
6000
6000
3F80
6060
8020
8020
8020
8060
C0C0
3F00
ENDCHAR
STARTCHAR 0068
ENCODING 104
SWIDTH 604 0
DWIDTH 15 0
BBX 11 19 2 0
BITMAP
8000
8000
8000
8000
8000
8000
9F80
B0C0
C060
C020
C020
C020
8020
8020
8020
8020
8020
8020
8020
ENDCHAR
STARTCHAR 0069
ENCODING 105
SWIDTH 241 0
DWIDTH 6 0
BBX 2 18 2 0
BITMAP
C0
C0
00
00
00
C0
C0
C0
C0
C0
C0
C0
C0
C0
C0
C0
C0
C0
ENDCHAR
STARTCHAR 006A
ENCODING 106
SWIDTH 241 0
DWIDTH 6 0
BBX 5 24 -1 -6
BITMAP
18
18
00
00
00
18
18
18
18
18
18
18
18
18
18
18
18
18
18
18
18
18
10
E0
ENDCHAR
STARTCHAR 006B
ENCODING 107
SWIDTH 483 0
DWIDTH 12 0
BBX 10 19 2 0
BITMAP
8000
8000
8000
8000
8000
8000
8080
8100
8200
8400
8800
9000
B800
CC00
8600
8200
8100
8180
80C0
ENDCHAR
STARTCHAR 006C
ENCODING 108
SWIDTH 241 0
DWIDTH 6 0
BBX 2 19 2 0
BITMAP
C0
C0
C0
C0
C0
C0
C0
C0
C0
C0
C0
C0
C0
C0
C0
C0
C0
C0
C0
ENDCHAR
STARTCHAR 006D
ENCODING 109
SWIDTH 885 0
DWIDTH 22 0
BBX 18 13 2 0
BITMAP
9F1F00
A1B180
C0C0C0
C0C040
C0C040
80C040
80C040
80C040
80C040
80C040
80C040
80C040
80C040
ENDCHAR
STARTCHAR 006E
ENCODING 110
SWIDTH 604 0
DWIDTH 15 0
BBX 11 13 2 0
BITMAP
9F80
B0C0
C060
C020
C020
C020
8020
8020
8020
8020
8020
8020
8020
ENDCHAR
STARTCHAR 006F
ENCODING 111
SWIDTH 604 0
DWIDTH 15 0
BBX 13 13 1 0
BITMAP
0F80
3060
6020
4010
4010
4010
C018
4010
4010
4010
2030
3060
0F80
ENDCHAR
STARTCHAR 0070
ENCODING 112
SWIDTH 604 0
DWIDTH 15 0
BBX 12 19 2 -6
BITMAP
9F80
B0C0
C060
C020
C020
8020
8030
8020
C020
C020
C060
B0C0
9F00
8000
8000
8000
8000
8000
8000
ENDCHAR
STARTCHAR 0071
ENCODING 113
SWIDTH 604 0
DWIDTH 15 0
BBX 12 19 1 -6
BITMAP
0F90
30D0
6030
4030
4030
C010
C010
C030
4030
4030
6030
30D0
1F90
0010
0010
0010
0010
0010
0010
ENDCHAR
STARTCHAR 0072
ENCODING 114
SWIDTH 402 0
DWIDTH 10 0
BBX 7 13 2 0
BITMAP
8E
B0
A0
C0
C0
C0
C0
C0
C0
C0
C0
C0
C0
ENDCHAR
STARTCHAR 0073
ENCODING 115
SWIDTH 483 0
DWIDTH 12 0
BBX 10 13 1 0
BITMAP
3F80
6080
C000
C000
4000
3000
0E00
0180
00C0
0040
00C0
C180
7F00
ENDCHAR
STARTCHAR 0074
ENCODING 116
SWIDTH 322 0
DWIDTH 8 0
BBX 7 16 0 0
BITMAP
10
20
20
FE
20
20
20
20
20
20
20
20
20
30
10
1E
ENDCHAR
STARTCHAR 0075
ENCODING 117
SWIDTH 604 0
DWIDTH 15 0
BBX 11 13 2 0
BITMAP
8020
8020
8020
8020
8020
8020
8020
8060
8060
8060
C060
61A0
3F20
ENDCHAR
STARTCHAR 0076
ENCODING 118
SWIDTH 442 0
DWIDTH 11 0
BBX 11 13 0 0
BITMAP
8020
4040
4040
60C0
2080
2080
3180
1100
1100
0A00
0A00
0A00
0400
ENDCHAR
STARTCHAR 0077
ENCODING 119
SWIDTH 724 0
DWIDTH 18 0
BBX 16 13 1 0
BITMAP
8181
8181
81C1
C343
4242
4242
4622
2426
2424
2C14
3814
1818
1808
ENDCHAR
STARTCHAR 0078
ENCODING 120
SWIDTH 483 0
DWIDTH 12 0
BBX 10 13 1 0
BITMAP
C0C0
4080
2100
3300
1200
0C00
0C00
1C00
1200
2100
6180
4080
8040
ENDCHAR
STARTCHAR 0079
ENCODING 121
SWIDTH 442 0
DWIDTH 11 0
BBX 11 19 0 -6
BITMAP
8020
4040
4040
60C0
2080
2080
3180
1100
1100
0A00
0A00
0A00
0400
0400
0C00
0800
1800
1000
E000
ENDCHAR
STARTCHAR 007A
ENCODING 122
SWIDTH 483 0
DWIDTH 12 0
BBX 10 13 1 0
BITMAP
7FC0
0080
0180
0300
0200
0400
0C00
0800
1000
2000
6000
4000
FFC0
ENDCHAR
STARTCHAR 007B
ENCODING 123
SWIDTH 362 0
DWIDTH 9 0
BBX 7 22 1 -4
BITMAP
06
18
10
10
10
10
10
10
10
30
20
C0
20
30
10
10
10
10
10
10
18
0E
ENDCHAR
STARTCHAR 007C
ENCODING 124
SWIDTH 563 0
DWIDTH 14 0
BBX 2 25 6 -6
BITMAP
C0
C0
C0
C0
C0
C0
C0
C0
C0
C0
C0
C0
C0
C0
C0
C0
C0
C0
C0
C0
C0
C0
C0
C0
C0
ENDCHAR
STARTCHAR 007D
ENCODING 125
SWIDTH 362 0
DWIDTH 9 0
BBX 7 22 1 -4
BITMAP
C0
30
10
10
10
10
10
10
10
18
08
06
08
18
10
10
10
10
10
10
30
E0
ENDCHAR
STARTCHAR 007E
ENCODING 126
SWIDTH 563 0
DWIDTH 14 0
BBX 12 3 1 7
BITMAP
3810
C630
81C0
ENDCHAR
STARTCHAR 00A0
ENCODING 160
SWIDTH 281 0
DWIDTH 7 0
BBX 0 0 0 0
BITMAP
ENDCHAR
STARTCHAR 00A1
ENCODING 161
SWIDTH 241 0
DWIDTH 6 0
BBX 2 18 2 -5
BITMAP
C0
C0
00
00
00
80
80
80
80
80
80
C0
C0
C0
C0
C0
C0
C0
ENDCHAR
STARTCHAR 00A2
ENCODING 162
SWIDTH 563 0
DWIDTH 14 0
BBX 9 18 3 0
BITMAP
0800
0800
1F00
6000
4000
8000
8000
8000
8000
8000
8000
8000
8000
4000
6080
1F00
0800
0800
ENDCHAR
STARTCHAR 00A3
ENCODING 163
SWIDTH 563 0
DWIDTH 14 0
BBX 12 18 1 0
BITMAP
07C0
0C20
1800
1000
1000
1000
1000
1000
1000
FF80
1000
1000
1000
1000
1000
2000
6000
FFF0
ENDCHAR
STARTCHAR 00A4
ENCODING 164
SWIDTH 563 0
DWIDTH 14 0
BBX 10 12 2 3
BITMAP
8040
9E40
6180
4080
8040
8040
8040
8040
4080
6180
9E40
8040
ENDCHAR
STARTCHAR 00A5
ENCODING 165
SWIDTH 563 0
DWIDTH 14 0
BBX 12 18 1 0
BITMAP
8010
C030
4020
6060
2040
30C0
1080
1980
0900
0E00
7FE0
0600
0600
7FE0
0600
0600
0600
0600
ENDCHAR
STARTCHAR 00A6
ENCODING 166
SWIDTH 563 0
DWIDTH 14 0
BBX 2 25 6 -6
BITMAP
C0
C0
C0
C0
C0
C0
C0
C0
C0
00
00
00
00
00
00
00
C0
C0
C0
C0
C0
C0
C0
C0
C0
ENDCHAR
STARTCHAR 00A7
ENCODING 167
SWIDTH 523 0
DWIDTH 13 0
BBX 9 19 2 0
BITMAP
3F00
4080
8000
8000
C000
7000
7E00
C300
8080
8080
C080
7100
1E00
0300
0180
0080
0080
8300
FE00
ENDCHAR
STARTCHAR 00A8
ENCODING 168
SWIDTH 563 0
DWIDTH 14 0
BBX 6 2 4 16
BITMAP
84
84
ENDCHAR
STARTCHAR 00A9
ENCODING 169
SWIDTH 845 0
DWIDTH 21 0
BBX 19 18 1 0
BITMAP
01F000
0E0E00
180300
300180
60F8C0
430040
420040
C60060
840020
840020
C40060
460040
430040
61F0C0
300180
180300
0E0E00
03F800
ENDCHAR
STARTCHAR 00AA
ENCODING 170
SWIDTH 322 0
DWIDTH 8 0
BBX 6 8 1 10
BITMAP
78
0C
04
7C
C4
84
8C
74
ENDCHAR
STARTCHAR 00AB
ENCODING 171
SWIDTH 442 0
DWIDTH 11 0
BBX 9 10 1 1
BITMAP
1880
1100
2300
6200
C400
C400
6200
2300
1100
1880
ENDCHAR
STARTCHAR 00AC
ENCODING 172
SWIDTH 563 0
DWIDTH 14 0
BBX 11 6 1 3
BITMAP
FFE0
0020
0020
0020
0020
0020
ENDCHAR
STARTCHAR 00AD
ENCODING 173
SWIDTH 322 0
DWIDTH 8 0
BBX 6 1 1 6
BITMAP
FC
ENDCHAR
STARTCHAR 00AE
ENCODING 174
SWIDTH 845 0
DWIDTH 21 0
BBX 19 18 1 0
BITMAP
01F000
0E0E00
180300
300180
63E0C0
431040
431840
C31860
831020
83E020
C33060
431040
431840
630CC0
300180
180300
0E0E00
03F800
ENDCHAR
STARTCHAR 00AF
ENCODING 175
SWIDTH 523 0
DWIDTH 13 0
BBX 13 1 0 19
BITMAP
FFF8
ENDCHAR
STARTCHAR 00B0
ENCODING 176
SWIDTH 442 0
DWIDTH 11 0
BBX 7 7 2 11
BITMAP
38
C6
82
82
82
C6
78
ENDCHAR
STARTCHAR 00B1
ENCODING 177
SWIDTH 563 0
DWIDTH 14 0
BBX 12 14 1 0
BITMAP
0400
0400
0400
0400
0400
FFF0
0400
0400
0400
0400
0400
0000
0000
FFF0
ENDCHAR
STARTCHAR 00B2
ENCODING 178
SWIDTH 322 0
DWIDTH 8 0
BBX 6 11 1 7
BITMAP
78
8C
04
04
04
08
10
30
60
C0
FC
ENDCHAR
STARTCHAR 00B3
ENCODING 179
SWIDTH 322 0
DWIDTH 8 0
BBX 7 11 0 7
BITMAP
3C
46
02
02
06
3C
02
02
02
86
7C
ENDCHAR
STARTCHAR 00B4
ENCODING 180
SWIDTH 563 0
DWIDTH 14 0
BBX 4 4 5 15
BITMAP
30
60
40
80
ENDCHAR
STARTCHAR 00B5
ENCODING 181
SWIDTH 604 0
DWIDTH 15 0
BBX 11 19 2 -6
BITMAP
8020
8020
8020
8020
8020
8020
8020
8020
8060
C060
C060
E1A0
BF20
8000
8000
8000
8000
8000
8000
ENDCHAR
STARTCHAR 00B6
ENCODING 182
SWIDTH 644 0
DWIDTH 16 0
BBX 12 22 1 -3
BITMAP
1FF0
3F10
7F10
7F10
FF10
FF10
FF10
FF10
7F10
7F10
3F10
1F10
0110
0110
0110
0110
0110
0110
0110
0110
0110
0110
ENDCHAR
STARTCHAR 00B7
ENCODING 183
SWIDTH 241 0
DWIDTH 6 0
BBX 2 2 2 8
BITMAP
C0
C0
ENDCHAR
STARTCHAR 00B8
ENCODING 184
SWIDTH 201 0
DWIDTH 5 0
BBX 4 6 1 -6
BITMAP
40
E0
30
30
20
E0
ENDCHAR
STARTCHAR 00B9
ENCODING 185
SWIDTH 322 0
DWIDTH 8 0
BBX 4 11 1 7
BITMAP
30
70
90
10
10
10
10
10
10
10
10
ENDCHAR
STARTCHAR 00BA
ENCODING 186
SWIDTH 362 0
DWIDTH 9 0
BBX 7 8 1 10
BITMAP
78
C6
82
82
82
82
C6
78
ENDCHAR
STARTCHAR 00BB
ENCODING 187
SWIDTH 442 0
DWIDTH 11 0
BBX 9 10 1 1
BITMAP
8C00
4400
6200
2300
1180
1180
2300
6200
4400
8C00
ENDCHAR
STARTCHAR 00BC
ENCODING 188
SWIDTH 765 0
DWIDTH 19 0
BBX 16 18 1 0
BITMAP
3008
7010
9030
1020
1060
1040
1080
1084
110C
111C
1214
0224
0464
0C44
08FF
1004
1004
2004
ENDCHAR
STARTCHAR 00BD
ENCODING 189
SWIDTH 765 0
DWIDTH 19 0
BBX 16 18 0 0
BITMAP
3008
7010
9030
1020
1060
1040
1080
109E
1123
1101
1201
0201
0402
0C04
080C
1018
1030
203F
ENDCHAR
STARTCHAR 00BE
ENCODING 190
SWIDTH 765 0
DWIDTH 19 0
BBX 18 18 0 0
BITMAP
3C0100
460200
020600
020400
060C00
3C0800
021000
021100
022300
862700
7C4500
004900
009900
019100
013FC0
020100
020100
040100
ENDCHAR
STARTCHAR 00BF
ENCODING 191
SWIDTH 442 0
DWIDTH 11 0
BBX 9 18 1 -5
BITMAP
0400
0600
0000
0000
0000
0400
0400
0400
0800
1000
6000
4000
8000
8000
8000
C000
6080
3F00
ENDCHAR
STARTCHAR 00C0
ENCODING 192
SWIDTH 604 0
DWIDTH 15 0
BBX 15 23 0 0
BITMAP
0C00
0400
0200
0100
0000
0100
0180
0280
0280
06C0
0440
0460
0C60
0820
1830
1810
1FF0
3018
2008
600C
4004
4004
C006
ENDCHAR
STARTCHAR 00C1
ENCODING 193
SWIDTH 604 0
DWIDTH 15 0
BBX 15 23 0 0
BITMAP
00C0
0180
0100
0200
0000
0100
0180
0280
0280
06C0
0440
0460
0C60
0820
1830
1810
1FF0
3018
2008
600C
4004
4004
C006
ENDCHAR
STARTCHAR 00C2
ENCODING 194
SWIDTH 604 0
DWIDTH 15 0
BBX 15 23 0 0
BITMAP
0300
0780
0480
0840
0000
0100
0180
0280
0280
06C0
0440
0460
0C60
0820
1830
1810
1FF0
3018
2008
600C
4004
4004
C006
ENDCHAR
STARTCHAR 00C3
ENCODING 195
SWIDTH 604 0
DWIDTH 15 0
BBX 15 22 0 0
BITMAP
0E10
0920
10E0
0000
0100
0180
0280
0280
06C0
0440
0460
0C60
0820
1830
1810
1FF0
3018
2008
600C
4004
4004
C006
ENDCHAR
STARTCHAR 00C4
ENCODING 196
SWIDTH 604 0
DWIDTH 15 0
BBX 15 22 0 0
BITMAP
0840
0840
0000
0000
0100
0180
0280
0280
06C0
0440
0460
0C60
0820
1830
1810
1FF0
3018
2008
600C
4004
4004
C006
ENDCHAR
STARTCHAR 00C5
ENCODING 197
SWIDTH 604 0
DWIDTH 15 0
BBX 15 22 0 0
BITMAP
0780
0480
0840
0480
0700
0180
0280
0280
06C0
0440
0460
0C60
0820
1830
1810
1FF0
3018
2008
600C
4004
4004
C006
ENDCHAR
STARTCHAR 00C6
ENCODING 198
SWIDTH 805 0
DWIDTH 20 0
BBX 18 18 0 0
BITMAP
00FFC0
012000
012000
032000
022000
062000
042000
042000
0C3FC0
082000
182000
1FE000
302000
202000
602000
602000
402000
C03FC0
ENDCHAR
STARTCHAR 00C7
ENCODING 199
SWIDTH 644 0
DWIDTH 16 0
BBX 13 24 2 -6
BITMAP
07F0
1C18
3000
6000
4000
C000
8000
8000
8000
8000
8000
8000
C000
C000
6000
3000
1C10
07F0
0200
0700
0180
0180
0100
0700
ENDCHAR
STARTCHAR 00C8
ENCODING 200
SWIDTH 563 0
DWIDTH 14 0
BBX 9 23 3 0
BITMAP
6000
2000
1000
0800
0000
FF80
8000
8000
8000
8000
8000
8000
8000
FF80
8000
8000
8000
8000
8000
8000
8000
8000
FF80
ENDCHAR
STARTCHAR 00C9
ENCODING 201
SWIDTH 563 0
DWIDTH 14 0
BBX 9 23 3 0
BITMAP
0600
0C00
0800
1000
0000
FF80
8000
8000
8000
8000
8000
8000
8000
FF80
8000
8000
8000
8000
8000
8000
8000
8000
FF80
ENDCHAR
STARTCHAR 00CA
ENCODING 202
SWIDTH 563 0
DWIDTH 14 0
BBX 9 23 3 0
BITMAP
1800
3C00
2400
4200
0000
FF80
8000
8000
8000
8000
8000
8000
8000
FF80
8000
8000
8000
8000
8000
8000
8000
8000
FF80
ENDCHAR
STARTCHAR 00CB
ENCODING 203
SWIDTH 563 0
DWIDTH 14 0
BBX 9 22 3 0
BITMAP
4200
4200
0000
0000
FF80
8000
8000
8000
8000
8000
8000
8000
FF80
8000
8000
8000
8000
8000
8000
8000
8000
FF80
ENDCHAR
STARTCHAR 00CC
ENCODING 204
SWIDTH 241 0
DWIDTH 6 0
BBX 5 23 -1 0
BITMAP
C0
40
20
10
00
18
18
18
18
18
18
18
18
18
18
18
18
18
18
18
18
18
18
ENDCHAR
STARTCHAR 00CD
ENCODING 205
SWIDTH 241 0
DWIDTH 6 0
BBX 5 23 2 0
BITMAP
18
30
20
40
00
C0
C0
C0
C0
C0
C0
C0
C0
C0
C0
C0
C0
C0
C0
C0
C0
C0
C0
ENDCHAR
STARTCHAR 00CE
ENCODING 206
SWIDTH 241 0
DWIDTH 6 0
BBX 6 23 0 0
BITMAP
30
78
48
84
00
30
30
30
30
30
30
30
30
30
30
30
30
30
30
30
30
30
30
ENDCHAR
STARTCHAR 00CF
ENCODING 207
SWIDTH 241 0
DWIDTH 6 0
BBX 6 22 0 0
BITMAP
84
84
00
00
30
30
30
30
30
30
30
30
30
30
30
30
30
30
30
30
30
30
ENDCHAR
STARTCHAR 00D0
ENCODING 208
SWIDTH 724 0
DWIDTH 18 0
BBX 15 18 1 0
BITMAP
3FC0
2070
2018
200C
2004
2006
2002
2002
FF02
2002
2002
2002
2006
2004
200C
2018
2070
3FC0
ENDCHAR
STARTCHAR 00D1
ENCODING 209
SWIDTH 724 0
DWIDTH 18 0
BBX 12 22 3 0
BITMAP
3840
2480
4380
0000
8010
C010
C010
A010
B010
9010
8810
8C10
8410
8210
8310
8110
8090
80D0
8050
8030
8030
8010
ENDCHAR
STARTCHAR 00D2
ENCODING 210
SWIDTH 765 0
DWIDTH 19 0
BBX 15 23 2 0
BITMAP
0C00
0400
0200
0100
0000
07C0
1830
2008
4004
C006
8002
8002
8002
8002
8002
8002
8002
8002
C006
4004
2008
1830
07C0
ENDCHAR
STARTCHAR 00D3
ENCODING 211
SWIDTH 765 0
DWIDTH 19 0
BBX 15 23 2 0
BITMAP
0060
00C0
0080
0100
0000
07C0
1830
2008
4004
C006
8002
8002
8002
8002
8002
8002
8002
8002
C006
4004
2008
1830
07C0
ENDCHAR
STARTCHAR 00D4
ENCODING 212
SWIDTH 765 0
DWIDTH 19 0
BBX 15 23 2 0
BITMAP
0300
0780
0480
0840
0000
07C0
1830
2008
4004
C006
8002
8002
8002
8002
8002
8002
8002
8002
C006
4004
2008
1830
07C0
ENDCHAR
STARTCHAR 00D5
ENCODING 213
SWIDTH 765 0
DWIDTH 19 0
BBX 15 22 2 0
BITMAP
0E10
0920
10E0
0000
07C0
1830
2008
4004
C006
8002
8002
8002
8002
8002
8002
8002
8002
C006
4004
2008
1830
07C0
ENDCHAR
STARTCHAR 00D6
ENCODING 214
SWIDTH 765 0
DWIDTH 19 0
BBX 15 22 2 0
BITMAP
0840
0840
0000
0000
07C0
1830
2008
4004
C006
8002
8002
8002
8002
8002
8002
8002
8002
C006
4004
2008
1830
07C0
ENDCHAR
STARTCHAR 00D7
ENCODING 215
SWIDTH 563 0
DWIDTH 14 0
BBX 12 11 1 3
BITMAP
C030
6060
30C0
1980
0F00
0600
0F00
1980
30C0
6060
C030
ENDCHAR
STARTCHAR 00D8
ENCODING 216
SWIDTH 765 0
DWIDTH 19 0
BBX 15 18 2 0
BITMAP
07C4
183C
2018
4014
C026
8062
8042
8082
8182
8302
8202
8402
8C02
C806
5004
2008
7830
4FC0
ENDCHAR
STARTCHAR 00D9
ENCODING 217
SWIDTH 724 0
DWIDTH 18 0
BBX 14 23 2 0
BITMAP
0C00
0400
0200
0100
0000
C00C
C00C
C00C
C00C
C00C
C00C
C00C
C00C
C00C
C00C
C00C
C00C
C00C
4008
4008
6018
3870
0FC0
ENDCHAR
STARTCHAR 00DA
ENCODING 218
SWIDTH 724 0
DWIDTH 18 0
BBX 14 23 2 0
BITMAP
00C0
0180
0100
0200
0000
C00C
C00C
C00C
C00C
C00C
C00C
C00C
C00C
C00C
C00C
C00C
C00C
C00C
4008
4008
6018
3870
0FC0
ENDCHAR
STARTCHAR 00DB
ENCODING 219
SWIDTH 724 0
DWIDTH 18 0
BBX 14 23 2 0
BITMAP
0300
0780
0480
0840
0000
C00C
C00C
C00C
C00C
C00C
C00C
C00C
C00C
C00C
C00C
C00C
C00C
C00C
4008
4008
6018
3870
0FC0
ENDCHAR
STARTCHAR 00DC
ENCODING 220
SWIDTH 724 0
DWIDTH 18 0
BBX 14 22 2 0
BITMAP
0840
0840
0000
0000
C00C
C00C
C00C
C00C
C00C
C00C
C00C
C00C
C00C
C00C
C00C
C00C
C00C
4008
4008
6018
3870
0FC0
ENDCHAR
STARTCHAR 00DD
ENCODING 221
SWIDTH 523 0
DWIDTH 13 0
BBX 13 23 0 0
BITMAP
00C0
0180
0100
0200
0000
C018
4010
6030
2020
3060
1040
18C0
0880
0D80
0500
0200
0200
0200
0200
0200
0200
0200
0200
ENDCHAR
STARTCHAR 00DE
ENCODING 222
SWIDTH 604 0
DWIDTH 15 0
BBX 11 18 3 0
BITMAP
8000
8000
8000
FE00
8180
80C0
8040
8060
8060
8060
8040
80C0
8180
FE00
8000
8000
8000
8000
ENDCHAR
STARTCHAR 00DF
ENCODING 223
SWIDTH 604 0
DWIDTH 15 0
BBX 12 19 2 0
BITMAP
1F00
6080
4040
C040
C0C0
C080
C300
C200
C600
C600
C300
C180
C060
C020
C030
C030
C030
C860
CFC0
ENDCHAR
STARTCHAR 00E0
ENCODING 224
SWIDTH 523 0
DWIDTH 13 0
BBX 10 19 1 0
BITMAP
3000
1000
0800
0400
0000
0000
1F00
2180
00C0
0040
0040
0040
1FC0
7040
C040
8040
C0C0
6140
3E40
ENDCHAR
STARTCHAR 00E1
ENCODING 225
SWIDTH 523 0
DWIDTH 13 0
BBX 10 19 1 0
BITMAP
0300
0600
0400
0800
0000
0000
1F00
2180
00C0
0040
0040
0040
1FC0
7040
C040
8040
C0C0
6140
3E40
ENDCHAR
STARTCHAR 00E2
ENCODING 226
SWIDTH 523 0
DWIDTH 13 0
BBX 10 19 1 0
BITMAP
0C00
1E00
1200
2100
0000
0000
1F00
2180
00C0
0040
0040
0040
1FC0
7040
C040
8040
C0C0
6140
3E40
ENDCHAR
STARTCHAR 00E3
ENCODING 227
SWIDTH 523 0
DWIDTH 13 0
BBX 10 18 1 0
BITMAP
3840
2480
4380
0000
0000
1F00
2180
00C0
0040
0040
0040
1FC0
7040
C040
8040
C0C0
6140
3E40
ENDCHAR
STARTCHAR 00E4
ENCODING 228
SWIDTH 523 0
DWIDTH 13 0
BBX 10 18 1 0
BITMAP
2100
2100
0000
0000
0000
1F00
2180
00C0
0040
0040
0040
1FC0
7040
C040
8040
C0C0
6140
3E40
ENDCHAR
STARTCHAR 00E5
ENCODING 229
SWIDTH 523 0
DWIDTH 13 0
BBX 10 20 1 0
BITMAP
1E00
1200
2100
1200
1E00
0000
0000
1F00
2180
00C0
0040
0040
0040
1FC0
7040
C040
8040
C0C0
6140
3E40
ENDCHAR
STARTCHAR 00E6
ENCODING 230
SWIDTH 845 0
DWIDTH 21 0
BBX 19 13 1 0
BITMAP
1F1F00
21B180
00E0C0
004040
004040
1FC060
707FE0
404000
C04000
80C000
C0E000
633040
3E0F80
ENDCHAR
STARTCHAR 00E7
ENCODING 231
SWIDTH 483 0
DWIDTH 12 0
BBX 10 19 1 -6
BITMAP
0FC0
3040
2000
4000
4000
C000
C000
4000
4000
4000
6000
3040
0FC0
0400
0E00
0300
0300
0200
0E00
ENDCHAR
STARTCHAR 00E8
ENCODING 232
SWIDTH 563 0
DWIDTH 14 0
BBX 12 19 1 0
BITMAP
1800
0800
0400
0200
0000
0000
0F80
30C0
2060
4020
4020
4030
FFF0
4000
4000
4000
6000
3020
0FC0
ENDCHAR
STARTCHAR 00E9
ENCODING 233
SWIDTH 563 0
DWIDTH 14 0
BBX 12 19 1 0
BITMAP
0180
0300
0200
0400
0000
0000
0F80
30C0
2060
4020
4020
4030
FFF0
4000
4000
4000
6000
3020
0FC0
ENDCHAR
STARTCHAR 00EA
ENCODING 234
SWIDTH 563 0
DWIDTH 14 0
BBX 12 19 1 0
BITMAP
0600
0F00
0900
1080
0000
0000
0F80
30C0
2060
4020
4020
4030
FFF0
4000
4000
4000
6000
3020
0FC0
ENDCHAR
STARTCHAR 00EB
ENCODING 235
SWIDTH 563 0
DWIDTH 14 0
BBX 12 18 1 0
BITMAP
1080
1080
0000
0000
0000
0F80
30C0
2060
4020
4020
4030
FFF0
4000
4000
4000
6000
3020
0FC0
ENDCHAR
STARTCHAR 00EC
ENCODING 236
SWIDTH 241 0
DWIDTH 6 0
BBX 4 19 0 0
BITMAP
C0
40
20
10
00
00
30
30
30
30
30
30
30
30
30
30
30
30
30
ENDCHAR
STARTCHAR 00ED
ENCODING 237
SWIDTH 241 0
DWIDTH 6 0
BBX 4 19 2 0
BITMAP
30
60
40
80
00
00
C0
C0
C0
C0
C0
C0
C0
C0
C0
C0
C0
C0
C0
ENDCHAR
STARTCHAR 00EE
ENCODING 238
SWIDTH 241 0
DWIDTH 6 0
BBX 6 19 0 0
BITMAP
30
78
48
84
00
00
30
30
30
30
30
30
30
30
30
30
30
30
30
ENDCHAR
STARTCHAR 00EF
ENCODING 239
SWIDTH 241 0
DWIDTH 6 0
BBX 6 18 0 0
BITMAP
84
84
00
00
00
30
30
30
30
30
30
30
30
30
30
30
30
30
ENDCHAR
STARTCHAR 00F0
ENCODING 240
SWIDTH 563 0
DWIDTH 14 0
BBX 12 19 1 0
BITMAP
0840
07C0
0300
0D80
10C0
0040
0060
1F20
30E0
6060
4020
C030
C030
C030
4020
4020
6060
30C0
1F00
ENDCHAR
STARTCHAR 00F1
ENCODING 241
SWIDTH 604 0
DWIDTH 15 0
BBX 11 18 2 0
BITMAP
3840
2480
4380
0000
0000
9F80
B0C0
C060
C020
C020
C020
8020
8020
8020
8020
8020
8020
8020
ENDCHAR
STARTCHAR 00F2
ENCODING 242
SWIDTH 604 0
DWIDTH 15 0
BBX 13 19 1 0
BITMAP
1800
0800
0400
0200
0000
0000
0F80
3060
6020
4010
4010
4010
C018
4010
4010
4010
2030
3060
0F80
ENDCHAR
STARTCHAR 00F3
ENCODING 243
SWIDTH 604 0
DWIDTH 15 0
BBX 13 19 1 0
BITMAP
0180
0300
0200
0400
0000
0000
0F80
3060
6020
4010
4010
4010
C018
4010
4010
4010
2030
3060
0F80
ENDCHAR
STARTCHAR 00F4
ENCODING 244
SWIDTH 604 0
DWIDTH 15 0
BBX 13 19 1 0
BITMAP
0600
0F00
0900
1080
0000
0000
0F80
3060
6020
4010
4010
4010
C018
4010
4010
4010
2030
3060
0F80
ENDCHAR
STARTCHAR 00F5
ENCODING 245
SWIDTH 604 0
DWIDTH 15 0
BBX 13 18 1 0
BITMAP
1C20
1240
21C0
0000
0000
0F80
3060
6020
4010
4010
4010
C018
4010
4010
4010
2030
3060
0F80
ENDCHAR
STARTCHAR 00F6
ENCODING 246
SWIDTH 604 0
DWIDTH 15 0
BBX 13 18 1 0
BITMAP
1080
1080
0000
0000
0000
0F80
3060
6020
4010
4010
4010
C018
4010
4010
4010
2030
3060
0F80
ENDCHAR
STARTCHAR 00F7
ENCODING 247
SWIDTH 563 0
DWIDTH 14 0
BBX 12 11 1 3
BITMAP
0600
0600
0000
0000
0000
FFF0
0000
0000
0000
0600
0600
ENDCHAR
STARTCHAR 00F8
ENCODING 248
SWIDTH 604 0
DWIDTH 15 0
BBX 13 13 1 0
BITMAP
0F90
30F0
6060
40D0
4090
4110
C218
4410
4C10
5810
3030
3060
4F80
ENDCHAR
STARTCHAR 00F9
ENCODING 249
SWIDTH 604 0
DWIDTH 15 0
BBX 11 19 2 0
BITMAP
3000
1000
0800
0400
0000
0000
8020
8020
8020
8020
8020
8020
8020
8060
8060
8060
C060
61A0
3F20
ENDCHAR
STARTCHAR 00FA
ENCODING 250
SWIDTH 604 0
DWIDTH 15 0
BBX 11 19 2 0
BITMAP
0300
0600
0400
0800
0000
0000
8020
8020
8020
8020
8020
8020
8020
8060
8060
8060
C060
61A0
3F20
ENDCHAR
STARTCHAR 00FB
ENCODING 251
SWIDTH 604 0
DWIDTH 15 0
BBX 11 19 2 0
BITMAP
0C00
1E00
1200
2100
0000
0000
8020
8020
8020
8020
8020
8020
8020
8060
8060
8060
C060
61A0
3F20
ENDCHAR
STARTCHAR 00FC
ENCODING 252
SWIDTH 604 0
DWIDTH 15 0
BBX 11 18 2 0
BITMAP
2100
2100
0000
0000
0000
8020
8020
8020
8020
8020
8020
8020
8060
8060
8060
C060
61A0
3F20
ENDCHAR
STARTCHAR 00FD
ENCODING 253
SWIDTH 442 0
DWIDTH 11 0
BBX 11 25 0 -6
BITMAP
0180
0300
0200
0400
0000
0000
8020
4040
4040
60C0
2080
2080
3180
1100
1100
0A00
0A00
0A00
0400
0400
0C00
0800
1800
1000
E000
ENDCHAR
STARTCHAR 00FE
ENCODING 254
SWIDTH 604 0
DWIDTH 15 0
BBX 12 25 2 -6
BITMAP
8000
8000
8000
8000
8000
8000
9F80
B0C0
C060
C020
C020
8020
8030
8020
C020
C020
C060
B0C0
9F00
8000
8000
8000
8000
8000
8000
ENDCHAR
STARTCHAR 00FF
ENCODING 255
SWIDTH 442 0
DWIDTH 11 0
BBX 11 24 0 -6
BITMAP
1080
1080
0000
0000
0000
8020
4040
4040
60C0
2080
2080
3180
1100
1100
0A00
0A00
0A00
0400
0400
0C00
0800
1800
1000
E000
ENDCHAR
STARTCHAR 0100
ENCODING 256
SWIDTH 604 0
DWIDTH 15 0
BBX 15 20 0 0
BITMAP
07E0
0000
0100
0180
0280
0280
06C0
0440
0460
0C60
0820
1830
1810
1FF0
3018
2008
600C
4004
4004
C006
ENDCHAR
STARTCHAR 0101
ENCODING 257
SWIDTH 523 0
DWIDTH 13 0
BBX 10 16 1 0
BITMAP
1F80
0000
0000
1F00
2180
00C0
0040
0040
0040
1FC0
7040
C040
8040
C0C0
6140
3E40
ENDCHAR
STARTCHAR 0102
ENCODING 258
SWIDTH 604 0
DWIDTH 15 0
BBX 15 22 0 0
BITMAP
0840
0840
0780
0000
0100
0180
0280
0280
06C0
0440
0460
0C60
0820
1830
1810
1FF0
3018
2008
600C
4004
4004
C006
ENDCHAR
STARTCHAR 0103
ENCODING 259
SWIDTH 523 0
DWIDTH 13 0
BBX 10 18 1 0
BITMAP
1080
1080
0F00
0000
0000
1F00
2180
00C0
0040
0040
0040
1FC0
7040
C040
8040
C0C0
6140
3E40
ENDCHAR
STARTCHAR 0104
ENCODING 260
SWIDTH 604 0
DWIDTH 15 0
BBX 15 23 0 -5
BITMAP
0100
0180
0280
0280
06C0
0440
0460
0C60
0820
1830
1810
1FF0
3018
2008
600C
4004
4004
C006
0004
0008
0008
0008
000E
ENDCHAR
STARTCHAR 0105
ENCODING 261
SWIDTH 523 0
DWIDTH 13 0
BBX 11 18 1 -5
BITMAP
1F00
2180
00C0
0040
0040
0040
1FC0
7040
C040
8040
C0C0
6140
3E40
0080
0180
0100
0100
00E0
ENDCHAR
STARTCHAR 0106
ENCODING 262
SWIDTH 644 0
DWIDTH 16 0
BBX 13 23 2 0
BITMAP
00C0
0180
0100
0200
0000
07F0
1C18
3000
6000
4000
C000
8000
8000
8000
8000
8000
8000
C000
C000
6000
3000
1C10
07F0
ENDCHAR
STARTCHAR 0107
ENCODING 263
SWIDTH 483 0
DWIDTH 12 0
BBX 10 19 1 0
BITMAP
0180
0300
0200
0400
0000
0000
0FC0
3040
2000
4000
4000
C000
C000
4000
4000
4000
6000
3040
0FC0
ENDCHAR
STARTCHAR 0108
ENCODING 264
SWIDTH 644 0
DWIDTH 16 0
BBX 13 23 2 0
BITMAP
0300
0780
0480
0840
0000
07F0
1C18
3000
6000
4000
C000
8000
8000
8000
8000
8000
8000
C000
C000
6000
3000
1C10
07F0
ENDCHAR
STARTCHAR 0109
ENCODING 265
SWIDTH 483 0
DWIDTH 12 0
BBX 10 19 1 0
BITMAP
0600
0F00
0900
1080
0000
0000
0FC0
3040
2000
4000
4000
C000
C000
4000
4000
4000
6000
3040
0FC0
ENDCHAR
STARTCHAR 010A
ENCODING 266
SWIDTH 644 0
DWIDTH 16 0
BBX 13 22 2 0
BITMAP
0180
0180
0000
0000
07F0
1C18
3000
6000
4000
C000
8000
8000
8000
8000
8000
8000
C000
C000
6000
3000
1C10
07F0
ENDCHAR
STARTCHAR 010B
ENCODING 267
SWIDTH 483 0
DWIDTH 12 0
BBX 10 18 1 0
BITMAP
0600
0600
0000
0000
0000
0FC0
3040
2000
4000
4000
C000
C000
4000
4000
4000
6000
3040
0FC0
ENDCHAR
STARTCHAR 010C
ENCODING 268
SWIDTH 644 0
DWIDTH 16 0
BBX 13 23 2 0
BITMAP
0840
0480
0780
0300
0000
07F0
1C18
3000
6000
4000
C000
8000
8000
8000
8000
8000
8000
C000
C000
6000
3000
1C10
07F0
ENDCHAR
STARTCHAR 010D
ENCODING 269
SWIDTH 483 0
DWIDTH 12 0
BBX 10 19 1 0
BITMAP
1080
0900
0F00
0600
0000
0000
0FC0
3040
2000
4000
4000
C000
C000
4000
4000
4000
6000
3040
0FC0
ENDCHAR
STARTCHAR 010E
ENCODING 270
SWIDTH 724 0
DWIDTH 18 0
BBX 13 23 3 0
BITMAP
2100
1200
1E00
0C00
0000
FF00
81C0
8060
8030
8018
8008
8008
8008
8008
8008
8008
8008
8018
8018
8030
8060
81C0
FF00
ENDCHAR
STARTCHAR 010F
ENCODING 271
SWIDTH 604 0
DWIDTH 15 0
BBX 16 19 1 0
BITMAP
0013
0012
0012
0014
0010
0010
0F90
30D0
6030
4030
4030
C010
C010
C010
4030
4030
6030
30D0
0F90
ENDCHAR
STARTCHAR 0110
ENCODING 272
SWIDTH 724 0
DWIDTH 18 0
BBX 15 18 1 0
BITMAP
3FC0
2070
2018
200C
2004
2006
2002
2002
FF02
2002
2002
2002
2006
2004
200C
2018
2070
3FC0
ENDCHAR
STARTCHAR 0111
ENCODING 273
SWIDTH 604 0
DWIDTH 15 0
BBX 14 19 1 0
BITMAP
0010
0010
0010
07FC
0010
0010
0F90
30D0
6030
4030
4030
C010
C010
C010
4030
4030
6030
30D0
0F90
ENDCHAR
STARTCHAR 0112
ENCODING 274
SWIDTH 563 0
DWIDTH 14 0
BBX 9 20 3 0
BITMAP
7E00
0000
FF80
8000
8000
8000
8000
8000
8000
8000
FF80
8000
8000
8000
8000
8000
8000
8000
8000
FF80
ENDCHAR
STARTCHAR 0113
ENCODING 275
SWIDTH 563 0
DWIDTH 14 0
BBX 12 16 1 0
BITMAP
1F80
0000
0000
0F80
30C0
2060
4020
4020
4030
FFF0
4000
4000
4000
6000
3020
0FC0
ENDCHAR
STARTCHAR 0114
ENCODING 276
SWIDTH 563 0
DWIDTH 14 0
BBX 9 22 3 0
BITMAP
4200
4200
3C00
0000
FF80
8000
8000
8000
8000
8000
8000
8000
FF80
8000
8000
8000
8000
8000
8000
8000
8000
FF80
ENDCHAR
STARTCHAR 0115
ENCODING 277
SWIDTH 563 0
DWIDTH 14 0
BBX 12 18 1 0
BITMAP
1080
1080
0F00
0000
0000
0F80
30C0
2060
4020
4020
4030
FFF0
4000
4000
4000
6000
3020
0FC0
ENDCHAR
STARTCHAR 0116
ENCODING 278
SWIDTH 563 0
DWIDTH 14 0
BBX 9 22 3 0
BITMAP
1800
1800
0000
0000
FF80
8000
8000
8000
8000
8000
8000
8000
FF80
8000
8000
8000
8000
8000
8000
8000
8000
FF80
ENDCHAR
STARTCHAR 0117
ENCODING 279
SWIDTH 563 0
DWIDTH 14 0
BBX 12 18 1 0
BITMAP
0600
0600
0000
0000
0000
0F80
30C0
2060
4020
4020
4030
FFF0
4000
4000
4000
6000
3020
0FC0
ENDCHAR
STARTCHAR 0118
ENCODING 280
SWIDTH 563 0
DWIDTH 14 0
BBX 9 23 3 -5
BITMAP
FF80
8000
8000
8000
8000
8000
8000
8000
FF80
8000
8000
8000
8000
8000
8000
8000
8000
FF80
0200
0400
0400
0400
0700
ENDCHAR
STARTCHAR 0119
ENCODING 281
SWIDTH 563 0
DWIDTH 14 0
BBX 12 18 1 -5
BITMAP
0F80
30C0
2060
4020
4020
4030
FFF0
4000
4000
4000
6000
3020
0FC0
0080
0100
0100
0100
01C0
ENDCHAR
STARTCHAR 011A
ENCODING 282
SWIDTH 563 0
DWIDTH 14 0
BBX 9 23 3 0
BITMAP
4200
2400
3C00
1800
0000
FF80
8000
8000
8000
8000
8000
8000
8000
FF80
8000
8000
8000
8000
8000
8000
8000
8000
FF80
ENDCHAR
STARTCHAR 011B
ENCODING 283
SWIDTH 563 0
DWIDTH 14 0
BBX 12 19 1 0
BITMAP
1080
0900
0F00
0600
0000
0000
0F80
30C0
2060
4020
4020
4030
FFF0
4000
4000
4000
6000
3020
0FC0
ENDCHAR
STARTCHAR 011C
ENCODING 284
SWIDTH 724 0
DWIDTH 18 0
BBX 14 23 2 0
BITMAP
0180
03C0
0240
0420
0000
07F0
1C1C
3000
6000
4000
C000
8000
8000
8000
81FC
8004
8004
8004
C004
4004
3004
1C0C
07F0
ENDCHAR
STARTCHAR 011D
ENCODING 285
SWIDTH 523 0
DWIDTH 13 0
BBX 12 25 1 -6
BITMAP
0C00
1E00
1200
2100
0000
0000
1FF0
6180
40C0
4040
4040
40C0
6180
1F00
2000
6000
6000
3F80
6060
8020
8020
8020
8060
C0C0
3F00
ENDCHAR
STARTCHAR 011E
ENCODING 286
SWIDTH 724 0
DWIDTH 18 0
BBX 14 22 2 0
BITMAP
0420
0420
03C0
0000
07F0
1C1C
3000
6000
4000
C000
8000
8000
8000
81FC
8004
8004
8004
C004
4004
3004
1C0C
07F0
ENDCHAR
STARTCHAR 011F
ENCODING 287
SWIDTH 523 0
DWIDTH 13 0
BBX 12 24 1 -6
BITMAP
2100
2100
1E00
0000
0000
1FF0
6180
40C0
4040
4040
40C0
6180
1F00
2000
6000
6000
3F80
6060
8020
8020
8020
8060
C0C0
3F00
ENDCHAR
STARTCHAR 0120
ENCODING 288
SWIDTH 724 0
DWIDTH 18 0
BBX 14 22 2 0
BITMAP
0180
0180
0000
0000
07F0
1C1C
3000
6000
4000
C000
8000
8000
8000
81FC
8004
8004
8004
C004
4004
3004
1C0C
07F0
ENDCHAR
STARTCHAR 0121
ENCODING 289
SWIDTH 523 0
DWIDTH 13 0
BBX 12 24 1 -6
BITMAP
0C00
0C00
0000
0000
0000
1FF0
6180
40C0
4040
4040
40C0
6180
1F00
2000
6000
6000
3F80
6060
8020
8020
8020
8060
C0C0
3F00
ENDCHAR
STARTCHAR 0122
ENCODING 290
SWIDTH 724 0
DWIDTH 18 0
BBX 14 24 2 -6
BITMAP
07F0
1C1C
3000
6000
4000
C000
8000
8000
8000
81FC
8004
8004
8004
C004
4004
3004
1C0C
07F0
0000
0000
0080
0080
0180
0100
ENDCHAR
STARTCHAR 0123
ENCODING 291
SWIDTH 523 0
DWIDTH 13 0
BBX 12 25 1 -6
BITMAP
0100
0200
0200
0600
0000
0000
1FF0
6180
40C0
4040
4040
40C0
6180
1F00
2000
6000
6000
3F80
6060
8020
8020
8020
8060
C0C0
3F00
ENDCHAR
STARTCHAR 0124
ENCODING 292
SWIDTH 724 0
DWIDTH 18 0
BBX 12 23 3 0
BITMAP
0600
0F00
0900
1080
0000
8010
8010
8010
8010
8010
8010
8010
8010
FFF0
8010
8010
8010
8010
8010
8010
8010
8010
8010
ENDCHAR
STARTCHAR 0125
ENCODING 293
SWIDTH 604 0
DWIDTH 15 0
BBX 11 24 2 0
BITMAP
0C00
1E00
1200
2100
0000
8000
8000
8000
8000
8000
8000
9F80
B0C0
C060
C020
C020
C020
8020
8020
8020
8020
8020
8020
8020
ENDCHAR
STARTCHAR 0126
ENCODING 294
SWIDTH 724 0
DWIDTH 18 0
BBX 18 18 0 0
BITMAP
100200
100200
100200
FFFFC0
100200
100200
100200
100200
1FFE00
100200
100200
100200
100200
100200
100200
100200
100200
100200
ENDCHAR
STARTCHAR 0127
ENCODING 295
SWIDTH 604 0
DWIDTH 15 0
BBX 13 19 0 0
BITMAP
2000
2000
2000
FF80
2000
2000
23E0
2C30
3018
3008
3008
3008
2008
2008
2008
2008
2008
2008
2008
ENDCHAR
STARTCHAR 0128
ENCODING 296
SWIDTH 241 0
DWIDTH 6 0
BBX 9 22 -1 0
BITMAP
7080
4900
8700
0000
1800
1800
1800
1800
1800
1800
1800
1800
1800
1800
1800
1800
1800
1800
1800
1800
1800
1800
ENDCHAR
STARTCHAR 0129
ENCODING 297
SWIDTH 241 0
DWIDTH 6 0
BBX 9 18 -2 0
BITMAP
7080
4900
8700
0000
0000
0C00
0C00
0C00
0C00
0C00
0C00
0C00
0C00
0C00
0C00
0C00
0C00
0C00
ENDCHAR
STARTCHAR 012A
ENCODING 298
SWIDTH 241 0
DWIDTH 6 0
BBX 6 20 0 0
BITMAP
FC
00
30
30
30
30
30
30
30
30
30
30
30
30
30
30
30
30
30
30
ENDCHAR
STARTCHAR 012B
ENCODING 299
SWIDTH 241 0
DWIDTH 6 0
BBX 6 16 0 0
BITMAP
FC
00
00
30
30
30
30
30
30
30
30
30
30
30
30
30
ENDCHAR
STARTCHAR 012C
ENCODING 300
SWIDTH 241 0
DWIDTH 6 0
BBX 6 22 0 0
BITMAP
84
84
78
00
30
30
30
30
30
30
30
30
30
30
30
30
30
30
30
30
30
30
ENDCHAR
STARTCHAR 012D
ENCODING 301
SWIDTH 241 0
DWIDTH 6 0
BBX 6 18 0 0
BITMAP
84
84
78
00
00
30
30
30
30
30
30
30
30
30
30
30
30
30
ENDCHAR
STARTCHAR 012E
ENCODING 302
SWIDTH 241 0
DWIDTH 6 0
BBX 3 23 1 -5
BITMAP
60
60
60
60
60
60
60
60
60
60
60
60
60
60
60
60
60
60
40
80
80
80
E0
ENDCHAR
STARTCHAR 012F
ENCODING 303
SWIDTH 241 0
DWIDTH 6 0
BBX 3 23 1 -5
BITMAP
60
60
00
00
00
60
60
60
60
60
60
60
60
60
60
60
60
60
40
80
80
80
E0
ENDCHAR
STARTCHAR 0130
ENCODING 304
SWIDTH 241 0
DWIDTH 6 0
BBX 2 22 2 0
BITMAP
C0
C0
00
00
C0
C0
C0
C0
C0
C0
C0
C0
C0
C0
C0
C0
C0
C0
C0
C0
C0
C0
ENDCHAR
STARTCHAR 0131
ENCODING 305
SWIDTH 241 0
DWIDTH 6 0
BBX 2 13 2 0
BITMAP
C0
C0
C0
C0
C0
C0
C0
C0
C0
C0
C0
C0
C0
ENDCHAR
STARTCHAR 0132
ENCODING 306
SWIDTH 483 0
DWIDTH 12 0
BBX 8 23 2 -5
BITMAP
C3
C3
C3
C3
C3
C3
C3
C3
C3
C3
C3
C3
C3
C3
C3
C3
C3
C3
03
03
02
06
3C
ENDCHAR
STARTCHAR 0133
ENCODING 307
SWIDTH 442 0
DWIDTH 11 0
BBX 8 24 2 -6
BITMAP
C3
C3
00
00
00
C3
C3
C3
C3
C3
C3
C3
C3
C3
C3
C3
C3
C3
03
03
03
03
02
1C
ENDCHAR
STARTCHAR 0134
ENCODING 308
SWIDTH 241 0
DWIDTH 6 0
BBX 8 28 -2 -5
BITMAP
0C
1E
12
21
00
0C
0C
0C
0C
0C
0C
0C
0C
0C
0C
0C
0C
0C
0C
0C
0C
0C
0C
0C
0C
08
18
F0
ENDCHAR
STARTCHAR 0135
ENCODING 309
SWIDTH 241 0
DWIDTH 6 0
BBX 7 25 -1 -6
BITMAP
18
3C
24
42
00
00
18
18
18
18
18
18
18
18
18
18
18
18
18
18
18
18
18
10
E0
ENDCHAR
STARTCHAR 0136
ENCODING 310
SWIDTH 604 0
DWIDTH 15 0
BBX 12 24 3 -6
BITMAP
8020
8040
8080
8100
8200
8400
8800
9000
B800
CC00
8400
8200
8300
8180
8080
8040
8060
8030
0000
0000
0400
0400
0C00
0800
ENDCHAR
STARTCHAR 0137
ENCODING 311
SWIDTH 483 0
DWIDTH 12 0
BBX 10 25 2 -6
BITMAP
8000
8000
8000
8000
8000
8000
8080
8100
8200
8400
8800
9000
B800
CC00
8600
8200
8100
8180
80C0
0000
0000
0400
0400
0C00
0800
ENDCHAR
STARTCHAR 0138
ENCODING 312
SWIDTH 483 0
DWIDTH 12 0
BBX 10 13 2 0
BITMAP
8080
8100
8200
8400
8800
9000
B800
CC00
8600
8200
8100
8180
80C0
ENDCHAR
STARTCHAR 0139
ENCODING 313
SWIDTH 523 0
DWIDTH 13 0
BBX 9 23 3 0
BITMAP
3000
6000
4000
8000
0000
8000
8000
8000
8000
8000
8000
8000
8000
8000
8000
8000
8000
8000
8000
8000
8000
8000
FF80
ENDCHAR
STARTCHAR 013A
ENCODING 314
SWIDTH 241 0
DWIDTH 6 0
BBX 4 24 2 0
BITMAP
30
60
40
80
00
C0
C0
C0
C0
C0
C0
C0
C0
C0
C0
C0
C0
C0
C0
C0
C0
C0
C0
C0
ENDCHAR
STARTCHAR 013B
ENCODING 315
SWIDTH 523 0
DWIDTH 13 0
BBX 9 24 3 -6
BITMAP
8000
8000
8000
8000
8000
8000
8000
8000
8000
8000
8000
8000
8000
8000
8000
8000
8000
FF80
0000
0000
0800
0800
1800
1000
ENDCHAR
STARTCHAR 013C
ENCODING 316
SWIDTH 241 0
DWIDTH 6 0
BBX 3 25 1 -6
BITMAP
60
60
60
60
60
60
60
60
60
60
60
60
60
60
60
60
60
60
60
00
00
40
40
C0
80
ENDCHAR
STARTCHAR 013D
ENCODING 317
SWIDTH 523 0
DWIDTH 13 0
BBX 9 18 3 0
BITMAP
8300
8200
8200
8400
8000
8000
8000
8000
8000
8000
8000
8000
8000
8000
8000
8000
8000
FF80
ENDCHAR
STARTCHAR 013E
ENCODING 318
SWIDTH 241 0
DWIDTH 6 0
BBX 6 19 2 0
BITMAP
CC
C8
C8
D0
C0
C0
C0
C0
C0
C0
C0
C0
C0
C0
C0
C0
C0
C0
C0
ENDCHAR
STARTCHAR 013F
ENCODING 319
SWIDTH 523 0
DWIDTH 13 0
BBX 9 18 3 0
BITMAP
8000
8000
8000
8000
8000
8000
8000
8000
8600
8600
8000
8000
8000
8000
8000
8000
8000
FF80
ENDCHAR
STARTCHAR 0140
ENCODING 320
SWIDTH 241 0
DWIDTH 6 0
BBX 5 19 2 0
BITMAP
C0
C0
C0
C0
C0
C0
C0
C0
C0
C0
D8
D8
C0
C0
C0
C0
C0
C0
C0
ENDCHAR
STARTCHAR 0141
ENCODING 321
SWIDTH 523 0
DWIDTH 13 0
BBX 11 18 1 0
BITMAP
2000
2000
2000
2000
2000
2000
2000
2200
2600
3800
3000
E000
A000
2000
2000
2000
2000
3FE0
ENDCHAR
STARTCHAR 0142
ENCODING 322
SWIDTH 241 0
DWIDTH 6 0
BBX 6 19 0 0
BITMAP
30
30
30
30
30
30
30
30
34
38
70
F0
30
30
30
30
30
30
30
ENDCHAR
STARTCHAR 0143
ENCODING 323
SWIDTH 724 0
DWIDTH 18 0
BBX 12 23 3 0
BITMAP
0180
0300
0200
0400
0000
8010
C010
C010
A010
B010
9010
8810
8C10
8410
8210
8310
8110
8090
80D0
8050
8030
8030
8010
ENDCHAR
STARTCHAR 0144
ENCODING 324
SWIDTH 604 0
DWIDTH 15 0
BBX 11 19 2 0
BITMAP
0300
0600
0400
0800
0000
0000
9F80
B0C0
C060
C020
C020
C020
8020
8020
8020
8020
8020
8020
8020
ENDCHAR
STARTCHAR 0145
ENCODING 325
SWIDTH 724 0
DWIDTH 18 0
BBX 12 24 3 -6
BITMAP
8010
C010
C010
A010
B010
9010
8810
8C10
8410
8210
8310
8110
8090
80D0
8050
8030
8030
8010
0000
0000
0400
0400
0C00
0800
ENDCHAR
STARTCHAR 0146
ENCODING 326
SWIDTH 604 0
DWIDTH 15 0
BBX 11 19 2 -6
BITMAP
9F80
B0C0
C060
C020
C020
C020
8020
8020
8020
8020
8020
8020
8020
0000
0000
0400
0400
0C00
0800
ENDCHAR
STARTCHAR 0147
ENCODING 327
SWIDTH 724 0
DWIDTH 18 0
BBX 12 23 3 0
BITMAP
1080
0900
0F00
0600
0000
8010
C010
C010
A010
B010
9010
8810
8C10
8410
8210
8310
8110
8090
80D0
8050
8030
8030
8010
ENDCHAR
STARTCHAR 0148
ENCODING 328
SWIDTH 604 0
DWIDTH 15 0
BBX 11 19 2 0
BITMAP
2100
1200
1E00
0C00
0000
0000
9F80
B0C0
C060
C020
C020
C020
8020
8020
8020
8020
8020
8020
8020
ENDCHAR
STARTCHAR 0149
ENCODING 329
SWIDTH 644 0
DWIDTH 16 0
BBX 14 18 0 0
BITMAP
2000
2000
6000
4000
4000
93F0
1618
180C
1804
1804
1804
1004
1004
1004
1004
1004
1004
1004
ENDCHAR
STARTCHAR 014A
ENCODING 330
SWIDTH 724 0
DWIDTH 18 0
BBX 12 23 3 -5
BITMAP
8010
C010
C010
A010
B010
9010
8810
8C10
8410
8210
8310
8110
8090
80D0
8050
8030
8030
8010
0010
0010
0010
0030
03C0
ENDCHAR
STARTCHAR 014B
ENCODING 331
SWIDTH 604 0
DWIDTH 15 0
BBX 11 19 2 -6
BITMAP
9F80
B0C0
C060
C020
C020
C020
8020
8020
8020
8020
8020
8020
8020
0020
0020
0020
0020
0060
03C0
ENDCHAR
STARTCHAR 014C
ENCODING 332
SWIDTH 765 0
DWIDTH 19 0
BBX 15 20 2 0
BITMAP
07E0
0000
07C0
1830
2008
4004
C006
8002
8002
8002
8002
8002
8002
8002
8002
C006
4004
2008
1830
07C0
ENDCHAR
STARTCHAR 014D
ENCODING 333
SWIDTH 604 0
DWIDTH 15 0
BBX 13 16 1 0
BITMAP
1F80
0000
0000
0F80
3060
6020
4010
4010
4010
C018
4010
4010
4010
2030
3060
0F80
ENDCHAR
STARTCHAR 014E
ENCODING 334
SWIDTH 765 0
DWIDTH 19 0
BBX 15 22 2 0
BITMAP
0840
0840
0780
0000
07C0
1830
2008
4004
C006
8002
8002
8002
8002
8002
8002
8002
8002
C006
4004
2008
1830
07C0
ENDCHAR
STARTCHAR 014F
ENCODING 335
SWIDTH 604 0
DWIDTH 15 0
BBX 13 18 1 0
BITMAP
1080
1080
0F00
0000
0000
0F80
3060
6020
4010
4010
4010
C018
4010
4010
4010
2030
3060
0F80
ENDCHAR
STARTCHAR 0150
ENCODING 336
SWIDTH 765 0
DWIDTH 19 0
BBX 15 23 2 0
BITMAP
0330
0660
0440
0880
0000
07C0
1830
2008
4004
C006
8002
8002
8002
8002
8002
8002
8002
8002
C006
4004
2008
1830
07C0
ENDCHAR
STARTCHAR 0151
ENCODING 337
SWIDTH 604 0
DWIDTH 15 0
BBX 13 19 1 0
BITMAP
0660
0CC0
0880
1100
0000
0000
0F80
3060
6020
4010
4010
4010
C018
4010
4010
4010
2030
3060
0F80
ENDCHAR
STARTCHAR 0152
ENCODING 338
SWIDTH 885 0
DWIDTH 22 0
BBX 19 18 2 0
BITMAP
0FFFE0
186000
206000
406000
C06000
806000
806000
806000
807FC0
806000
806000
806000
806000
C06000
406000
206000
186000
0FFFE0
ENDCHAR
STARTCHAR 0153
ENCODING 339
SWIDTH 966 0
DWIDTH 24 0
BBX 22 13 1 0
BITMAP
0F83E0
30C630
602818
403808
401008
C0100C
C01FFC
401000
401000
403800
602800
30CE08
0F83F0
ENDCHAR
STARTCHAR 0154
ENCODING 340
SWIDTH 604 0
DWIDTH 15 0
BBX 11 23 3 0
BITMAP
0600
0C00
0800
1000
0000
FE00
8180
80C0
8040
8040
8040
8040
80C0
8180
FE00
8200
8300
8100
8180
8080
80C0
8060
8020
ENDCHAR
STARTCHAR 0155
ENCODING 341
SWIDTH 402 0
DWIDTH 10 0
BBX 7 19 2 0
BITMAP
0C
18
10
20
00
00
8E
B0
A0
C0
C0
C0
C0
C0
C0
C0
C0
C0
C0
ENDCHAR
STARTCHAR 0156
ENCODING 342
SWIDTH 604 0
DWIDTH 15 0
BBX 11 24 3 -6
BITMAP
FE00
8180
80C0
8040
8040
8040
8040
80C0
8180
FE00
8200
8300
8100
8180
8080
80C0
8060
8020
0000
0000
0400
0400
0C00
0800
ENDCHAR
STARTCHAR 0157
ENCODING 343
SWIDTH 402 0
DWIDTH 10 0
BBX 7 19 2 -6
BITMAP
8E
B0
A0
C0
C0
C0
C0
C0
C0
C0
C0
C0
C0
00
00
40
40
C0
80
ENDCHAR
STARTCHAR 0158
ENCODING 344
SWIDTH 604 0
DWIDTH 15 0
BBX 11 23 3 0
BITMAP
4200
2400
3C00
1800
0000
FE00
8180
80C0
8040
8040
8040
8040
80C0
8180
FE00
8200
8300
8100
8180
8080
80C0
8060
8020
ENDCHAR
STARTCHAR 0159
ENCODING 345
SWIDTH 402 0
DWIDTH 10 0
BBX 7 19 2 0
BITMAP
84
48
78
30
00
00
8E
B0
A0
C0
C0
C0
C0
C0
C0
C0
C0
C0
C0
ENDCHAR
STARTCHAR 015A
ENCODING 346
SWIDTH 563 0
DWIDTH 14 0
BBX 12 23 1 0
BITMAP
0180
0300
0200
0400
0000
0FC0
3060
6000
4000
4000
4000
6000
3000
0E00
0380
0060
0020
0030
0030
0030
0060
C0C0
7F80
ENDCHAR
STARTCHAR 015B
ENCODING 347
SWIDTH 483 0
DWIDTH 12 0
BBX 10 19 1 0
BITMAP
0600
0C00
0800
1000
0000
0000
3F80
6080
C000
C000
4000
3000
0E00
0180
00C0
0040
00C0
C180
7F00
ENDCHAR
STARTCHAR 015C
ENCODING 348
SWIDTH 563 0
DWIDTH 14 0
BBX 12 23 1 0
BITMAP
0600
0F00
0900
1080
0000
0FC0
3060
6000
4000
4000
4000
6000
3000
0E00
0380
0060
0020
0030
0030
0030
0060
C0C0
7F80
ENDCHAR
STARTCHAR 015D
ENCODING 349
SWIDTH 483 0
DWIDTH 12 0
BBX 10 19 1 0
BITMAP
0C00
1E00
1200
2100
0000
0000
3F80
6080
C000
C000
4000
3000
0E00
0180
00C0
0040
00C0
C180
7F00
ENDCHAR
STARTCHAR 015E
ENCODING 350
SWIDTH 563 0
DWIDTH 14 0
BBX 12 24 1 -6
BITMAP
0FC0
3060
6000
4000
4000
4000
6000
3000
0E00
0380
0060
0020
0030
0030
0030
0060
C0C0
7F80
0400
0E00
0300
0300
0200
0E00
ENDCHAR
STARTCHAR 015F
ENCODING 351
SWIDTH 483 0
DWIDTH 12 0
BBX 10 19 1 -6
BITMAP
3F80
6080
C000
C000
4000
3000
0E00
0180
00C0
0040
00C0
C180
7F00
0800
1C00
0600
0600
0400
1C00
ENDCHAR
STARTCHAR 0160
ENCODING 352
SWIDTH 563 0
DWIDTH 14 0
BBX 12 23 1 0
BITMAP
1080
0900
0F00
0600
0000
0FC0
3060
6000
4000
4000
4000
6000
3000
0E00
0380
0060
0020
0030
0030
0030
0060
C0C0
7F80
ENDCHAR
STARTCHAR 0161
ENCODING 353
SWIDTH 483 0
DWIDTH 12 0
BBX 10 19 1 0
BITMAP
2100
1200
1E00
0C00
0000
0000
3F80
6080
C000
C000
4000
3000
0E00
0180
00C0
0040
00C0
C180
7F00
ENDCHAR
STARTCHAR 0162
ENCODING 354
SWIDTH 523 0
DWIDTH 13 0
BBX 13 24 0 -6
BITMAP
FFF8
0200
0200
0200
0200
0200
0200
0200
0200
0200
0200
0200
0200
0200
0200
0200
0200
0200
0200
0700
0180
0180
0100
0700
ENDCHAR
STARTCHAR 0163
ENCODING 355
SWIDTH 322 0
DWIDTH 8 0
BBX 7 22 0 -6
BITMAP
10
20
20
FE
20
20
20
20
20
20
20
20
20
30
10
1E
08
1C
06
06
04
1C
ENDCHAR
STARTCHAR 0164
ENCODING 356
SWIDTH 523 0
DWIDTH 13 0
BBX 13 23 0 0
BITMAP
1080
0900
0F00
0600
0000
FFF8
0200
0200
0200
0200
0200
0200
0200
0200
0200
0200
0200
0200
0200
0200
0200
0200
0200
ENDCHAR
STARTCHAR 0165
ENCODING 357
SWIDTH 322 0
DWIDTH 8 0
BBX 9 19 0 0
BITMAP
0180
0100
0100
1200
2000
2000
FE00
2000
2000
2000
2000
2000
2000
2000
2000
2000
3000
1000
1E00
ENDCHAR
STARTCHAR 0166
ENCODING 358
SWIDTH 523 0
DWIDTH 13 0
BBX 13 18 0 0
BITMAP
FFF8
0200
0200
0200
0200
0200
0200
0200
3FE0
0200
0200
0200
0200
0200
0200
0200
0200
0200
ENDCHAR
STARTCHAR 0167
ENCODING 359
SWIDTH 322 0
DWIDTH 8 0
BBX 7 16 0 0
BITMAP
10
20
20
FE
20
20
20
20
FE
20
20
20
20
30
10
1E
ENDCHAR
STARTCHAR 0168
ENCODING 360
SWIDTH 724 0
DWIDTH 18 0
BBX 14 22 2 0
BITMAP
1C20
1240
21C0
0000
C00C
C00C
C00C
C00C
C00C
C00C
C00C
C00C
C00C
C00C
C00C
C00C
C00C
4008
4008
6018
3870
0FC0
ENDCHAR
STARTCHAR 0169
ENCODING 361
SWIDTH 604 0
DWIDTH 15 0
BBX 11 18 2 0
BITMAP
3840
2480
4380
0000
0000
8020
8020
8020
8020
8020
8020
8020
8060
8060
8060
C060
61A0
3F20
ENDCHAR
STARTCHAR 016A
ENCODING 362
SWIDTH 724 0
DWIDTH 18 0
BBX 14 20 2 0
BITMAP
0FC0
0000
C00C
C00C
C00C
C00C
C00C
C00C
C00C
C00C
C00C
C00C
C00C
C00C
C00C
4008
4008
6018
3870
0FC0
ENDCHAR
STARTCHAR 016B
ENCODING 363
SWIDTH 604 0
DWIDTH 15 0
BBX 11 16 2 0
BITMAP
3F00
0000
0000
8020
8020
8020
8020
8020
8020
8020
8060
8060
8060
C060
61A0
3F20
ENDCHAR
STARTCHAR 016C
ENCODING 364
SWIDTH 724 0
DWIDTH 18 0
BBX 14 22 2 0
BITMAP
0840
0840
0780
0000
C00C
C00C
C00C
C00C
C00C
C00C
C00C
C00C
C00C
C00C
C00C
C00C
C00C
4008
4008
6018
3870
0FC0
ENDCHAR
STARTCHAR 016D
ENCODING 365
SWIDTH 604 0
DWIDTH 15 0
BBX 11 18 2 0
BITMAP
2100
2100
1E00
0000
0000
8020
8020
8020
8020
8020
8020
8020
8060
8060
8060
C060
61A0
3F20
ENDCHAR
STARTCHAR 016E
ENCODING 366
SWIDTH 724 0
DWIDTH 18 0
BBX 14 24 2 0
BITMAP
0780
0480
0840
0480
0780
0000
C00C
C00C
C00C
C00C
C00C
C00C
C00C
C00C
C00C
C00C
C00C
C00C
C00C
4008
4008
6018
3870
0FC0
ENDCHAR
STARTCHAR 016F
ENCODING 367
SWIDTH 604 0
DWIDTH 15 0
BBX 11 20 2 0
BITMAP
1E00
1200
2100
1200
1E00
0000
0000
8020
8020
8020
8020
8020
8020
8020
8060
8060
8060
C060
61A0
3F20
ENDCHAR
STARTCHAR 0170
ENCODING 368
SWIDTH 724 0
DWIDTH 18 0
BBX 14 23 2 0
BITMAP
0330
0660
0440
0880
0000
C00C
C00C
C00C
C00C
C00C
C00C
C00C
C00C
C00C
C00C
C00C
C00C
C00C
4008
4008
6018
3870
0FC0
ENDCHAR
STARTCHAR 0171
ENCODING 369
SWIDTH 604 0
DWIDTH 15 0
BBX 11 19 2 0
BITMAP
0CC0
1980
1100
2200
0000
0000
8020
8020
8020
8020
8020
8020
8020
8060
8060
8060
C060
61A0
3F20
ENDCHAR
STARTCHAR 0172
ENCODING 370
SWIDTH 724 0
DWIDTH 18 0
BBX 14 23 2 -5
BITMAP
C00C
C00C
C00C
C00C
C00C
C00C
C00C
C00C
C00C
C00C
C00C
C00C
C00C
4008
4008
6018
3870
0FC0
0100
0200
0200
0200
0380
ENDCHAR
STARTCHAR 0173
ENCODING 371
SWIDTH 604 0
DWIDTH 15 0
BBX 11 18 2 -5
BITMAP
8020
8020
8020
8020
8020
8020
8020
8060
8060
8060
C060
61A0
3F20
0040
0080
0080
0080
00E0
ENDCHAR
STARTCHAR 0174
ENCODING 372
SWIDTH 885 0
DWIDTH 22 0
BBX 20 23 1 0
BITMAP
006000
00F000
009000
010800
000000
806010
806010
C06030
40B020
409020
409020
619060
210840
210840
210840
330CC0
120480
120480
120480
1C0300
0C0300
0C0300
0C0300
ENDCHAR
STARTCHAR 0175
ENCODING 373
SWIDTH 724 0
DWIDTH 18 0
BBX 16 19 1 0
BITMAP
0180
03C0
0240
0420
0000
0000
8181
8181
81C1
C343
4242
4242
4622
2426
2424
2C14
3814
1818
1808
ENDCHAR
STARTCHAR 0176
ENCODING 374
SWIDTH 523 0
DWIDTH 13 0
BBX 13 23 0 0
BITMAP
0600
0F00
0900
1080
0000
C018
4010
6030
2020
3060
1040
18C0
0880
0D80
0500
0200
0200
0200
0200
0200
0200
0200
0200
ENDCHAR
STARTCHAR 0177
ENCODING 375
SWIDTH 442 0
DWIDTH 11 0
BBX 11 25 0 -6
BITMAP
0600
0F00
0900
1080
0000
0000
8020
4040
4040
60C0
2080
2080
3180
1100
1100
0A00
0A00
0A00
0400
0400
0C00
0800
1800
1000
E000
ENDCHAR
STARTCHAR 0178
ENCODING 376
SWIDTH 523 0
DWIDTH 13 0
BBX 13 22 0 0
BITMAP
1080
1080
0000
0000
C018
4010
6030
2020
3060
1040
18C0
0880
0D80
0500
0200
0200
0200
0200
0200
0200
0200
0200
ENDCHAR
STARTCHAR 0179
ENCODING 377
SWIDTH 563 0
DWIDTH 14 0
BBX 12 23 1 0
BITMAP
0180
0300
0200
0400
0000
FFF0
0020
0060
0040
0080
0180
0100
0300
0600
0400
0C00
0800
1000
3000
2000
4000
C000
FFF0
ENDCHAR
STARTCHAR 017A
ENCODING 378
SWIDTH 483 0
DWIDTH 12 0
BBX 10 19 1 0
BITMAP
0300
0600
0400
0800
0000
0000
7FC0
0080
0180
0300
0200
0400
0C00
0800
1000
2000
6000
4000
FFC0
ENDCHAR
STARTCHAR 017B
ENCODING 379
SWIDTH 563 0
DWIDTH 14 0
BBX 12 22 1 0
BITMAP
0600
0600
0000
0000
FFF0
0020
0060
0040
0080
0180
0100
0300
0600
0400
0C00
0800
1000
3000
2000
4000
C000
FFF0
ENDCHAR
STARTCHAR 017C
ENCODING 380
SWIDTH 483 0
DWIDTH 12 0
BBX 10 18 1 0
BITMAP
0C00
0C00
0000
0000
0000
7FC0
0080
0180
0300
0200
0400
0C00
0800
1000
2000
6000
4000
FFC0
ENDCHAR
STARTCHAR 017D
ENCODING 381
SWIDTH 563 0
DWIDTH 14 0
BBX 12 23 1 0
BITMAP
1080
0900
0F00
0600
0000
FFF0
0020
0060
0040
0080
0180
0100
0300
0600
0400
0C00
0800
1000
3000
2000
4000
C000
FFF0
ENDCHAR
STARTCHAR 017E
ENCODING 382
SWIDTH 483 0
DWIDTH 12 0
BBX 10 19 1 0
BITMAP
2100
1200
1E00
0C00
0000
0000
7FC0
0080
0180
0300
0200
0400
0C00
0800
1000
2000
6000
4000
FFC0
ENDCHAR
STARTCHAR 017F
ENCODING 383
SWIDTH 322 0
DWIDTH 8 0
BBX 6 19 2 0
BITMAP
3C
60
40
C0
C0
C0
C0
C0
C0
C0
C0
C0
C0
C0
C0
C0
C0
C0
C0
ENDCHAR
STARTCHAR 0192
ENCODING 402
SWIDTH 563 0
DWIDTH 14 0
BBX 10 24 2 -6
BITMAP
03C0
0400
0C00
0800
0800
0800
0800
3F80
0800
0800
0800
0800
0800
0800
0800
0800
0800
0800
0800
0800
0800
0800
1800
F000
ENDCHAR
STARTCHAR 01A0
ENCODING 416
SWIDTH 765 0
DWIDTH 19 0
BBX 17 19 2 0
BITMAP
000180
07E180
183100
200B00
400400
C00600
800200
800200
800200
800200
800200
800200
800200
800200
C00600
400400
200800
183000
07C000
ENDCHAR
STARTCHAR 01A1
ENCODING 417
SWIDTH 604 0
DWIDTH 15 0
BBX 14 15 1 0
BITMAP
0004
0004
0F8C
3078
6020
4010
4010
4010
C018
4010
4010
4010
2030
3060
0F80
ENDCHAR
STARTCHAR 01AF
ENCODING 431
SWIDTH 724 0
DWIDTH 18 0
BBX 17 19 2 0
BITMAP
000180
C00980
C00900
C00B00
C00E00
C00800
C00800
C00800
C00800
C00800
C00800
C00800
C00800
C00800
400800
400800
601000
306000
0FC000
ENDCHAR
STARTCHAR 01B0
ENCODING 432
SWIDTH 604 0
DWIDTH 15 0
BBX 14 15 2 0
BITMAP
000C
0008
8058
8070
8040
8040
8040
8040
8040
8040
8040
8040
C0C0
61C0
3E40
ENDCHAR
STARTCHAR 01F0
ENCODING 496
SWIDTH 241 0
DWIDTH 6 0
BBX 7 25 -1 -6
BITMAP
42
24
3C
18
00
00
18
18
18
18
18
18
18
18
18
18
18
18
18
18
18
18
18
10
E0
ENDCHAR
STARTCHAR 01FA
ENCODING 506
SWIDTH 604 0
DWIDTH 15 0
BBX 15 24 0 0
BITMAP
0060
00C0
0100
0000
0380
0440
0440
0440
0380
0180
0280
0280
0440
0440
0820
0820
1010
1FF0
3018
2008
600C
4004
4004
8002
ENDCHAR
STARTCHAR 01FB
ENCODING 507
SWIDTH 523 0
DWIDTH 13 0
BBX 10 23 1 0
BITMAP
0300
0200
0400
0000
0E00
1100
1100
1100
0E00
0000
1F00
2180
00C0
0040
0040
0040
1FC0
7040
C040
8040
C0C0
6140
3E40
ENDCHAR
STARTCHAR 01FC
ENCODING 508
SWIDTH 805 0
DWIDTH 20 0
BBX 18 23 0 0
BITMAP
000600
000C00
000800
001000
000000
00FFC0
012000
012000
032000
022000
062000
042000
042000
0C3FC0
082000
182000
1FE000
302000
202000
602000
602000
402000
C03FC0
ENDCHAR
STARTCHAR 01FD
ENCODING 509
SWIDTH 845 0
DWIDTH 21 0
BBX 19 19 1 0
BITMAP
001800
003000
002000
004000
000000
000000
1F1F00
21B180
00E0C0
004040
004040
1FC060
707FE0
404000
C04000
80C000
C0E000
633040
3E0F80
ENDCHAR
STARTCHAR 01FE
ENCODING 510
SWIDTH 765 0
DWIDTH 19 0
BBX 15 23 2 0
BITMAP
0060
00C0
0080
0100
0000
07C4
183C
2018
4014
C026
8062
8042
8082
8182
8302
8202
8402
8C02
C806
5004
2008
7830
4FC0
ENDCHAR
STARTCHAR 01FF
ENCODING 511
SWIDTH 604 0
DWIDTH 15 0
BBX 13 19 1 0
BITMAP
0180
0300
0200
0400
0000
0000
0F90
30F0
6060
40D0
4090
4110
C218
4410
4C10
5810
3030
3060
4F80
ENDCHAR
STARTCHAR 0218
ENCODING 536
SWIDTH 563 0
DWIDTH 14 0
BBX 12 24 1 -6
BITMAP
0FC0
3060
6000
4000
4000
4000
6000
3000
0E00
0380
0060
0020
0030
0030
0030
0060
C0C0
7F80
0000
0000
0400
0400
0C00
0800
ENDCHAR
STARTCHAR 0219
ENCODING 537
SWIDTH 483 0
DWIDTH 12 0
BBX 10 19 1 -6
BITMAP
3F80
6080
C000
C000
4000
3000
0E00
0180
00C0
0040
00C0
C180
7F00
0000
0000
0800
0800
1800
1000
ENDCHAR
STARTCHAR 021A
ENCODING 538
SWIDTH 523 0
DWIDTH 13 0
BBX 13 24 0 -6
BITMAP
FFF8
0200
0200
0200
0200
0200
0200
0200
0200
0200
0200
0200
0200
0200
0200
0200
0200
0200
0000
0000
0200
0200
0600
0400
ENDCHAR
STARTCHAR 021B
ENCODING 539
SWIDTH 322 0
DWIDTH 8 0
BBX 7 22 0 -6
BITMAP
10
20
20
FE
20
20
20
20
20
20
20
20
20
30
10
1E
00
00
08
08
18
10
ENDCHAR
STARTCHAR 0237
ENCODING 567
SWIDTH 241 0
DWIDTH 6 0
BBX 5 19 -1 -6
BITMAP
18
18
18
18
18
18
18
18
18
18
18
18
18
18
18
18
18
10
E0
ENDCHAR
STARTCHAR 02BC
ENCODING 700
SWIDTH 161 0
DWIDTH 4 0
BBX 3 6 0 12
BITMAP
20
20
60
40
40
80
ENDCHAR
STARTCHAR 02C6
ENCODING 710
SWIDTH 563 0
DWIDTH 14 0
BBX 6 4 4 15
BITMAP
30
78
48
84
ENDCHAR
STARTCHAR 02C7
ENCODING 711
SWIDTH 563 0
DWIDTH 14 0
BBX 6 4 4 15
BITMAP
84
48
78
30
ENDCHAR
STARTCHAR 02C9
ENCODING 713
SWIDTH 563 0
DWIDTH 14 0
BBX 6 1 4 15
BITMAP
FC
ENDCHAR
STARTCHAR 02D8
ENCODING 728
SWIDTH 563 0
DWIDTH 14 0
BBX 6 3 4 15
BITMAP
84
84
78
ENDCHAR
STARTCHAR 02D9
ENCODING 729
SWIDTH 241 0
DWIDTH 6 0
BBX 2 2 2 16
BITMAP
C0
C0
ENDCHAR
STARTCHAR 02DA
ENCODING 730
SWIDTH 563 0
DWIDTH 14 0
BBX 6 5 4 15
BITMAP
78
48
84
48
78
ENDCHAR
STARTCHAR 02DB
ENCODING 731
SWIDTH 161 0
DWIDTH 4 0
BBX 3 5 1 -5
BITMAP
40
80
80
80
E0
ENDCHAR
STARTCHAR 02DC
ENCODING 732
SWIDTH 563 0
DWIDTH 14 0
BBX 9 3 3 15
BITMAP
7080
4900
8700
ENDCHAR
STARTCHAR 02DD
ENCODING 733
SWIDTH 563 0
DWIDTH 14 0
BBX 8 4 3 15
BITMAP
33
66
44
88
ENDCHAR
STARTCHAR 02F3
ENCODING 755
SWIDTH 322 0
DWIDTH 8 0
BBX 6 5 1 -7
BITMAP
78
48
84
48
78
ENDCHAR
STARTCHAR 0300
ENCODING 768
SWIDTH 0 0
DWIDTH 0 0
BBX 4 4 -11 15
BITMAP
C0
40
20
10
ENDCHAR
STARTCHAR 0301
ENCODING 769
SWIDTH 0 0
DWIDTH 0 0
BBX 4 4 -8 15
BITMAP
30
60
40
80
ENDCHAR
STARTCHAR 0303
ENCODING 771
SWIDTH 0 0
DWIDTH 0 0
BBX 9 3 -12 15
BITMAP
7080
4900
8700
ENDCHAR
STARTCHAR 0309
ENCODING 777
SWIDTH 0 0
DWIDTH 0 0
BBX 4 6 -9 15
BITMAP
E0
10
10
30
40
40
ENDCHAR
STARTCHAR 030F
ENCODING 783
SWIDTH 0 0
DWIDTH 0 0
BBX 7 4 -12 15
BITMAP
CC
44
66
22
ENDCHAR
STARTCHAR 0323
ENCODING 803
SWIDTH 0 0
DWIDTH 0 0
BBX 1 2 -8 -4
BITMAP
80
80
ENDCHAR
STARTCHAR 0384
ENCODING 900
SWIDTH 563 0
DWIDTH 14 0
BBX 3 5 6 15
BITMAP
60
40
40
40
80
ENDCHAR
STARTCHAR 0385
ENCODING 901
SWIDTH 563 0
DWIDTH 14 0
BBX 6 5 4 16
BITMAP
18
10
10
A4
84
ENDCHAR
STARTCHAR 0386
ENCODING 902
SWIDTH 604 0
DWIDTH 15 0
BBX 15 19 0 0
BITMAP
6000
4100
4180
4280
8280
06C0
0440
0460
0C60
0820
1830
1810
1FF0
3018
2008
600C
4004
4004
C006
ENDCHAR
STARTCHAR 0387
ENCODING 903
SWIDTH 241 0
DWIDTH 6 0
BBX 2 2 2 8
BITMAP
C0
C0
ENDCHAR
STARTCHAR 0388
ENCODING 904
SWIDTH 604 0
DWIDTH 15 0
BBX 14 19 -1 0
BITMAP
6000
47FC
4400
4400
8400
0400
0400
0400
0400
07FC
0400
0400
0400
0400
0400
0400
0400
0400
07FC
ENDCHAR
STARTCHAR 0389
ENCODING 905
SWIDTH 765 0
DWIDTH 19 0
BBX 17 19 -1 0
BITMAP
600000
440080
440080
440080
840080
040080
040080
040080
040080
07FF80
040080
040080
040080
040080
040080
040080
040080
040080
040080
ENDCHAR
STARTCHAR 038A
ENCODING 906
SWIDTH 281 0
DWIDTH 7 0
BBX 6 19 -1 0
BITMAP
60
4C
4C
4C
8C
0C
0C
0C
0C
0C
0C
0C
0C
0C
0C
0C
0C
0C
0C
ENDCHAR
STARTCHAR 038C
ENCODING 908
SWIDTH 765 0
DWIDTH 19 0
BBX 18 19 -1 0
BITMAP
600000
40F800
430600
440100
880080
1800C0
100040
100040
100040
100040
100040
100040
100040
100040
1800C0
080080
040100
030600
00F800
ENDCHAR
STARTCHAR 038E
ENCODING 910
SWIDTH 644 0
DWIDTH 16 0
BBX 17 19 -1 0
BITMAP
600000
4C0180
440100
460300
820200
030600
010400
018C00
008800
00D800
005000
002000
002000
002000
002000
002000
002000
002000
002000
ENDCHAR
STARTCHAR 038F
ENCODING 911
SWIDTH 805 0
DWIDTH 20 0
BBX 19 19 -1 0
BITMAP
600000
41FC00
430700
4C0180
880080
1800C0
100040
100040
100040
100040
100040
100040
1000C0
1800C0
080080
040100
060300
030600
3F8FE0
ENDCHAR
STARTCHAR 0390
ENCODING 912
SWIDTH 322 0
DWIDTH 8 0
BBX 8 21 0 0
BITMAP
18
10
10
A4
84
00
00
00
20
20
20
20
20
20
20
20
20
20
20
10
0F
ENDCHAR
STARTCHAR 0391
ENCODING 913
SWIDTH 604 0
DWIDTH 15 0
BBX 15 18 0 0
BITMAP
0100
0180
0280
0280
06C0
0440
0460
0C60
0820
1830
1810
1FF0
3018
2008
600C
4004
4004
C006
ENDCHAR
STARTCHAR 0392
ENCODING 914
SWIDTH 644 0
DWIDTH 16 0
BBX 12 18 3 0
BITMAP
FF00
81C0
8060
8020
8020
8020
8060
80C0
FF00
81C0
8060
8020
8030
8030
8020
8060
80C0
FF00
ENDCHAR
STARTCHAR 0393
ENCODING 915
SWIDTH 523 0
DWIDTH 13 0
BBX 10 18 3 0
BITMAP
FFC0
8000
8000
8000
8000
8000
8000
8000
8000
8000
8000
8000
8000
8000
8000
8000
8000
8000
ENDCHAR
STARTCHAR 0394
ENCODING 916
SWIDTH 563 0
DWIDTH 14 0
BBX 14 18 0 0
BITMAP
0300
0300
0300
0480
0480
0C80
0840
0840
1860
1020
1020
3030
2010
2010
6018
4008
4008
FFFC
ENDCHAR
STARTCHAR 0395
ENCODING 917
SWIDTH 563 0
DWIDTH 14 0
BBX 9 18 3 0
BITMAP
FF80
8000
8000
8000
8000
8000
8000
8000
FF80
8000
8000
8000
8000
8000
8000
8000
8000
FF80
ENDCHAR
STARTCHAR 0396
ENCODING 918
SWIDTH 563 0
DWIDTH 14 0
BBX 12 18 1 0
BITMAP
FFF0
0020
0060
0040
0080
0180
0100
0300
0600
0400
0C00
0800
1000
3000
2000
4000
C000
FFF0
ENDCHAR
STARTCHAR 0397
ENCODING 919
SWIDTH 724 0
DWIDTH 18 0
BBX 12 18 3 0
BITMAP
8010
8010
8010
8010
8010
8010
8010
8010
FFF0
8010
8010
8010
8010
8010
8010
8010
8010
8010
ENDCHAR
STARTCHAR 0398
ENCODING 920
SWIDTH 765 0
DWIDTH 19 0
BBX 15 18 2 0
BITMAP
07C0
1830
2008
4004
C006
8002
8002
8002
9FF2
8002
8002
8002
8002
C006
4004
2008
1830
07C0
ENDCHAR
STARTCHAR 0399
ENCODING 921
SWIDTH 241 0
DWIDTH 6 0
BBX 2 18 2 0
BITMAP
C0
C0
C0
C0
C0
C0
C0
C0
C0
C0
C0
C0
C0
C0
C0
C0
C0
C0
ENDCHAR
STARTCHAR 039A
ENCODING 922
SWIDTH 604 0
DWIDTH 15 0
BBX 12 18 3 0
BITMAP
8020
8040
8080
8100
8200
8400
8800
9000
B800
CC00
8400
8200
8300
8180
8080
8040
8060
8030
ENDCHAR
STARTCHAR 039B
ENCODING 923
SWIDTH 604 0
DWIDTH 15 0
BBX 15 18 0 0
BITMAP
0100
0100
0280
0280
06C0
0440
0440
0C20
0820
1830
1010
1010
3018
2008
600C
4004
4004
C006
ENDCHAR
STARTCHAR 039C
ENCODING 924
SWIDTH 885 0
DWIDTH 22 0
BBX 16 18 3 0
BITMAP
C003
C003
E003
A005
A005
B00D
9009
9819
8811
8811
8421
8421
8661
8241
8241
8181
8181
8181
ENDCHAR
STARTCHAR 039D
ENCODING 925
SWIDTH 724 0
DWIDTH 18 0
BBX 12 18 3 0
BITMAP
8010
C010
C010
A010
B010
9010
8810
8C10
8410
8210
8310
8110
8090
80D0
8050
8030
8030
8010
ENDCHAR
STARTCHAR 039E
ENCODING 926
SWIDTH 523 0
DWIDTH 13 0
BBX 13 18 0 0
BITMAP
7FF0
0000
0000
0000
0000
0000
0000
0000
3FE0
0000
0000
0000
0000
0000
0000
0000
0000
FFF8
ENDCHAR
STARTCHAR 039F
ENCODING 927
SWIDTH 765 0
DWIDTH 19 0
BBX 15 18 2 0
BITMAP
07C0
1830
2008
4004
C006
8002
8002
8002
8002
8002
8002
8002
8002
C006
4004
2008
1830
07C0
ENDCHAR
STARTCHAR 03A0
ENCODING 928
SWIDTH 724 0
DWIDTH 18 0
BBX 12 18 3 0
BITMAP
FFF0
8010
8010
8010
8010
8010
8010
8010
8010
8010
8010
8010
8010
8010
8010
8010
8010
8010
ENDCHAR
STARTCHAR 03A1
ENCODING 929
SWIDTH 604 0
DWIDTH 15 0
BBX 11 18 3 0
BITMAP
FE00
8180
80C0
8040
8060
8060
8040
80C0
8180
FE00
8000
8000
8000
8000
8000
8000
8000
8000
ENDCHAR
STARTCHAR 03A3
ENCODING 931
SWIDTH 563 0
DWIDTH 14 0
BBX 13 18 1 0
BITMAP
FFF0
C000
6000
3000
1000
0800
0400
0600
0300
0200
0400
0C00
1800
1000
2000
4000
C000
FFF8
ENDCHAR
STARTCHAR 03A4
ENCODING 932
SWIDTH 523 0
DWIDTH 13 0
BBX 13 18 0 0
BITMAP
FFF8
0200
0200
0200
0200
0200
0200
0200
0200
0200
0200
0200
0200
0200
0200
0200
0200
0200
ENDCHAR
STARTCHAR 03A5
ENCODING 933
SWIDTH 523 0
DWIDTH 13 0
BBX 13 18 0 0
BITMAP
C018
4010
6030
2020
3060
1040
18C0
0880
0D80
0500
0200
0200
0200
0200
0200
0200
0200
0200
ENDCHAR
STARTCHAR 03A6
ENCODING 934
SWIDTH 765 0
DWIDTH 19 0
BBX 17 18 1 0
BITMAP
008000
008000
0FF800
188E00
208300
408100
408100
C08180
C08180
C08180
408100
408100
208200
188C00
0FF800
008000
008000
008000
ENDCHAR
STARTCHAR 03A7
ENCODING 935
SWIDTH 523 0
DWIDTH 13 0
BBX 13 18 0 0
BITMAP
4010
6030
2020
1040
18C0
0880
0D80
0500
0200
0700
0500
0880
18C0
1040
3060
2020
4010
C018
ENDCHAR
STARTCHAR 03A8
ENCODING 936
SWIDTH 765 0
DWIDTH 19 0
BBX 15 18 2 0
BITMAP
8102
8102
8102
8102
8102
8102
8102
8102
8106
C104
7118
1FF0
0100
0100
0100
0100
0100
0100
ENDCHAR
STARTCHAR 03A9
ENCODING 937
SWIDTH 765 0
DWIDTH 19 0
BBX 17 18 1 0
BITMAP
07F000
0C1C00
300600
200200
600300
400100
400100
400100
400100
400100
400100
400300
600300
200200
100400
180C00
0C1800
FE3F80
ENDCHAR
STARTCHAR 03AA
ENCODING 938
SWIDTH 241 0
DWIDTH 6 0
BBX 6 22 0 0
BITMAP
84
84
00
00
30
30
30
30
30
30
30
30
30
30
30
30
30
30
30
30
30
30
ENDCHAR
STARTCHAR 03AB
ENCODING 939
SWIDTH 523 0
DWIDTH 13 0
BBX 13 22 0 0
BITMAP
1080
1080
0000
0000
C018
4010
6030
2020
3060
1040
18C0
0880
0D80
0500
0200
0200
0200
0200
0200
0200
0200
0200
ENDCHAR
STARTCHAR 03AC
ENCODING 940
SWIDTH 604 0
DWIDTH 15 0
BBX 14 20 1 0
BITMAP
0300
0200
0200
0200
0400
0000
0000
0F90
30D0
6030
4030
4030
C030
C010
4030
4030
4030
6030
30D0
1F9C
ENDCHAR
STARTCHAR 03AD
ENCODING 941
SWIDTH 442 0
DWIDTH 11 0
BBX 9 20 1 0
BITMAP
0600
0400
0400
0400
0800
0000
0000
3F00
6080
4000
C000
4000
6000
1E00
6000
C000
8000
C000
6080
3F00
ENDCHAR
STARTCHAR 03AE
ENCODING 942
SWIDTH 604 0
DWIDTH 15 0
BBX 11 26 2 -6
BITMAP
0600
0400
0400
0400
0800
0000
0000
9F80
B0C0
C060
C020
C020
C020
8020
8020
8020
8020
8020
8020
8020
0020
0020
0020
0020
0020
0020
ENDCHAR
STARTCHAR 03AF
ENCODING 943
SWIDTH 322 0
DWIDTH 8 0
BBX 6 20 2 0
BITMAP
60
40
40
40
80
00
00
80
80
80
80
80
80
80
80
80
80
80
40
3C
ENDCHAR
STARTCHAR 03B0
ENCODING 944
SWIDTH 604 0
DWIDTH 15 0
BBX 11 21 2 0
BITMAP
0600
0400
0400
2900
2100
0000
0000
0000
8060
8020
8020
8020
8020
8020
8020
8020
8020
C060
4040
60C0
1F00
ENDCHAR
STARTCHAR 03B1
ENCODING 945
SWIDTH 604 0
DWIDTH 15 0
BBX 14 13 1 0
BITMAP
0F90
30D0
6030
4030
4030
C030
C010
4030
4030
4030
6030
30D0
1F9C
ENDCHAR
STARTCHAR 03B2
ENCODING 946
SWIDTH 604 0
DWIDTH 15 0
BBX 12 25 2 -6
BITMAP
1F00
30C0
4060
C020
C020
8020
8060
80C0
8F00
80C0
8020
8020
8010
8010
8010
8030
8020
E0C0
9F80
8000
8000
8000
8000
8000
8000
ENDCHAR
STARTCHAR 03B3
ENCODING 947
SWIDTH 483 0
DWIDTH 12 0
BBX 12 19 0 -6
BITMAP
C030
4020
4020
2060
2040
30C0
1080
1880
0980
0900
0500
0600
0600
0600
0400
0400
0400
0C00
0C00
ENDCHAR
STARTCHAR 03B4
ENCODING 948
SWIDTH 604 0
DWIDTH 15 0
BBX 12 19 1 0
BITMAP
07C0
1870
1000
1000
1000
1800
0600
0380
1CC0
3060
6030
4010
4010
C010
4010
4010
6030
3060
0F80
ENDCHAR
STARTCHAR 03B5
ENCODING 949
SWIDTH 442 0
DWIDTH 11 0
BBX 9 13 1 0
BITMAP
3F00
6080
4000
C000
4000
6000
1E00
6000
C000
8000
C000
6080
3F00
ENDCHAR
STARTCHAR 03B6
ENCODING 950
SWIDTH 483 0
DWIDTH 12 0
BBX 9 24 2 -5
BITMAP
FF80
0180
0300
0600
0C00
1800
3000
2000
4000
C000
8000
8000
8000
8000
8000
8000
C000
7000
1F00
0180
0080
0080
0180
0100
ENDCHAR
STARTCHAR 03B7
ENCODING 951
SWIDTH 604 0
DWIDTH 15 0
BBX 11 19 2 -6
BITMAP
9F80
B0C0
C060
C020
C020
C020
8020
8020
8020
8020
8020
8020
8020
0020
0020
0020
0020
0020
0020
ENDCHAR
STARTCHAR 03B8
ENCODING 952
SWIDTH 563 0
DWIDTH 14 0
BBX 12 19 1 0
BITMAP
0F00
10C0
2040
6060
4020
4020
4020
C020
C030
FFF0
C030
C020
4020
4020
4020
6060
2040
30C0
0F00
ENDCHAR
STARTCHAR 03B9
ENCODING 953
SWIDTH 322 0
DWIDTH 8 0
BBX 6 13 2 0
BITMAP
80
80
80
80
80
80
80
80
80
80
80
40
3C
ENDCHAR
STARTCHAR 03BA
ENCODING 954
SWIDTH 483 0
DWIDTH 12 0
BBX 10 13 2 0
BITMAP
8080
8100
8200
8400
8800
9000
B800
CC00
8600
8200
8100
8180
80C0
ENDCHAR
STARTCHAR 03BB
ENCODING 955
SWIDTH 523 0
DWIDTH 13 0
BBX 13 19 0 0
BITMAP
7800
0800
0400
0400
0600
0200
0200
0500
0500
0980
0880
1880
10C0
3040
2040
6020
4020
4030
8018
ENDCHAR
STARTCHAR 03BC
ENCODING 956
SWIDTH 604 0
DWIDTH 15 0
BBX 11 19 2 -6
BITMAP
8020
8020
8020
8020
8020
8020
8020
8020
8060
C060
C060
E1A0
BF20
8000
8000
8000
8000
8000
8000
ENDCHAR
STARTCHAR 03BD
ENCODING 957
SWIDTH 523 0
DWIDTH 13 0
BBX 12 13 0 0
BITMAP
8010
4010
4010
6030
2030
2020
1020
1060
1040
0880
0980
0F00
0600
ENDCHAR
STARTCHAR 03BE
ENCODING 958
SWIDTH 442 0
DWIDTH 11 0
BBX 9 24 1 -5
BITMAP
7F80
0800
3000
2000
4000
4000
6000
3000
0F00
3000
6000
4000
C000
C000
C000
4000
6000
3C00
0700
0080
0080
0080
0080
0100
ENDCHAR
STARTCHAR 03BF
ENCODING 959
SWIDTH 604 0
DWIDTH 15 0
BBX 13 13 1 0
BITMAP
0F80
3060
6020
4010
4010
4010
C018
4010
4010
4010
2030
3060
0F80
ENDCHAR
STARTCHAR 03C0
ENCODING 960
SWIDTH 604 0
DWIDTH 15 0
BBX 14 13 0 0
BITMAP
FFFC
1030
1030
1030
1030
1030
1030
1030
1030
1030
1030
1010
101C
ENDCHAR
STARTCHAR 03C1
ENCODING 961
SWIDTH 604 0
DWIDTH 15 0
BBX 12 19 2 -6
BITMAP
1F00
30C0
4060
4020
C020
8020
8030
8020
8020
8020
8060
E0C0
9F00
8000
8000
8000
8000
8000
8000
ENDCHAR
STARTCHAR 03C2
ENCODING 962
SWIDTH 483 0
DWIDTH 12 0
BBX 10 18 1 -5
BITMAP
0FC0
3840
2000
4000
4000
4000
C000
C000
4000
4000
6000
3000
0F00
01C0
0040
0040
0080
0080
ENDCHAR
STARTCHAR 03C3
ENCODING 963
SWIDTH 604 0
DWIDTH 15 0
BBX 13 13 1 0
BITMAP
0FF8
1860
2020
4030
4010
4010
C010
4010
4010
4010
6020
3060
0F80
ENDCHAR
STARTCHAR 03C4
ENCODING 964
SWIDTH 442 0
DWIDTH 11 0
BBX 10 13 0 0
BITMAP
FFC0
0800
0800
0800
0800
0800
0800
0800
0800
0800
0800
0C00
07C0
ENDCHAR
STARTCHAR 03C5
ENCODING 965
SWIDTH 604 0
DWIDTH 15 0
BBX 11 13 2 0
BITMAP
8060
8020
8020
8020
8020
8020
8020
8020
8020
C060
4040
60C0
1F00
ENDCHAR
STARTCHAR 03C6
ENCODING 966
SWIDTH 684 0
DWIDTH 17 0
BBX 15 19 1 -6
BITMAP
30F0
2198
610C
4104
4104
C106
C106
4104
4104
410C
2118
3930
0FC0
0100
0100
0100
0100
0100
0100
ENDCHAR
STARTCHAR 03C7
ENCODING 967
SWIDTH 523 0
DWIDTH 13 0
BBX 13 19 0 -6
BITMAP
6030
3020
1060
1840
08C0
0880
0580
0500
0600
0600
0700
0D00
0900
1080
3080
20C0
6040
4060
8038
ENDCHAR
STARTCHAR 03C8
ENCODING 968
SWIDTH 724 0
DWIDTH 18 0
BBX 14 25 2 -6
BITMAP
0300
0300
0300
0300
0300
0300
8304
8304
8304
8304
8304
8304
8304
8304
8304
430C
6318
3B70
0FC0
0300
0300
0300
0300
0300
0300
ENDCHAR
STARTCHAR 03C9
ENCODING 969
SWIDTH 724 0
DWIDTH 18 0
BBX 16 13 1 0
BITMAP
2004
6006
4002
4002
4002
C183
C183
C183
4182
4182
4182
23C4
1E78
ENDCHAR
STARTCHAR 03CA
ENCODING 970
SWIDTH 322 0
DWIDTH 8 0
BBX 8 18 0 0
BITMAP
84
84
00
00
00
20
20
20
20
20
20
20
20
20
20
20
10
0F
ENDCHAR
STARTCHAR 03CB
ENCODING 971
SWIDTH 604 0
DWIDTH 15 0
BBX 11 18 2 0
BITMAP
2100
2100
0000
0000
0000
8060
8020
8020
8020
8020
8020
8020
8020
8020
C060
4040
60C0
1F00
ENDCHAR
STARTCHAR 03CC
ENCODING 972
SWIDTH 604 0
DWIDTH 15 0
BBX 13 20 1 0
BITMAP
0300
0200
0200
0200
0400
0000
0000
0F80
3060
6020
4010
4010
4010
C018
4010
4010
4010
2030
3060
0F80
ENDCHAR
STARTCHAR 03CD
ENCODING 973
SWIDTH 604 0
DWIDTH 15 0
BBX 11 20 2 0
BITMAP
0600
0400
0400
0400
0800
0000
0000
8060
8020
8020
8020
8020
8020
8020
8020
8020
C060
4040
60C0
1F00
ENDCHAR
STARTCHAR 03CE
ENCODING 974
SWIDTH 724 0
DWIDTH 18 0
BBX 16 20 1 0
BITMAP
00C0
0080
0080
0080
0100
0000
0000
2004
6006
4002
4002
4002
C183
C183
C183
4182
4182
4182
23C4
1E78
ENDCHAR
STARTCHAR 03D1
ENCODING 977
SWIDTH 604 0
DWIDTH 15 0
BBX 15 19 0 0
BITMAP
0780
08C0
1820
1030
1010
1810
0C18
0708
00FE
E008
3008
1008
3008
3018
3010
3010
3030
1860
0F80
ENDCHAR
STARTCHAR 03D2
ENCODING 978
SWIDTH 523 0
DWIDTH 13 0
BBX 13 18 0 0
BITMAP
C018
4030
6020
2040
3040
10C0
1880
0980
0D00
0500
0600
0200
0200
0200
0200
0200
0200
0200
ENDCHAR
STARTCHAR 03D6
ENCODING 982
SWIDTH 765 0
DWIDTH 19 0
BBX 18 13 0 0
BITMAP
FFFFC0
080200
100100
100100
200100
200180
204080
204080
204080
204180
20C100
11A300
0F1E00
ENDCHAR
STARTCHAR 0400
ENCODING 1024
SWIDTH 563 0
DWIDTH 14 0
BBX 9 23 3 0
BITMAP
6000
2000
1000
0800
0000
FF80
8000
8000
8000
8000
8000
8000
8000
FF80
8000
8000
8000
8000
8000
8000
8000
8000
FF80
ENDCHAR
STARTCHAR 0401
ENCODING 1025
SWIDTH 563 0
DWIDTH 14 0
BBX 9 22 3 0
BITMAP
4200
4200
0000
0000
FF80
8000
8000
8000
8000
8000
8000
8000
FF80
8000
8000
8000
8000
8000
8000
8000
8000
FF80
ENDCHAR
STARTCHAR 0402
ENCODING 1026
SWIDTH 684 0
DWIDTH 17 0
BBX 15 18 0 0
BITMAP
FFF0
0800
0800
0800
0800
0800
0800
0FF8
080C
0806
0802
0802
0802
0802
0802
0806
080C
0878
ENDCHAR
STARTCHAR 0403
ENCODING 1027
SWIDTH 523 0
DWIDTH 13 0
BBX 10 23 3 0
BITMAP
0600
0C00
0800
1000
0000
FFC0
8000
8000
8000
8000
8000
8000
8000
8000
8000
8000
8000
8000
8000
8000
8000
8000
8000
ENDCHAR
STARTCHAR 0404
ENCODING 1028
SWIDTH 644 0
DWIDTH 16 0
BBX 13 18 2 0
BITMAP
07F0
1C18
3000
6000
4000
C000
8000
8000
FFE0
8000
8000
8000
8000
C000
6000
3000
1C10
07F0
ENDCHAR
STARTCHAR 0405
ENCODING 1029
SWIDTH 563 0
DWIDTH 14 0
BBX 12 18 1 0
BITMAP
0FC0
3060
6000
4000
4000
4000
6000
3000
0E00
0380
0060
0020
0030
0030
0030
0060
C0C0
7F80
ENDCHAR
STARTCHAR 0406
ENCODING 1030
SWIDTH 241 0
DWIDTH 6 0
BBX 2 18 2 0
BITMAP
C0
C0
C0
C0
C0
C0
C0
C0
C0
C0
C0
C0
C0
C0
C0
C0
C0
C0
ENDCHAR
STARTCHAR 0407
ENCODING 1031
SWIDTH 241 0
DWIDTH 6 0
BBX 6 22 0 0
BITMAP
84
84
00
00
30
30
30
30
30
30
30
30
30
30
30
30
30
30
30
30
30
30
ENDCHAR
STARTCHAR 0408
ENCODING 1032
SWIDTH 241 0
DWIDTH 6 0
BBX 6 23 -2 -5
BITMAP
0C
0C
0C
0C
0C
0C
0C
0C
0C
0C
0C
0C
0C
0C
0C
0C
0C
0C
0C
0C
08
18
F0
ENDCHAR
STARTCHAR 0409
ENCODING 1033
SWIDTH 926 0
DWIDTH 23 0
BBX 22 18 0 0
BITMAP
03F800
020800
060800
060800
040800
040800
040800
040800
040FE0
0C0830
0C0808
080808
08080C
08080C
180808
100818
300830
E00FE0
ENDCHAR
STARTCHAR 040A
ENCODING 1034
SWIDTH 966 0
DWIDTH 24 0
BBX 20 18 3 0
BITMAP
802000
802000
802000
802000
802000
802000
802000
802000
FFFF80
8020C0
802020
802020
802030
802030
802020
802060
8020C0
803F80
ENDCHAR
STARTCHAR 040B
ENCODING 1035
SWIDTH 684 0
DWIDTH 17 0
BBX 15 18 0 0
BITMAP
FFF0
0800
0800
0800
0800
0800
0800
0FF8
080C
0806
0802
0802
0802
0802
0802
0802
0802
0802
ENDCHAR
STARTCHAR 040C
ENCODING 1036
SWIDTH 563 0
DWIDTH 14 0
BBX 12 23 2 0
BITMAP
0180
0300
0200
0400
0000
C020
C040
C080
C100
C200
C400
C800
D800
F000
F000
D800
CC00
C600
C300
C180
C0C0
C060
C030
ENDCHAR
STARTCHAR 040D
ENCODING 1037
SWIDTH 724 0
DWIDTH 18 0
BBX 12 23 3 0
BITMAP
1800
0800
0400
0200
0000
8010
8030
8030
8050
80D0
8090
8110
8310
8210
8410
8C10
8810
9010
B010
A010
C010
C010
8010
ENDCHAR
STARTCHAR 040E
ENCODING 1038
SWIDTH 604 0
DWIDTH 15 0
BBX 15 22 0 0
BITMAP
1020
0840
0780
0000
C006
4004
600C
2008
1008
1810
0810
0C20
0420
0660
0240
03C0
0180
0180
0100
0300
4600
7C00
ENDCHAR
STARTCHAR 040F
ENCODING 1039
SWIDTH 724 0
DWIDTH 18 0
BBX 12 23 3 -5
BITMAP
8010
8010
8010
8010
8010
8010
8010
8010
8010
8010
8010
8010
8010
8010
8010
8010
8010
FFF0
0600
0600
0600
0600
0600
ENDCHAR
STARTCHAR 0410
ENCODING 1040
SWIDTH 604 0
DWIDTH 15 0
BBX 15 18 0 0
BITMAP
0100
0180
0280
0280
06C0
0440
0460
0C60
0820
1830
1810
1FF0
3018
2008
600C
4004
4004
C006
ENDCHAR
STARTCHAR 0411
ENCODING 1041
SWIDTH 604 0
DWIDTH 15 0
BBX 11 18 3 0
BITMAP
FFC0
8000
8000
8000
8000
8000
8000
8000
FF00
8180
8040
8040
8060
8060
8040
80C0
8180
FF00
ENDCHAR
STARTCHAR 0412
ENCODING 1042
SWIDTH 644 0
DWIDTH 16 0
BBX 12 18 3 0
BITMAP
FF00
81C0
8060
8020
8020
8020
8060
80C0
FF00
81C0
8060
8020
8030
8030
8020
8060
80C0
FF00
ENDCHAR
STARTCHAR 0413
ENCODING 1043
SWIDTH 523 0
DWIDTH 13 0
BBX 10 18 3 0
BITMAP
FFC0
8000
8000
8000
8000
8000
8000
8000
8000
8000
8000
8000
8000
8000
8000
8000
8000
8000
ENDCHAR
STARTCHAR 0414
ENCODING 1044
SWIDTH 644 0
DWIDTH 16 0
BBX 15 23 0 -5
BITMAP
03F8
0208
0208
0208
0608
0608
0408
0408
0408
0C08
0808
0808
1808
1008
1008
3008
2008
FFFE
8002
8002
8002
8002
8002
ENDCHAR
STARTCHAR 0415
ENCODING 1045
SWIDTH 563 0
DWIDTH 14 0
BBX 9 18 3 0
BITMAP
FF80
8000
8000
8000
8000
8000
8000
8000
FF80
8000
8000
8000
8000
8000
8000
8000
8000
FF80
ENDCHAR
STARTCHAR 0416
ENCODING 1046
SWIDTH 805 0
DWIDTH 20 0
BBX 20 18 0 0
BITMAP
406020
206040
106080
186180
0C6300
066600
026C00
016800
00F000
01F800
036C00
026400
046200
086100
186180
3060C0
606060
C06030
ENDCHAR
STARTCHAR 0417
ENCODING 1047
SWIDTH 563 0
DWIDTH 14 0
BBX 12 18 1 0
BITMAP
1F80
70C0
0060
0020
0020
0020
0060
00C0
3F00
01C0
0060
0020
0030
0030
0020
0060
C1C0
7F00
ENDCHAR
STARTCHAR 0418
ENCODING 1048
SWIDTH 724 0
DWIDTH 18 0
BBX 12 18 3 0
BITMAP
8010
8030
8030
8050
80D0
8090
8110
8310
8210
8410
8C10
8810
9010
B010
A010
C010
C010
8010
ENDCHAR
STARTCHAR 0419
ENCODING 1049
SWIDTH 724 0
DWIDTH 18 0
BBX 12 22 3 0
BITMAP
2040
1080
0F00
0000
8010
8030
8030
8050
80D0
8090
8110
8310
8210
8410
8C10
8810
9010
B010
A010
C010
C010
8010
ENDCHAR
STARTCHAR 041A
ENCODING 1050
SWIDTH 563 0
DWIDTH 14 0
BBX 12 18 2 0
BITMAP
C020
C040
C080
C100
C200
C400
C800
D800
F000
F000
D800
CC00
C600
C300
C180
C0C0
C060
C030
ENDCHAR
STARTCHAR 041B
ENCODING 1051
SWIDTH 684 0
DWIDTH 17 0
BBX 14 18 0 0
BITMAP
03FC
0604
0604
0404
0404
0404
0404
0404
0404
0C04
0804
0804
0804
0804
1804
1004
3004
E004
ENDCHAR
STARTCHAR 041C
ENCODING 1052
SWIDTH 885 0
DWIDTH 22 0
BBX 16 18 3 0
BITMAP
C003
C003
E003
A005
A005
B00D
9009
9819
8811
8811
8421
8421
8661
8241
8241
8181
8181
8181
ENDCHAR
STARTCHAR 041D
ENCODING 1053
SWIDTH 724 0
DWIDTH 18 0
BBX 12 18 3 0
BITMAP
8010
8010
8010
8010
8010
8010
8010
8010
FFF0
8010
8010
8010
8010
8010
8010
8010
8010
8010
ENDCHAR
STARTCHAR 041E
ENCODING 1054
SWIDTH 765 0
DWIDTH 19 0
BBX 15 18 2 0
BITMAP
07C0
1830
2008
4004
C006
8002
8002
8002
8002
8002
8002
8002
8002
C006
4004
2008
1830
07C0
ENDCHAR
STARTCHAR 041F
ENCODING 1055
SWIDTH 724 0
DWIDTH 18 0
BBX 12 18 3 0
BITMAP
FFF0
8010
8010
8010
8010
8010
8010
8010
8010
8010
8010
8010
8010
8010
8010
8010
8010
8010
ENDCHAR
STARTCHAR 0420
ENCODING 1056
SWIDTH 604 0
DWIDTH 15 0
BBX 11 18 3 0
BITMAP
FE00
8180
80C0
8040
8060
8060
8040
80C0
8180
FE00
8000
8000
8000
8000
8000
8000
8000
8000
ENDCHAR
STARTCHAR 0421
ENCODING 1057
SWIDTH 644 0
DWIDTH 16 0
BBX 13 18 2 0
BITMAP
07F0
1C18
3000
6000
4000
C000
8000
8000
8000
8000
8000
8000
C000
C000
6000
3000
1C10
07F0
ENDCHAR
STARTCHAR 0422
ENCODING 1058
SWIDTH 523 0
DWIDTH 13 0
BBX 13 18 0 0
BITMAP
FFF8
0200
0200
0200
0200
0200
0200
0200
0200
0200
0200
0200
0200
0200
0200
0200
0200
0200
ENDCHAR
STARTCHAR 0423
ENCODING 1059
SWIDTH 604 0
DWIDTH 15 0
BBX 15 18 0 0
BITMAP
C006
4004
600C
2008
1008
1810
0810
0C20
0420
0660
0240
03C0
0180
0180
0100
0300
4600
7C00
ENDCHAR
STARTCHAR 0424
ENCODING 1060
SWIDTH 765 0
DWIDTH 19 0
BBX 17 18 1 0
BITMAP
008000
008000
0FF800
188E00
208300
408100
408100
C08180
C08180
C08180
408100
408100
208200
188C00
0FF800
008000
008000
008000
ENDCHAR
STARTCHAR 0425
ENCODING 1061
SWIDTH 523 0
DWIDTH 13 0
BBX 13 18 0 0
BITMAP
4010
6030
2020
1040
18C0
0880
0D80
0500
0200
0700
0500
0880
18C0
1040
3060
2020
4010
C018
ENDCHAR
STARTCHAR 0426
ENCODING 1062
SWIDTH 724 0
DWIDTH 18 0
BBX 14 23 3 -5
BITMAP
8010
8010
8010
8010
8010
8010
8010
8010
8010
8010
8010
8010
8010
8010
8010
8010
8010
FFFC
0004
0004
0004
0004
0004
ENDCHAR
STARTCHAR 0427
ENCODING 1063
SWIDTH 684 0
DWIDTH 17 0
BBX 12 18 2 0
BITMAP
C010
C010
C010
C010
C010
C010
C010
C010
4010
60F0
1F90
0010
0010
0010
0010
0010
0010
0010
ENDCHAR
STARTCHAR 0428
ENCODING 1064
SWIDTH 1006 0
DWIDTH 25 0
BBX 19 18 3 0
BITMAP
804020
804020
804020
804020
804020
804020
804020
804020
804020
804020
804020
804020
804020
804020
804020
804020
804020
FFFFE0
ENDCHAR
STARTCHAR 0429
ENCODING 1065
SWIDTH 1006 0
DWIDTH 25 0
BBX 21 23 3 -5
BITMAP
804020
804020
804020
804020
804020
804020
804020
804020
804020
804020
804020
804020
804020
804020
804020
804020
804020
FFFFF8
000008
000008
000008
000008
000008
ENDCHAR
STARTCHAR 042A
ENCODING 1066
SWIDTH 644 0
DWIDTH 16 0
BBX 15 18 0 0
BITMAP
F800
0800
0800
0800
0800
0800
0800
0800
0FF0
081C
0804
0806
0806
0806
0804
0804
0818
0FF0
ENDCHAR
STARTCHAR 042B
ENCODING 1067
SWIDTH 805 0
DWIDTH 20 0
BBX 16 18 2 0
BITMAP
C003
C003
C003
C003
C003
C003
C003
C003
FF03
C0C3
C063
C023
C023
C023
C023
C063
C0C3
FF03
ENDCHAR
STARTCHAR 042C
ENCODING 1068
SWIDTH 604 0
DWIDTH 15 0
BBX 11 18 3 0
BITMAP
8000
8000
8000
8000
8000
8000
8000
8000
FF00
8180
8040
8040
8060
8060
8040
8040
8180
FF00
ENDCHAR
STARTCHAR 042D
ENCODING 1069
SWIDTH 604 0
DWIDTH 15 0
BBX 12 18 1 0
BITMAP
7E00
C380
0040
0020
0030
0010
0010
0010
3FF0
0010
0010
0010
0030
0030
0060
00C0
8380
FE00
ENDCHAR
STARTCHAR 042E
ENCODING 1070
SWIDTH 1046 0
DWIDTH 26 0
BBX 21 18 3 0
BITMAP
801F80
8070C0
80C020
818010
810018
830008
830008
820008
FE0008
820008
820008
830008
830008
810018
818010
80C020
8070C0
801F80
ENDCHAR
STARTCHAR 042F
ENCODING 1071
SWIDTH 604 0
DWIDTH 15 0
BBX 11 18 1 0
BITMAP
0FE0
3020
6020
4020
4020
4020
4020
6020
3020
1FE0
0C20
1820
1020
3020
2020
4020
C020
8020
ENDCHAR
STARTCHAR 0430
ENCODING 1072
SWIDTH 523 0
DWIDTH 13 0
BBX 10 13 1 0
BITMAP
1F00
2180
00C0
0040
0040
0040
1FC0
7040
C040
8040
C0C0
6140
3E40
ENDCHAR
STARTCHAR 0431
ENCODING 1073
SWIDTH 563 0
DWIDTH 14 0
BBX 12 19 1 0
BITMAP
0060
0F80
1800
3000
2000
4000
4000
4780
58C0
E020
C020
C030
4030
4030
4020
4020
2060
30C0
0F80
ENDCHAR
STARTCHAR 0432
ENCODING 1074
SWIDTH 563 0
DWIDTH 14 0
BBX 11 13 2 0
BITMAP
FF80
80C0
8040
8040
8040
80C0
FF00
80C0
8060
8060
8040
80C0
FF80
ENDCHAR
STARTCHAR 0433
ENCODING 1075
SWIDTH 442 0
DWIDTH 11 0
BBX 8 13 2 0
BITMAP
FF
C0
C0
C0
C0
C0
C0
C0
C0
C0
C0
C0
C0
ENDCHAR
STARTCHAR 0434
ENCODING 1076
SWIDTH 563 0
DWIDTH 14 0
BBX 12 18 1 -5
BITMAP
0FE0
0860
0860
0860
0860
1060
1060
1060
3060
2060
6060
4060
FFF0
8010
8010
8010
8010
8010
ENDCHAR
STARTCHAR 0435
ENCODING 1077
SWIDTH 563 0
DWIDTH 14 0
BBX 12 13 1 0
BITMAP
0F80
30C0
2060
4020
4020
4030
FFF0
4000
4000
4000
6000
3020
0FC0
ENDCHAR
STARTCHAR 0436
ENCODING 1078
SWIDTH 684 0
DWIDTH 17 0
BBX 15 13 1 0
BITMAP
8102
4104
2108
1110
0920
0540
07C0
0D60
1930
3118
610C
4104
8102
ENDCHAR
STARTCHAR 0437
ENCODING 1079
SWIDTH 442 0
DWIDTH 11 0
BBX 9 13 1 0
BITMAP
7E00
C300
0100
0100
0100
0300
3C00
0300
0180
0180
0180
8300
7E00
ENDCHAR
STARTCHAR 0438
ENCODING 1080
SWIDTH 604 0
DWIDTH 15 0
BBX 11 13 2 0
BITMAP
8060
80A0
81A0
8120
8220
8620
8420
8820
9820
9020
A020
A020
C020
ENDCHAR
STARTCHAR 0439
ENCODING 1081
SWIDTH 604 0
DWIDTH 15 0
BBX 11 18 2 0
BITMAP
4080
2100
1E00
0000
0000
8060
80A0
81A0
8120
8220
8620
8420
8820
9820
9020
A020
A020
C020
ENDCHAR
STARTCHAR 043A
ENCODING 1082
SWIDTH 442 0
DWIDTH 11 0
BBX 8 13 2 0
BITMAP
81
82
84
88
98
B0
E0
B0
98
8C
86
83
81
ENDCHAR
STARTCHAR 043B
ENCODING 1083
SWIDTH 563 0
DWIDTH 14 0
BBX 12 13 0 0
BITMAP
0FF0
0C10
0C10
0810
0810
0810
0810
0810
1810
1010
1010
3010
E010
ENDCHAR
STARTCHAR 043C
ENCODING 1084
SWIDTH 684 0
DWIDTH 17 0
BBX 13 13 2 0
BITMAP
C018
C038
A028
A028
B048
9048
90C8
8888
8888
8508
8508
8508
8208
ENDCHAR
STARTCHAR 043D
ENCODING 1085
SWIDTH 604 0
DWIDTH 15 0
BBX 11 13 2 0
BITMAP
8020
8020
8020
8020
8020
8020
FFE0
8020
8020
8020
8020
8020
8020
ENDCHAR
STARTCHAR 043E
ENCODING 1086
SWIDTH 604 0
DWIDTH 15 0
BBX 13 13 1 0
BITMAP
0F80
3060
6020
4010
4010
4010
C018
4010
4010
4010
2030
3060
0F80
ENDCHAR
STARTCHAR 043F
ENCODING 1087
SWIDTH 604 0
DWIDTH 15 0
BBX 11 13 2 0
BITMAP
FFE0
8020
8020
8020
8020
8020
8020
8020
8020
8020
8020
8020
8020
ENDCHAR
STARTCHAR 0440
ENCODING 1088
SWIDTH 604 0
DWIDTH 15 0
BBX 12 19 2 -6
BITMAP
9F80
B0C0
C060
C020
C020
8020
8030
8020
C020
C020
C060
B0C0
9F00
8000
8000
8000
8000
8000
8000
ENDCHAR
STARTCHAR 0441
ENCODING 1089
SWIDTH 483 0
DWIDTH 12 0
BBX 10 13 1 0
BITMAP
0FC0
3040
2000
4000
4000
C000
C000
4000
4000
4000
6000
3040
0FC0
ENDCHAR
STARTCHAR 0442
ENCODING 1090
SWIDTH 442 0
DWIDTH 11 0
BBX 10 13 1 0
BITMAP
FFC0
0800
0800
0800
0800
0800
0800
0800
0800
0800
0800
0800
0800
ENDCHAR
STARTCHAR 0443
ENCODING 1091
SWIDTH 442 0
DWIDTH 11 0
BBX 11 19 0 -6
BITMAP
8020
4040
4040
60C0
2080
2080
3180
1100
1100
0A00
0A00
0A00
0400
0400
0C00
0800
1800
1000
E000
ENDCHAR
STARTCHAR 0444
ENCODING 1092
SWIDTH 684 0
DWIDTH 17 0
BBX 15 25 1 -6
BITMAP
0100
0100
0100
0100
0100
0100
0FC0
1930
2108
4104
4104
C104
C106
4104
4104
410C
2108
1930
0FE0
0100
0100
0100
0100
0100
0100
ENDCHAR
STARTCHAR 0445
ENCODING 1093
SWIDTH 483 0
DWIDTH 12 0
BBX 10 13 1 0
BITMAP
C0C0
4080
2100
3300
1200
0C00
0C00
1C00
1200
2100
6180
4080
8040
ENDCHAR
STARTCHAR 0446
ENCODING 1094
SWIDTH 604 0
DWIDTH 15 0
BBX 12 18 2 -5
BITMAP
8060
8060
8060
8060
8060
8060
8060
8060
8060
8060
8060
8060
FFF0
0010
0010
0010
0010
0010
ENDCHAR
STARTCHAR 0447
ENCODING 1095
SWIDTH 604 0
DWIDTH 15 0
BBX 11 13 2 0
BITMAP
8060
8060
8060
8060
8060
8060
C060
61E0
3E60
0060
0060
0060
0060
ENDCHAR
STARTCHAR 0448
ENCODING 1096
SWIDTH 845 0
DWIDTH 21 0
BBX 17 13 2 0
BITMAP
808080
808080
808080
808080
808080
808080
808080
808080
808080
808080
808080
808080
FFFF80
ENDCHAR
STARTCHAR 0449
ENCODING 1097
SWIDTH 845 0
DWIDTH 21 0
BBX 18 18 2 -5
BITMAP
808180
808180
808180
808180
808180
808180
808180
808180
808180
808180
808180
808180
FFFFC0
000040
000040
000040
000040
000040
ENDCHAR
STARTCHAR 044A
ENCODING 1098
SWIDTH 644 0
DWIDTH 16 0
BBX 14 13 1 0
BITMAP
F800
1800
1800
1800
1800
1800
1FF0
1818
1808
180C
1808
1818
1FE0
ENDCHAR
STARTCHAR 044B
ENCODING 1099
SWIDTH 724 0
DWIDTH 18 0
BBX 14 13 2 0
BITMAP
8004
8004
8004
8004
8004
8004
FF04
80C4
8044
8044
8044
81C4
FF04
ENDCHAR
STARTCHAR 044C
ENCODING 1100
SWIDTH 563 0
DWIDTH 14 0
BBX 11 13 2 0
BITMAP
8000
8000
8000
8000
8000
8000
FF80
80C0
8040
8060
8040
80C0
FF00
ENDCHAR
STARTCHAR 044D
ENCODING 1101
SWIDTH 483 0
DWIDTH 12 0
BBX 10 13 1 0
BITMAP
7C00
8300
0180
0080
0080
00C0
7FC0
00C0
0080
0080
0100
8700
FC00
ENDCHAR
STARTCHAR 044E
ENCODING 1102
SWIDTH 805 0
DWIDTH 20 0
BBX 17 13 2 0
BITMAP
807C00
818600
810300
830100
820100
820180
FE0180
820180
820100
820100
810300
818600
807C00
ENDCHAR
STARTCHAR 044F
ENCODING 1103
SWIDTH 523 0
DWIDTH 13 0
BBX 10 13 1 0
BITMAP
3FC0
6040
C040
8040
8040
4040
3FC0
1040
3040
2040
6040
C040
8040
ENDCHAR
STARTCHAR 0450
ENCODING 1104
SWIDTH 563 0
DWIDTH 14 0
BBX 12 19 1 0
BITMAP
1800
0800
0400
0200
0000
0000
0F80
30C0
2060
4020
4020
4030
FFF0
4000
4000
4000
6000
3020
0FC0
ENDCHAR
STARTCHAR 0451
ENCODING 1105
SWIDTH 563 0
DWIDTH 14 0
BBX 12 18 1 0
BITMAP
1080
1080
0000
0000
0000
0F80
30C0
2060
4020
4020
4030
FFF0
4000
4000
4000
6000
3020
0FC0
ENDCHAR
STARTCHAR 0452
ENCODING 1106
SWIDTH 604 0
DWIDTH 15 0
BBX 13 25 0 -6
BITMAP
2000
2000
2000
FF80
2000
2000
23E0
2C30
3018
3008
3008
3008
2008
2008
2008
2008
2008
2008
2008
0008
0008
0008
0008
0018
00F0
ENDCHAR
STARTCHAR 0453
ENCODING 1107
SWIDTH 442 0
DWIDTH 11 0
BBX 8 19 2 0
BITMAP
06
0C
08
10
00
00
FF
C0
C0
C0
C0
C0
C0
C0
C0
C0
C0
C0
C0
ENDCHAR
STARTCHAR 0454
ENCODING 1108
SWIDTH 483 0
DWIDTH 12 0
BBX 10 13 1 0
BITMAP
0FC0
3840
2000
4000
4000
C000
FF80
C000
4000
4000
6000
3040
0FC0
ENDCHAR
STARTCHAR 0455
ENCODING 1109
SWIDTH 483 0
DWIDTH 12 0
BBX 10 13 1 0
BITMAP
3F80
6080
C000
C000
4000
3000
0E00
0180
00C0
0040
00C0
C180
7F00
ENDCHAR
STARTCHAR 0456
ENCODING 1110
SWIDTH 241 0
DWIDTH 6 0
BBX 2 18 2 0
BITMAP
C0
C0
00
00
00
C0
C0
C0
C0
C0
C0
C0
C0
C0
C0
C0
C0
C0
ENDCHAR
STARTCHAR 0457
ENCODING 1111
SWIDTH 241 0
DWIDTH 6 0
BBX 6 18 0 0
BITMAP
84
84
00
00
00
30
30
30
30
30
30
30
30
30
30
30
30
30
ENDCHAR
STARTCHAR 0458
ENCODING 1112
SWIDTH 241 0
DWIDTH 6 0
BBX 5 24 -1 -6
BITMAP
18
18
00
00
00
18
18
18
18
18
18
18
18
18
18
18
18
18
18
18
18
18
10
E0
ENDCHAR
STARTCHAR 0459
ENCODING 1113
SWIDTH 805 0
DWIDTH 20 0
BBX 19 13 0 0
BITMAP
0FC000
084000
084000
084000
084000
084000
087F80
1840C0
184040
104060
104040
2040C0
E07F80
ENDCHAR
STARTCHAR 045A
ENCODING 1114
SWIDTH 845 0
DWIDTH 21 0
BBX 18 13 2 0
BITMAP
80C000
80C000
80C000
80C000
80C000
80C000
FFFF00
80C180
80C080
80C0C0
80C080
80C180
80FF00
ENDCHAR
STARTCHAR 045B
ENCODING 1115
SWIDTH 604 0
DWIDTH 15 0
BBX 13 19 0 0
BITMAP
2000
2000
2000
FF80
2000
2000
23E0
2C30
3018
3008
3008
3008
2008
2008
2008
2008
2008
2008
2008
ENDCHAR
STARTCHAR 045C
ENCODING 1116
SWIDTH 442 0
DWIDTH 11 0
BBX 8 19 2 0
BITMAP
06
0C
08
10
00
00
81
82
84
88
98
B0
E0
B0
98
8C
86
83
81
ENDCHAR
STARTCHAR 045D
ENCODING 1117
SWIDTH 604 0
DWIDTH 15 0
BBX 11 19 2 0
BITMAP
3000
1000
0800
0400
0000
0000
8060
80A0
81A0
8120
8220
8620
8420
8820
9820
9020
A020
A020
C020
ENDCHAR
STARTCHAR 045E
ENCODING 1118
SWIDTH 442 0
DWIDTH 11 0
BBX 11 24 0 -6
BITMAP
2040
1080
0F00
0000
0000
8020
4040
4040
60C0
2080
2080
3180
1100
1100
0A00
0A00
0A00
0400
0400
0C00
0800
1800
1000
E000
ENDCHAR
STARTCHAR 045F
ENCODING 1119
SWIDTH 604 0
DWIDTH 15 0
BBX 11 18 2 -5
BITMAP
8020
8020
8020
8020
8020
8020
8020
8020
8020
8020
8020
8020
FFE0
0400
0400
0400
0400
0400
ENDCHAR
STARTCHAR 0460
ENCODING 1120
SWIDTH 966 0
DWIDTH 24 0
BBX 20 18 2 0
BITMAP
1F0780
3108C0
600060
C00030
C00010
800010
800010
800010
800010
800010
806010
806010
806010
C06030
406020
606060
30F0C0
1F9F80
ENDCHAR
STARTCHAR 0461
ENCODING 1121
SWIDTH 765 0
DWIDTH 19 0
BBX 18 13 0 0
BITMAP
810040
418040
408040
608040
20C0C0
204080
30C080
10A180
112100
093300
0A1200
0A1400
041800
ENDCHAR
STARTCHAR 0462
ENCODING 1122
SWIDTH 684 0
DWIDTH 17 0
BBX 16 19 0 0
BITMAP
0400
0400
0400
0400
FFF0
0400
0400
0400
0400
07F8
040C
0402
0402
0403
0403
0402
0406
040C
07F8
ENDCHAR
STARTCHAR 0463
ENCODING 1123
SWIDTH 604 0
DWIDTH 15 0
BBX 14 16 0 0
BITMAP
1000
1000
1000
FF80
1000
1000
1000
1000
1000
1FF0
1018
1008
100C
1008
1018
1FE0
ENDCHAR
STARTCHAR 0464
ENCODING 1124
SWIDTH 926 0
DWIDTH 23 0
BBX 19 18 3 0
BITMAP
801FC0
807060
80C000
818000
810000
830000
830000
820000
FFFF80
820000
820000
820000
830000
810000
818000
80C000
807020
801FC0
ENDCHAR
STARTCHAR 0465
ENCODING 1125
SWIDTH 724 0
DWIDTH 18 0
BBX 15 13 2 0
BITMAP
807E
80C2
8100
8300
8200
8200
FFFC
8200
8200
8200
8300
8182
807E
ENDCHAR
STARTCHAR 0466
ENCODING 1126
SWIDTH 644 0
DWIDTH 16 0
BBX 16 18 0 0
BITMAP
0080
0180
0180
0340
0240
0660
0420
0430
0FF0
0990
1188
1188
318C
2184
2186
4182
4182
C183
ENDCHAR
STARTCHAR 0467
ENCODING 1127
SWIDTH 483 0
DWIDTH 12 0
BBX 12 13 0 0
BITMAP
0600
0600
0F00
0900
0900
1080
1F80
36C0
2640
2640
4620
4620
C630
ENDCHAR
STARTCHAR 0468
ENCODING 1128
SWIDTH 885 0
DWIDTH 22 0
BBX 19 18 3 0
BITMAP
801000
803000
803000
806800
804800
80CC00
808400
808600
FFFE00
813200
833300
823100
863180
843080
8C30C0
883040
883040
983060
ENDCHAR
STARTCHAR 0469
ENCODING 1129
SWIDTH 684 0
DWIDTH 17 0
BBX 15 13 2 0
BITMAP
80C0
80C0
8140
8120
8320
8230
FFF0
8498
8488
8C88
8884
9884
9086
ENDCHAR
STARTCHAR 046A
ENCODING 1130
SWIDTH 684 0
DWIDTH 17 0
BBX 17 18 0 0
BITMAP
3FFE00
300600
100400
080800
041800
063000
022000
014000
07F000
188C00
108400
308600
208200
208200
608300
408100
408100
C08180
ENDCHAR
STARTCHAR 046B
ENCODING 1131
SWIDTH 604 0
DWIDTH 15 0
BBX 15 13 0 0
BITMAP
3FF8
3018
1830
0820
0440
0280
0FE0
1910
2108
2108
6104
4104
C106
ENDCHAR
STARTCHAR 046C
ENCODING 1132
SWIDTH 966 0
DWIDTH 24 0
BBX 21 18 3 0
BITMAP
87FFE0
820060
8300C0
818080
808100
804300
802600
803400
FFFF00
818980
830840
820860
860820
840820
840830
8C0810
880810
880818
ENDCHAR
STARTCHAR 046D
ENCODING 1133
SWIDTH 805 0
DWIDTH 20 0
BBX 18 13 2 0
BITMAP
87FF00
860300
820600
810400
808800
805000
FFFC00
822200
842100
8C2100
882080
882080
9020C0
ENDCHAR
STARTCHAR 046E
ENCODING 1134
SWIDTH 563 0
DWIDTH 14 0
BBX 12 26 1 -5
BITMAP
20C0
1B00
0E00
1F80
60C0
0060
0020
0020
0020
0060
00C0
3F00
01C0
0060
0020
0030
0030
0020
0060
01C0
3F00
C000
8000
8000
C000
7FE0
ENDCHAR
STARTCHAR 046F
ENCODING 1135
SWIDTH 442 0
DWIDTH 11 0
BBX 10 20 0 -4
BITMAP
21C0
1300
0E00
3F00
6180
0080
0080
0080
0180
1E00
0180
00C0
00C0
00C0
0180
3F00
6000
C000
4000
7FC0
ENDCHAR
STARTCHAR 0470
ENCODING 1136
SWIDTH 765 0
DWIDTH 19 0
BBX 15 18 2 0
BITMAP
8102
8102
8102
8102
8102
8102
8102
8102
8106
C104
7118
1FF0
0100
0100
0100
0100
0100
0100
ENDCHAR
STARTCHAR 0471
ENCODING 1137
SWIDTH 724 0
DWIDTH 18 0
BBX 14 25 2 -6
BITMAP
0300
0300
0300
0300
0300
0300
8304
8304
8304
8304
8304
8304
8304
8304
8304
430C
6318
3B70
0FC0
0300
0300
0300
0300
0300
0300
ENDCHAR
STARTCHAR 0472
ENCODING 1138
SWIDTH 765 0
DWIDTH 19 0
BBX 15 18 2 0
BITMAP
07C0
1C70
2008
4004
C006
8002
8002
8002
FFFE
8002
8002
8002
8002
C006
4004
2008
1C70
07C0
ENDCHAR
STARTCHAR 0473
ENCODING 1139
SWIDTH 604 0
DWIDTH 15 0
BBX 13 13 1 0
BITMAP
0F80
30E0
6020
4010
4010
4010
FFF8
4010
4010
4010
2030
3060
0F80
ENDCHAR
STARTCHAR 0474
ENCODING 1140
SWIDTH 604 0
DWIDTH 15 0
BBX 16 18 0 0
BITMAP
C007
400C
4008
6018
2010
2010
3030
1020
1820
0860
0840
0C40
04C0
0480
0680
0380
0300
0100
ENDCHAR
STARTCHAR 0475
ENCODING 1141
SWIDTH 483 0
DWIDTH 12 0
BBX 13 13 0 0
BITMAP
8038
4020
4040
6040
2040
2080
1080
1180
1900
0900
0B00
0600
0600
ENDCHAR
STARTCHAR 0476
ENCODING 1142
SWIDTH 604 0
DWIDTH 15 0
BBX 16 23 0 0
BITMAP
1980
0880
0CC0
0440
0000
C007
400C
4008
6018
2010
2010
3030
1020
1820
0860
0840
0C40
04C0
0480
0680
0380
0300
0100
ENDCHAR
STARTCHAR 0477
ENCODING 1143
SWIDTH 483 0
DWIDTH 12 0
BBX 13 19 0 0
BITMAP
6600
2200
3300
1100
0000
0000
8038
4020
4040
6040
2040
2080
1080
1180
1900
0900
0B00
0600
0600
ENDCHAR
STARTCHAR 0478
ENCODING 1144
SWIDTH 1167 0
DWIDTH 29 0
BBX 27 24 2 -6
BITMAP
0FC00000
38600000
60100000
40180000
C0080000
800C8020
80048040
8004C040
800440C0
80044080
80042080
800C2100
800C2100
C0081300
40181200
60101A00
38600C00
0FC00C00
00000C00
00000800
00000800
00001000
00003000
0001E000
ENDCHAR
STARTCHAR 0479
ENCODING 1145
SWIDTH 1046 0
DWIDTH 26 0
BBX 24 19 1 -6
BITMAP
0F8401
306202
602202
401306
401104
401104
C0198C
401088
401088
401050
203050
306050
0F8020
000020
000060
000040
0000C0
000080
000700
ENDCHAR
STARTCHAR 047A
ENCODING 1146
SWIDTH 805 0
DWIDTH 20 0
BBX 16 20 2 -1
BITMAP
0180
07E0
1998
300C
6006
C003
8001
8001
8001
8001
8001
8001
8001
8001
C003
4002
2004
1998
07E0
0180
ENDCHAR
STARTCHAR 047B
ENCODING 1147
SWIDTH 604 0
DWIDTH 15 0
BBX 13 15 1 -1
BITMAP
0200
0F80
3260
6030
4010
4010
C010
C018
4018
4010
4010
6030
3260
0F80
0200
ENDCHAR
STARTCHAR 047C
ENCODING 1148
SWIDTH 966 0
DWIDTH 24 0
BBX 20 25 2 0
BITMAP
01F000
031E00
006000
002000
002000
004000
000000
1F0780
3108C0
600060
C00030
C00030
800010
800010
800010
800010
800010
800010
800010
800010
C00030
400020
600060
30F0C0
1F9F80
ENDCHAR
STARTCHAR 047D
ENCODING 1149
SWIDTH 765 0
DWIDTH 19 0
BBX 17 21 1 0
BITMAP
038000
046000
041800
00C000
004000
004000
018000
000000
1E3C00
302200
600300
400100
400100
C00180
C00180
C00180
400100
400100
600300
308600
1F7C00
ENDCHAR
STARTCHAR 047E
ENCODING 1150
SWIDTH 966 0
DWIDTH 24 0
BBX 20 21 2 0
BITMAP
07FE00
024400
000000
1F0F80
3108C0
600060
C00030
C00030
800010
800010
800010
800010
800010
806010
806010
806010
C06030
406020
606060
30F0C0
1F9F80
ENDCHAR
STARTCHAR 047F
ENCODING 1151
SWIDTH 765 0
DWIDTH 19 0
BBX 18 17 0 0
BITMAP
07FC00
044400
000000
000000
810040
418040
408040
608040
20C0C0
204080
30C080
10A180
112100
093300
0A1200
0A1400
041800
ENDCHAR
STARTCHAR 0480
ENCODING 1152
SWIDTH 644 0
DWIDTH 16 0
BBX 13 24 2 -6
BITMAP
07F0
1C18
3000
6000
4000
C000
8000
8000
8000
8000
8000
8000
C000
C000
6000
3000
1C00
07C0
0040
0040
0040
0040
0040
0040
ENDCHAR
STARTCHAR 0481
ENCODING 1153
SWIDTH 483 0
DWIDTH 12 0
BBX 10 19 1 -6
BITMAP
0FC0
3840
2000
4000
4000
C000
C000
4000
4000
4000
6000
3800
0F80
0180
0180
0180
0180
0180
0180
ENDCHAR
STARTCHAR 0482
ENCODING 1154
SWIDTH 604 0
DWIDTH 15 0
BBX 11 16 2 0
BITMAP
0040
00C0
1080
0D80
0700
0380
0260
0420
8C00
C800
3800
1C00
3600
2100
6000
4000
ENDCHAR
STARTCHAR 0483
ENCODING 1155
SWIDTH 563 0
DWIDTH 14 0
BBX 8 3 3 14
BITMAP
03
FF
C0
ENDCHAR
STARTCHAR 0484
ENCODING 1156
SWIDTH 563 0
DWIDTH 14 0
BBX 9 3 3 15
BITMAP
0F00
3100
C180
ENDCHAR
STARTCHAR 0485
ENCODING 1157
SWIDTH 563 0
DWIDTH 14 0
BBX 2 4 6 15
BITMAP
C0
80
80
40
ENDCHAR
STARTCHAR 0486
ENCODING 1158
SWIDTH 563 0
DWIDTH 14 0
BBX 2 4 6 15
BITMAP
C0
40
40
80
ENDCHAR
STARTCHAR 0488
ENCODING 1160
SWIDTH 1006 0
DWIDTH 25 0
BBX 23 21 1 -4
BITMAP
007800
004400
000000
3C0070
220088
000000
000000
000000
000000
F0001E
980022
000000
000000
000000
000000
000000
3C0070
220088
000000
003800
004400
ENDCHAR
STARTCHAR 0489
ENCODING 1161
SWIDTH 966 0
DWIDTH 24 0
BBX 23 23 1 -5
BITMAP
001000
001000
003000
102000
180030
0800E0
0C0080
040000
000000
000000
800030
F0003C
300006
000000
000000
000000
000080
0400C0
1C0040
301060
003020
002000
002000
ENDCHAR
STARTCHAR 048A
ENCODING 1162
SWIDTH 724 0
DWIDTH 18 0
BBX 14 27 3 -5
BITMAP
2040
1080
0F00
0000
8010
8030
8030
8050
80D0
8090
8110
8310
8210
8410
8C10
8810
9010
B010
A010
C010
C010
801C
000C
0008
0008
0018
0010
ENDCHAR
STARTCHAR 048B
ENCODING 1163
SWIDTH 604 0
DWIDTH 15 0
BBX 12 23 2 -5
BITMAP
2080
2080
1F00
0000
0000
8060
80A0
81A0
8120
8220
8620
8420
8820
9820
9020
A020
A020
C030
0010
0030
0020
0020
0060
ENDCHAR
STARTCHAR 048C
ENCODING 1164
SWIDTH 604 0
DWIDTH 15 0
BBX 13 18 1 0
BITMAP
2000
2000
2000
FF00
2000
2000
2000
2000
3FC0
2060
2010
2010
2018
2018
2010
2010
2060
3FC0
ENDCHAR
STARTCHAR 048D
ENCODING 1165
SWIDTH 563 0
DWIDTH 14 0
BBX 13 19 0 0
BITMAP
2000
2000
2000
FF00
2000
2000
2000
2000
2000
2000
2000
2000
3FE0
2030
2010
2018
2010
2030
3FC0
ENDCHAR
STARTCHAR 048E
ENCODING 1166
SWIDTH 604 0
DWIDTH 15 0
BBX 11 18 3 0
BITMAP
FE00
8180
80C0
8040
8060
8060
8440
86C0
8380
FF00
8180
8080
8000
8000
8000
8000
8000
8000
ENDCHAR
STARTCHAR 048F
ENCODING 1167
SWIDTH 604 0
DWIDTH 15 0
BBX 12 19 2 -6
BITMAP
9F80
B0C0
C060
C020
C020
8020
8030
8020
C020
C320
C160
B0C0
9F40
8060
8000
8000
8000
8000
8000
ENDCHAR
STARTCHAR 0490
ENCODING 1168
SWIDTH 523 0
DWIDTH 13 0
BBX 10 22 3 0
BITMAP
0040
0040
0040
0040
FFC0
8000
8000
8000
8000
8000
8000
8000
8000
8000
8000
8000
8000
8000
8000
8000
8000
8000
ENDCHAR
STARTCHAR 0491
ENCODING 1169
SWIDTH 442 0
DWIDTH 11 0
BBX 8 17 2 0
BITMAP
01
01
01
01
FF
C0
C0
C0
C0
C0
C0
C0
C0
C0
C0
C0
C0
ENDCHAR
STARTCHAR 0492
ENCODING 1170
SWIDTH 523 0
DWIDTH 13 0
BBX 12 18 1 0
BITMAP
3FF0
2000
2000
2000
2000
2000
2000
2000
FF00
2000
2000
2000
2000
2000
2000
2000
2000
2000
ENDCHAR
STARTCHAR 0493
ENCODING 1171
SWIDTH 442 0
DWIDTH 11 0
BBX 10 13 0 0
BITMAP
3FC0
3000
3000
3000
3000
3000
FF00
3000
3000
3000
3000
3000
3000
ENDCHAR
STARTCHAR 0494
ENCODING 1172
SWIDTH 644 0
DWIDTH 16 0
BBX 12 24 3 -6
BITMAP
FFC0
8000
8000
8000
8000
8000
8000
8000
FE00
8380
80C0
8060
8020
8020
8030
8030
8030
8030
0020
0020
0060
0040
2180
3F00
ENDCHAR
STARTCHAR 0495
ENCODING 1173
SWIDTH 523 0
DWIDTH 13 0
BBX 10 19 2 -6
BITMAP
FF00
8000
8000
8000
8000
FE00
C300
8180
80C0
8040
8040
8040
8040
0040
0040
00C0
0080
0180
1E00
ENDCHAR
STARTCHAR 0496
ENCODING 1174
SWIDTH 805 0
DWIDTH 20 0
BBX 20 23 0 -5
BITMAP
404060
2040C0
304180
184100
0C4200
044600
024C00
015800
01F000
01D000
034800
064400
044600
084300
184180
304080
604040
C04070
000030
000030
000030
000030
000030
ENDCHAR
STARTCHAR 0497
ENCODING 1175
SWIDTH 684 0
DWIDTH 17 0
BBX 16 18 1 -5
BITMAP
8104
410C
2118
1130
0960
0D40
0780
0D40
1920
3110
6108
C10C
8107
0003
0003
0003
0003
0003
ENDCHAR
STARTCHAR 0498
ENCODING 1176
SWIDTH 563 0
DWIDTH 14 0
BBX 12 23 1 -5
BITMAP
1F80
70C0
0060
0020
0020
0020
0060
00C0
3F00
01C0
0060
0020
0030
0030
0020
0060
C1C0
7F00
0400
0200
0200
0200
0C00
ENDCHAR
STARTCHAR 0499
ENCODING 1177
SWIDTH 442 0
DWIDTH 11 0
BBX 9 18 1 -5
BITMAP
7E00
C300
0100
0100
0100
0300
3C00
0300
0180
0180
0180
8300
7E00
0800
0400
0400
0400
1800
ENDCHAR
STARTCHAR 049A
ENCODING 1178
SWIDTH 644 0
DWIDTH 16 0
BBX 13 23 3 -5
BITMAP
8020
8040
8080
8100
8200
8400
8800
9000
B800
CC00
8400
8200
8300
8180
8080
80C0
8060
8038
0018
0018
0018
0018
0018
ENDCHAR
STARTCHAR 049B
ENCODING 1179
SWIDTH 483 0
DWIDTH 12 0
BBX 10 18 2 -5
BITMAP
8100
8200
8600
8C00
9800
B000
E000
B000
9800
8C00
8600
8300
81C0
00C0
00C0
00C0
00C0
00C0
ENDCHAR
STARTCHAR 049C
ENCODING 1180
SWIDTH 604 0
DWIDTH 15 0
BBX 12 18 3 0
BITMAP
8020
8040
8080
9100
9200
9400
9800
9000
B800
DC00
9400
9200
9300
9180
8080
8040
8060
8030
ENDCHAR
STARTCHAR 049D
ENCODING 1181
SWIDTH 442 0
DWIDTH 11 0
BBX 8 13 2 0
BITMAP
81
92
94
98
90
B0
F0
B0
98
9C
96
93
81
ENDCHAR
STARTCHAR 049E
ENCODING 1182
SWIDTH 604 0
DWIDTH 15 0
BBX 14 18 1 0
BITMAP
2008
2010
FC20
2040
2080
2100
2200
2400
2E00
3300
2100
2080
20C0
2060
2020
2010
2018
200C
ENDCHAR
STARTCHAR 049F
ENCODING 1183
SWIDTH 483 0
DWIDTH 12 0
BBX 12 19 0 0
BITMAP
2000
2000
2000
FF00
2000
2000
2020
2040
2080
2100
2200
2400
2E00
3300
2180
2080
2040
2060
2030
ENDCHAR
STARTCHAR 04A0
ENCODING 1184
SWIDTH 644 0
DWIDTH 16 0
BBX 16 18 0 0
BITMAP
F802
0804
0808
0810
0830
0860
08C0
0980
0B80
0EC0
0860
0820
0810
0818
0808
0804
0806
0803
ENDCHAR
STARTCHAR 04A1
ENCODING 1185
SWIDTH 563 0
DWIDTH 14 0
BBX 12 13 1 0
BITMAP
F830
0860
08C0
0980
0900
0A00
0C00
0A00
0900
0880
0840
0820
0810
ENDCHAR
STARTCHAR 04A2
ENCODING 1186
SWIDTH 724 0
DWIDTH 18 0
BBX 14 23 3 -5
BITMAP
8010
8010
8010
8010
8010
8010
8010
8010
FFF0
8010
8010
8010
8010
8010
8010
8010
8010
801C
0004
0004
0004
0004
0004
ENDCHAR
STARTCHAR 04A3
ENCODING 1187
SWIDTH 604 0
DWIDTH 15 0
BBX 12 18 2 -5
BITMAP
8020
8020
8020
8020
8020
8020
FFE0
8020
8020
8020
8020
8020
8030
0010
0010
0010
0010
0010
ENDCHAR
STARTCHAR 04A4
ENCODING 1188
SWIDTH 805 0
DWIDTH 20 0
BBX 17 18 3 0
BITMAP
800F80
800800
800800
800800
800800
800800
800800
800800
FFF800
800800
800800
800800
800800
800800
800800
800800
800800
800800
ENDCHAR
STARTCHAR 04A5
ENCODING 1189
SWIDTH 684 0
DWIDTH 17 0
BBX 15 13 2 0
BITMAP
803E
8020
8020
8020
8020
8020
FFE0
8020
8020
8020
8020
8020
8020
ENDCHAR
STARTCHAR 04A6
ENCODING 1190
SWIDTH 1046 0
DWIDTH 26 0
BBX 22 24 3 -6
BITMAP
FFE000
802000
802000
802000
802000
802000
802000
802000
803F80
8020E0
802030
802018
802008
802008
80200C
80200C
80200C
80200C
000008
000008
000018
000010
000860
0007C0
ENDCHAR
STARTCHAR 04A7
ENCODING 1191
SWIDTH 845 0
DWIDTH 21 0
BBX 18 19 2 -6
BITMAP
FFC000
804000
804000
804000
804000
807E00
804300
804080
8040C0
804040
804040
804040
804040
000040
000040
0000C0
000080
001180
001F00
ENDCHAR
STARTCHAR 04A8
ENCODING 1192
SWIDTH 765 0
DWIDTH 19 0
BBX 16 19 2 -1
BITMAP
0FC0
3800
6000
4078
C0CC
8186
8102
8102
8102
8102
8102
8102
8102
C086
4084
2048
1870
07F8
000F
ENDCHAR
STARTCHAR 04A9
ENCODING 1193
SWIDTH 604 0
DWIDTH 15 0
BBX 13 14 1 -1
BITMAP
1F00
3000
6000
40E0
4110
C310
C210
C218
4210
4310
6130
38E0
0FE0
0038
ENDCHAR
STARTCHAR 04AA
ENCODING 1194
SWIDTH 644 0
DWIDTH 16 0
BBX 13 23 2 -5
BITMAP
07F0
1C18
3000
6000
4000
C000
8000
8000
8000
8000
8000
8000
C000
C000
6000
3000
1C10
07F0
0100
0080
0080
0080
0300
ENDCHAR
STARTCHAR 04AB
ENCODING 1195
SWIDTH 483 0
DWIDTH 12 0
BBX 10 18 1 -5
BITMAP
0FC0
3040
2000
4000
4000
C000
C000
4000
4000
4000
6000
3040
0FC0
0200
0100
0100
0100
0600
ENDCHAR
STARTCHAR 04AC
ENCODING 1196
SWIDTH 523 0
DWIDTH 13 0
BBX 13 23 0 -5
BITMAP
FFF8
0200
0200
0200
0200
0200
0200
0200
0200
0200
0200
0200
0200
0200
0200
0200
0200
0380
0180
0180
0180
0180
0180
ENDCHAR
STARTCHAR 04AD
ENCODING 1197
SWIDTH 442 0
DWIDTH 11 0
BBX 10 18 1 -5
BITMAP
FFC0
0800
0800
0800
0800
0800
0800
0800
0800
0800
0800
0800
0E00
0600
0600
0600
0600
0600
ENDCHAR
STARTCHAR 04AE
ENCODING 1198
SWIDTH 523 0
DWIDTH 13 0
BBX 13 18 0 0
BITMAP
C018
4010
6030
2020
3060
1040
18C0
0880
0D80
0500
0200
0200
0200
0200
0200
0200
0200
0200
ENDCHAR
STARTCHAR 04AF
ENCODING 1199
SWIDTH 442 0
DWIDTH 11 0
BBX 11 19 0 -6
BITMAP
8020
4040
4040
60C0
2080
2080
3180
1100
1100
0A00
0A00
0A00
0400
0400
0400
0400
0400
0400
0400
ENDCHAR
STARTCHAR 04B0
ENCODING 1200
SWIDTH 523 0
DWIDTH 13 0
BBX 13 18 0 0
BITMAP
C018
4010
6030
2020
3060
1040
18C0
0880
0D80
0500
0200
0200
3FE0
0200
0200
0200
0200
0200
ENDCHAR
STARTCHAR 04B1
ENCODING 1201
SWIDTH 442 0
DWIDTH 11 0
BBX 11 19 0 -6
BITMAP
8020
4040
4040
60C0
2080
2080
3180
1100
1100
0A00
0A00
0A00
0400
7FC0
0400
0400
0400
0400
0400
ENDCHAR
STARTCHAR 04B2
ENCODING 1202
SWIDTH 563 0
DWIDTH 14 0
BBX 14 23 0 -5
BITMAP
4010
6030
2020
1040
1840
0880
0580
0700
0200
0700
0500
0880
18C0
1040
3020
2030
4010
C01C
000C
000C
000C
000C
000C
ENDCHAR
STARTCHAR 04B3
ENCODING 1203
SWIDTH 523 0
DWIDTH 13 0
BBX 12 18 1 -5
BITMAP
C040
40C0
2080
3100
1B00
0E00
0C00
0A00
1300
3180
6080
4040
8070
0030
0030
0030
0030
0030
ENDCHAR
STARTCHAR 04B4
ENCODING 1204
SWIDTH 845 0
DWIDTH 21 0
BBX 20 23 0 -5
BITMAP
FFF840
020040
020040
020040
020040
020040
020040
020040
020040
020040
020040
020040
020040
020040
020040
020040
020040
03FFF0
000010
000010
000010
000010
000010
ENDCHAR
STARTCHAR 04B5
ENCODING 1205
SWIDTH 684 0
DWIDTH 17 0
BBX 15 18 1 -5
BITMAP
FF8C
180C
180C
180C
180C
180C
180C
180C
180C
180C
180C
180C
1FFE
0002
0002
0002
0002
0002
ENDCHAR
STARTCHAR 04B6
ENCODING 1206
SWIDTH 684 0
DWIDTH 17 0
BBX 14 23 2 -5
BITMAP
C010
C010
C010
C010
C010
C010
C010
C010
4010
60F0
1F90
0010
0010
0010
0010
0010
0010
001C
0004
0004
0004
0004
0004
ENDCHAR
STARTCHAR 04B7
ENCODING 1207
SWIDTH 604 0
DWIDTH 15 0
BBX 12 18 2 -5
BITMAP
8060
8060
8060
8060
8060
8060
C060
61E0
3E60
0060
0060
0060
0070
0010
0010
0010
0010
0010
ENDCHAR
STARTCHAR 04B8
ENCODING 1208
SWIDTH 684 0
DWIDTH 17 0
BBX 12 18 2 0
BITMAP
C010
C010
C010
C010
C010
C210
C210
C210
4210
6270
1F90
0210
0210
0210
0210
0010
0010
0010
ENDCHAR
STARTCHAR 04B9
ENCODING 1209
SWIDTH 604 0
DWIDTH 15 0
BBX 11 13 2 0
BITMAP
8060
8060
8060
8060
8460
8460
C460
65E0
3E60
0460
0460
0460
0060
ENDCHAR
STARTCHAR 04BA
ENCODING 1210
SWIDTH 684 0
DWIDTH 17 0
BBX 12 18 3 0
BITMAP
8000
8000
8000
8000
8000
8000
9F80
F060
8030
8010
8010
8010
8010
8010
8010
8010
8010
8010
ENDCHAR
STARTCHAR 04BB
ENCODING 1211
SWIDTH 563 0
DWIDTH 14 0
BBX 10 13 2 0
BITMAP
8000
8000
8000
8000
8F00
B0C0
C040
8040
8040
8040
8040
8040
8040
ENDCHAR
STARTCHAR 04BC
ENCODING 1212
SWIDTH 805 0
DWIDTH 20 0
BBX 17 18 1 0
BITMAP
00FC00
038E00
060300
0C0180
080080
980080
900080
900080
7FFF80
100000
100000
180000
180000
080000
0C0000
060000
038300
00FE00
ENDCHAR
STARTCHAR 04BD
ENCODING 1213
SWIDTH 644 0
DWIDTH 16 0
BBX 14 13 1 0
BITMAP
03E0
0630
0818
9808
9008
900C
7FFC
1000
1000
1000
0800
0C08
03F0
ENDCHAR
STARTCHAR 04BE
ENCODING 1214
SWIDTH 805 0
DWIDTH 20 0
BBX 17 23 1 -5
BITMAP
00FC00
038E00
060300
0C0180
080080
980080
900080
900080
7FFF80
100000
100000
180000
180000
080000
0C0000
060000
038300
00FE00
002000
002000
002000
002000
002000
ENDCHAR
STARTCHAR 04BF
ENCODING 1215
SWIDTH 644 0
DWIDTH 16 0
BBX 14 18 1 -5
BITMAP
03E0
0630
0818
9808
9008
900C
7FFC
1000
1000
1000
0800
0C08
03F0
0080
0080
0080
0080
0080
ENDCHAR
STARTCHAR 04C0
ENCODING 1216
SWIDTH 241 0
DWIDTH 6 0
BBX 2 18 2 0
BITMAP
C0
C0
C0
C0
C0
C0
C0
C0
C0
C0
C0
C0
C0
C0
C0
C0
C0
C0
ENDCHAR
STARTCHAR 04C1
ENCODING 1217
SWIDTH 805 0
DWIDTH 20 0
BBX 20 22 0 0
BITMAP
020400
010800
00F000
000000
406020
206040
106080
186180
0C6300
066600
026C00
016800
00F000
01F800
036C00
026400
046200
086100
186180
3060C0
606060
C06030
ENDCHAR
STARTCHAR 04C2
ENCODING 1218
SWIDTH 684 0
DWIDTH 17 0
BBX 15 18 1 0
BITMAP
1020
0840
0780
0000
0000
8102
4104
2108
1110
0920
0540
07C0
0D60
1930
3118
610C
4104
8102
ENDCHAR
STARTCHAR 04C3
ENCODING 1219
SWIDTH 644 0
DWIDTH 16 0
BBX 13 24 2 -6
BITMAP
C020
C040
C080
C100
C200
C400
C800
D000
FF00
C1C0
C060
C030
C010
C010
C018
C018
C018
C018
0010
0010
0030
0020
10C0
0F80
ENDCHAR
STARTCHAR 04C4
ENCODING 1220
SWIDTH 523 0
DWIDTH 13 0
BBX 10 19 2 -6
BITMAP
8180
8300
8600
8C00
9800
B000
FE00
8300
8080
80C0
8040
8040
8040
0040
0040
00C0
0080
0180
1E00
ENDCHAR
STARTCHAR 04C5
ENCODING 1221
SWIDTH 684 0
DWIDTH 17 0
BBX 16 23 0 -5
BITMAP
03FC
0604
0604
0404
0404
0404
0404
0404
0404
0C04
0804
0804
0804
0804
1804
1004
3004
E007
0001
0003
0002
0002
0006
ENDCHAR
STARTCHAR 04C6
ENCODING 1222
SWIDTH 563 0
DWIDTH 14 0
BBX 13 18 0 -5
BITMAP
0FF0
0C30
0C30
0830
0830
0830
0830
0830
1830
1030
1030
3030
E038
0008
0008
0018
0010
0010
ENDCHAR
STARTCHAR 04C7
ENCODING 1223
SWIDTH 724 0
DWIDTH 18 0
BBX 12 24 3 -6
BITMAP
8010
8010
8010
8010
8010
8010
8010
8010
FFF0
8010
8010
8010
8010
8010
8010
8010
8010
8010
0010
0010
0030
0020
10E0
1F80
ENDCHAR
STARTCHAR 04C8
ENCODING 1224
SWIDTH 604 0
DWIDTH 15 0
BBX 11 19 2 -6
BITMAP
8020
8020
8020
8020
8020
8020
FFE0
8020
8020
8020
8020
8020
8020
0020
0020
0060
0040
08C0
0780
ENDCHAR
STARTCHAR 04C9
ENCODING 1225
SWIDTH 724 0
DWIDTH 18 0
BBX 14 23 3 -5
BITMAP
8010
8010
8010
8010
8010
8010
8010
8010
FFF0
8010
8010
8010
8010
8010
8010
8010
8010
801C
0004
000C
0008
0008
0018
ENDCHAR
STARTCHAR 04CA
ENCODING 1226
SWIDTH 604 0
DWIDTH 15 0
BBX 12 18 2 -5
BITMAP
8020
8020
8020
8020
8020
8020
FFE0
8020
8020
8020
8020
8020
8030
0010
0010
0030
0020
0020
ENDCHAR
STARTCHAR 04CB
ENCODING 1227
SWIDTH 684 0
DWIDTH 17 0
BBX 12 23 2 -5
BITMAP
C010
C010
C010
C010
C010
C010
C010
C010
4010
60F0
1F90
0010
0010
0010
0010
0010
0010
0030
0020
0020
0020
0020
0020
ENDCHAR
STARTCHAR 04CC
ENCODING 1228
SWIDTH 604 0
DWIDTH 15 0
BBX 11 18 2 -5
BITMAP
8060
8060
8060
8060
8060
8060
C060
61E0
3E60
0060
0060
0060
00E0
0080
0080
0080
0080
0080
ENDCHAR
STARTCHAR 04CD
ENCODING 1229
SWIDTH 885 0
DWIDTH 22 0
BBX 18 23 3 -5
BITMAP
C00300
C00300
E00300
A00500
A00500
B00D00
900900
981900
881100
881100
842100
842100
866100
824100
824100
818100
818100
8181C0
000040
0000C0
000080
000080
000180
ENDCHAR
STARTCHAR 04CE
ENCODING 1230
SWIDTH 684 0
DWIDTH 17 0
BBX 14 18 2 -5
BITMAP
C018
C038
A028
A028
B048
9048
90C8
8888
8888
8508
8508
8508
820C
0004
0004
000C
0008
0008
ENDCHAR
STARTCHAR 04CF
ENCODING 1231
SWIDTH 241 0
DWIDTH 6 0
BBX 2 18 2 0
BITMAP
C0
C0
C0
C0
C0
C0
C0
C0
C0
C0
C0
C0
C0
C0
C0
C0
C0
C0
ENDCHAR
STARTCHAR 04D0
ENCODING 1232
SWIDTH 604 0
DWIDTH 15 0
BBX 15 22 0 0
BITMAP
1020
0840
0780
0000
0100
0180
0280
0280
06C0
0440
0460
0C60
0820
1830
1810
1FF0
3018
2008
600C
4004
4004
C006
ENDCHAR
STARTCHAR 04D1
ENCODING 1233
SWIDTH 523 0
DWIDTH 13 0
BBX 10 18 1 0
BITMAP
4080
2100
1E00
0000
0000
1F00
2180
00C0
0040
0040
0040
1FC0
7040
C040
8040
C0C0
6140
3E40
ENDCHAR
STARTCHAR 04D2
ENCODING 1234
SWIDTH 604 0
DWIDTH 15 0
BBX 15 22 0 0
BITMAP
0840
0840
0000
0000
0100
0180
0280
0280
06C0
0440
0460
0C60
0820
1830
1810
1FF0
3018
2008
600C
4004
4004
C006
ENDCHAR
STARTCHAR 04D3
ENCODING 1235
SWIDTH 523 0
DWIDTH 13 0
BBX 10 18 1 0
BITMAP
2100
2100
0000
0000
0000
1F00
2180
00C0
0040
0040
0040
1FC0
7040
C040
8040
C0C0
6140
3E40
ENDCHAR
STARTCHAR 04D4
ENCODING 1236
SWIDTH 805 0
DWIDTH 20 0
BBX 18 18 0 0
BITMAP
00FFC0
012000
012000
032000
022000
062000
042000
042000
0C3FC0
082000
182000
1FE000
302000
202000
602000
602000
402000
C03FC0
ENDCHAR
STARTCHAR 04D5
ENCODING 1237
SWIDTH 845 0
DWIDTH 21 0
BBX 19 13 1 0
BITMAP
1F1F00
21B180
00E0C0
004040
004040
1FC060
707FE0
404000
C04000
80C000
C0E000
633040
3E0F80
ENDCHAR
STARTCHAR 04D6
ENCODING 1238
SWIDTH 563 0
DWIDTH 14 0
BBX 9 22 3 0
BITMAP
8100
4200
3C00
0000
FF80
8000
8000
8000
8000
8000
8000
8000
FF80
8000
8000
8000
8000
8000
8000
8000
8000
FF80
ENDCHAR
STARTCHAR 04D7
ENCODING 1239
SWIDTH 563 0
DWIDTH 14 0
BBX 12 18 1 0
BITMAP
2040
1080
0F00
0000
0000
0F80
30C0
2060
4020
4020
4030
FFF0
4000
4000
4000
6000
3020
0FC0
ENDCHAR
STARTCHAR 04D8
ENCODING 1240
SWIDTH 724 0
DWIDTH 18 0
BBX 14 18 2 0
BITMAP
3F80
60E0
0010
0008
000C
0004
0004
0004
FFFC
8004
8004
8004
800C
C00C
4018
6030
3860
0F80
ENDCHAR
STARTCHAR 04D9
ENCODING 1241
SWIDTH 563 0
DWIDTH 14 0
BBX 12 13 1 0
BITMAP
3F00
40C0
0060
0020
0020
0020
FFF0
C020
4020
4020
6040
30C0
1F00
ENDCHAR
STARTCHAR 04DA
ENCODING 1242
SWIDTH 724 0
DWIDTH 18 0
BBX 14 22 2 0
BITMAP
0840
0840
0000
0000
3F80
60E0
0010
0008
000C
0004
0004
0004
FFFC
8004
8004
8004
800C
C00C
4018
6030
3860
0F80
ENDCHAR
STARTCHAR 04DB
ENCODING 1243
SWIDTH 563 0
DWIDTH 14 0
BBX 12 18 1 0
BITMAP
1080
1080
0000
0000
0000
3F00
40C0
0060
0020
0020
0020
FFF0
C020
4020
4020
6040
30C0
1F00
ENDCHAR
STARTCHAR 04DC
ENCODING 1244
SWIDTH 805 0
DWIDTH 20 0
BBX 20 22 0 0
BITMAP
010800
010800
000000
000000
406020
206040
106080
186180
0C6300
066600
026C00
016800
00F000
01F800
036C00
026400
046200
086100
186180
3060C0
606060
C06030
ENDCHAR
STARTCHAR 04DD
ENCODING 1245
SWIDTH 684 0
DWIDTH 17 0
BBX 15 18 1 0
BITMAP
0840
0840
0000
0000
0000
8102
4104
2108
1110
0920
0540
07C0
0D60
1930
3118
610C
4104
8102
ENDCHAR
STARTCHAR 04DE
ENCODING 1246
SWIDTH 563 0
DWIDTH 14 0
BBX 12 22 1 0
BITMAP
1080
1080
0000
0000
1F80
70C0
0060
0020
0020
0020
0060
00C0
3F00
01C0
0060
0020
0030
0030
0020
0060
C1C0
7F00
ENDCHAR
STARTCHAR 04DF
ENCODING 1247
SWIDTH 442 0
DWIDTH 11 0
BBX 9 18 1 0
BITMAP
4200
4200
0000
0000
0000
7E00
C300
0100
0100
0100
0300
3C00
0300
0180
0180
0180
8300
7E00
ENDCHAR
STARTCHAR 04E0
ENCODING 1248
SWIDTH 563 0
DWIDTH 14 0
BBX 12 18 1 0
BITMAP
FFE0
0060
00C0
0180
0300
0600
0C00
1800
1F00
01C0
0060
0020
0030
0030
0020
0060
C1C0
7F00
ENDCHAR
STARTCHAR 04E1
ENCODING 1249
SWIDTH 483 0
DWIDTH 12 0
BBX 11 19 0 -6
BITMAP
7FE0
0040
0080
0100
0200
0400
0800
1000
3F00
01C0
0040
0020
0020
0020
0020
0060
0040
C180
7F00
ENDCHAR
STARTCHAR 04E2
ENCODING 1250
SWIDTH 724 0
DWIDTH 18 0
BBX 12 20 3 0
BITMAP
1F80
0000
8010
8030
8030
8050
80D0
8090
8110
8310
8210
8410
8C10
8810
9010
B010
A010
C010
C010
8010
ENDCHAR
STARTCHAR 04E3
ENCODING 1251
SWIDTH 604 0
DWIDTH 15 0
BBX 11 16 2 0
BITMAP
1F80
0000
0000
8060
80A0
81A0
8120
8220
8620
8420
8820
9820
9020
A020
A020
C020
ENDCHAR
STARTCHAR 04E4
ENCODING 1252
SWIDTH 724 0
DWIDTH 18 0
BBX 12 22 3 0
BITMAP
1080
1080
0000
0000
8010
8030
8030
8050
80D0
8090
8110
8310
8210
8410
8C10
8810
9010
B010
A010
C010
C010
8010
ENDCHAR
STARTCHAR 04E5
ENCODING 1253
SWIDTH 604 0
DWIDTH 15 0
BBX 11 18 2 0
BITMAP
2100
2100
0000
0000
0000
8060
80A0
81A0
8120
8220
8620
8420
8820
9820
9020
A020
A020
C020
ENDCHAR
STARTCHAR 04E6
ENCODING 1254
SWIDTH 765 0
DWIDTH 19 0
BBX 15 22 2 0
BITMAP
0840
0840
0000
0000
07C0
1830
2008
4004
C006
8002
8002
8002
8002
8002
8002
8002
8002
C006
4004
2008
1830
07C0
ENDCHAR
STARTCHAR 04E7
ENCODING 1255
SWIDTH 604 0
DWIDTH 15 0
BBX 13 18 1 0
BITMAP
1080
1080
0000
0000
0000
0F80
3060
6020
4010
4010
4010
C018
4010
4010
4010
2030
3060
0F80
ENDCHAR
STARTCHAR 04E8
ENCODING 1256
SWIDTH 765 0
DWIDTH 19 0
BBX 15 18 2 0
BITMAP
07C0
1C70
2008
4004
C006
8002
8002
8002
FFFE
8002
8002
8002
8002
C006
4004
2008
1C70
07C0
ENDCHAR
STARTCHAR 04E9
ENCODING 1257
SWIDTH 604 0
DWIDTH 15 0
BBX 13 13 1 0
BITMAP
0F80
30E0
6020
4010
4010
4010
FFF8
4010
4010
4010
2030
3060
0F80
ENDCHAR
STARTCHAR 04EA
ENCODING 1258
SWIDTH 765 0
DWIDTH 19 0
BBX 15 22 2 0
BITMAP
0840
0840
0000
0000
07C0
1C70
2008
4004
C006
8002
8002
8002
FFFE
8002
8002
8002
8002
C006
4004
2008
1C70
07C0
ENDCHAR
STARTCHAR 04EB
ENCODING 1259
SWIDTH 604 0
DWIDTH 15 0
BBX 13 18 1 0
BITMAP
1080
1080
0000
0000
0000
0F80
30E0
6020
4010
4010
4010
FFF8
4010
4010
4010
2030
3060
0F80
ENDCHAR
STARTCHAR 04EC
ENCODING 1260
SWIDTH 604 0
DWIDTH 15 0
BBX 12 22 1 0
BITMAP
1080
1080
0000
0000
7E00
C380
0040
0020
0030
0010
0010
0010
3FF0
0010
0010
0010
0030
0030
0060
00C0
8380
FE00
ENDCHAR
STARTCHAR 04ED
ENCODING 1261
SWIDTH 483 0
DWIDTH 12 0
BBX 10 18 1 0
BITMAP
2100
2100
0000
0000
0000
7C00
8300
0180
0080
0080
00C0
7FC0
00C0
0080
0080
0100
8700
FC00
ENDCHAR
STARTCHAR 04EE
ENCODING 1262
SWIDTH 604 0
DWIDTH 15 0
BBX 15 20 0 0
BITMAP
07E0
0000
C006
4004
600C
2008
1008
1810
0810
0C20
0420
0660
0240
03C0
0180
0180
0100
0300
4600
7C00
ENDCHAR
STARTCHAR 04EF
ENCODING 1263
SWIDTH 442 0
DWIDTH 11 0
BBX 11 22 0 -6
BITMAP
1F80
0000
0000
8020
4040
4040
60C0
2080
2080
3180
1100
1100
0A00
0A00
0A00
0400
0400
0C00
0800
1800
1000
E000
ENDCHAR
STARTCHAR 04F0
ENCODING 1264
SWIDTH 604 0
DWIDTH 15 0
BBX 15 22 0 0
BITMAP
0840
0840
0000
0000
C006
4004
600C
2008
1008
1810
0810
0C20
0420
0660
0240
03C0
0180
0180
0100
0300
4600
7C00
ENDCHAR
STARTCHAR 04F1
ENCODING 1265
SWIDTH 442 0
DWIDTH 11 0
BBX 11 24 0 -6
BITMAP
1080
1080
0000
0000
0000
8020
4040
4040
60C0
2080
2080
3180
1100
1100
0A00
0A00
0A00
0400
0400
0C00
0800
1800
1000
E000
ENDCHAR
STARTCHAR 04F2
ENCODING 1266
SWIDTH 604 0
DWIDTH 15 0
BBX 15 23 0 0
BITMAP
0330
0660
0440
0880
0000
C006
4004
600C
2008
1008
1810
0810
0C20
0420
0660
0240
03C0
0180
0180
0100
0300
4600
7C00
ENDCHAR
STARTCHAR 04F3
ENCODING 1267
SWIDTH 442 0
DWIDTH 11 0
BBX 11 25 0 -6
BITMAP
0CC0
1980
1100
2200
0000
0000
8020
4040
4040
60C0
2080
2080
3180
1100
1100
0A00
0A00
0A00
0400
0400
0C00
0800
1800
1000
E000
ENDCHAR
STARTCHAR 04F4
ENCODING 1268
SWIDTH 684 0
DWIDTH 17 0
BBX 12 22 2 0
BITMAP
1080
1080
0000
0000
C010
C010
C010
C010
C010
C010
C010
C010
4010
60F0
1F90
0010
0010
0010
0010
0010
0010
0010
ENDCHAR
STARTCHAR 04F5
ENCODING 1269
SWIDTH 604 0
DWIDTH 15 0
BBX 11 18 2 0
BITMAP
2100
2100
0000
0000
0000
8060
8060
8060
8060
8060
8060
C060
61E0
3E60
0060
0060
0060
0060
ENDCHAR
STARTCHAR 04F6
ENCODING 1270
SWIDTH 523 0
DWIDTH 13 0
BBX 10 23 3 -5
BITMAP
FFC0
8000
8000
8000
8000
8000
8000
8000
8000
8000
8000
8000
8000
8000
8000
8000
8000
C000
4000
4000
4000
4000
4000
ENDCHAR
STARTCHAR 04F7
ENCODING 1271
SWIDTH 442 0
DWIDTH 11 0
BBX 8 18 2 -5
BITMAP
FF
C0
C0
C0
C0
C0
C0
C0
C0
C0
C0
C0
E0
20
20
20
20
20
ENDCHAR
STARTCHAR 04F8
ENCODING 1272
SWIDTH 805 0
DWIDTH 20 0
BBX 16 22 2 0
BITMAP
0420
0420
0000
0000
C003
C003
C003
C003
C003
C003
C003
C003
FF03
C0C3
C063
C023
C023
C023
C023
C063
C0C3
FF03
ENDCHAR
STARTCHAR 04F9
ENCODING 1273
SWIDTH 724 0
DWIDTH 18 0
BBX 14 18 2 0
BITMAP
0840
0840
0000
0000
0000
8004
8004
8004
8004
8004
8004
FF04
80C4
8044
8044
8044
81C4
FF04
ENDCHAR
STARTCHAR 04FA
ENCODING 1274
SWIDTH 523 0
DWIDTH 13 0
BBX 12 23 1 -5
BITMAP
3FF0
2000
2000
2000
2000
2000
2000
2000
FF00
2000
2000
2000
2000
2000
2000
2000
2000
3000
1000
1000
1000
1000
7000
ENDCHAR
STARTCHAR 04FB
ENCODING 1275
SWIDTH 442 0
DWIDTH 11 0
BBX 10 18 0 -5
BITMAP
3FC0
3000
3000
3000
3000
3000
FF00
3000
3000
3000
3000
3000
3800
0800
0800
0800
1800
3000
ENDCHAR
STARTCHAR 04FC
ENCODING 1276
SWIDTH 604 0
DWIDTH 15 0
BBX 15 23 0 -5
BITMAP
4008
2010
3030
1020
1860
0CC0
0480
0780
0300
0700
0480
0CC0
0840
1060
3030
2010
4018
C00E
0006
0006
0006
0004
001C
ENDCHAR
STARTCHAR 04FD
ENCODING 1277
SWIDTH 523 0
DWIDTH 13 0
BBX 12 18 1 -5
BITMAP
C040
40C0
2080
3100
1B00
0E00
0C00
0A00
1300
3180
6080
4040
8070
0030
0030
0030
0020
00E0
ENDCHAR
STARTCHAR 04FE
ENCODING 1278
SWIDTH 523 0
DWIDTH 13 0
BBX 13 18 0 0
BITMAP
4010
6030
2020
1040
1840
0880
0D80
0500
3FE0
0700
0500
0880
18C0
1040
3060
2020
4010
C018
ENDCHAR
STARTCHAR 04FF
ENCODING 1279
SWIDTH 483 0
DWIDTH 12 0
BBX 10 13 1 0
BITMAP
C0C0
4080
2100
3300
1200
0C00
FFC0
0C00
1200
3300
2100
4080
8040
ENDCHAR
STARTCHAR 0500
ENCODING 1280
SWIDTH 604 0
DWIDTH 15 0
BBX 11 18 1 0
BITMAP
0020
0020
0020
0020
0020
0020
0020
0020
1FE0
3020
4020
C020
C020
C020
4020
4020
3020
1FE0
ENDCHAR
STARTCHAR 0501
ENCODING 1281
SWIDTH 604 0
DWIDTH 15 0
BBX 12 19 1 0
BITMAP
0010
0010
0010
0010
0010
0010
0F90
30D0
6030
4030
4030
C010
C010
C010
4030
4030
6030
30D0
0F90
ENDCHAR
STARTCHAR 0502
ENCODING 1282
SWIDTH 845 0
DWIDTH 21 0
BBX 18 18 1 0
BITMAP
004000
004000
004000
004000
004000
004000
004000
004000
0FC0C0
3040C0
6040C0
4040C0
C040C0
C040C0
C060C0
406080
71B180
1F1F00
ENDCHAR
STARTCHAR 0503
ENCODING 1283
SWIDTH 885 0
DWIDTH 22 0
BBX 19 19 1 0
BITMAP
002000
002000
002000
002000
002000
002000
0F2000
30E000
606000
402000
402000
402020
C02020
402020
403020
403020
607060
30D8C0
0F0F80
ENDCHAR
STARTCHAR 0504
ENCODING 1284
SWIDTH 885 0
DWIDTH 22 0
BBX 19 18 1 0
BITMAP
1F0000
61C000
804000
006000
006000
006000
004000
018000
3E0060
018060
004060
006060
002060
002060
002060
003040
0018C0
000F80
ENDCHAR
STARTCHAR 0505
ENCODING 1285
SWIDTH 765 0
DWIDTH 19 0
BBX 16 13 1 0
BITMAP
7C00
C300
0100
0100
0100
0201
3C01
0301
0181
0081
0083
00C6
007C
ENDCHAR
STARTCHAR 0506
ENCODING 1286
SWIDTH 563 0
DWIDTH 14 0
BBX 12 23 1 -5
BITMAP
3F00
E1C0
8040
0060
0060
0060
0040
0180
3E00
0180
0040
0060
0020
0020
0020
0020
0020
0030
0010
0010
0010
0010
0010
ENDCHAR
STARTCHAR 0507
ENCODING 1287
SWIDTH 483 0
DWIDTH 12 0
BBX 10 18 1 -5
BITMAP
7E00
C300
0100
0180
0100
0300
3C00
0300
0080
0080
0080
0080
00C0
0040
0040
0040
0040
0040
ENDCHAR
STARTCHAR 0508
ENCODING 1288
SWIDTH 926 0
DWIDTH 23 0
BBX 21 18 0 0
BITMAP
03F800
020800
060800
040800
040800
040800
040800
040818
040818
0C0818
080818
080818
080818
080818
180818
100C10
300630
E003E0
ENDCHAR
STARTCHAR 0509
ENCODING 1289
SWIDTH 805 0
DWIDTH 20 0
BBX 18 13 0 0
BITMAP
0FE000
082000
082000
082000
082000
082040
082040
182040
102040
102040
3020C0
203080
E00F00
ENDCHAR
STARTCHAR 050A
ENCODING 1290
SWIDTH 1006 0
DWIDTH 25 0
BBX 20 18 3 0
BITMAP
801000
801000
801000
801000
801000
801000
801000
801000
FFF030
801030
801030
801030
801030
801030
801030
801820
800C60
8007C0
ENDCHAR
STARTCHAR 050B
ENCODING 1291
SWIDTH 885 0
DWIDTH 22 0
BBX 18 13 2 0
BITMAP
806000
806000
806000
806000
806000
806040
FFE040
806040
806040
802040
8020C0
803180
801F00
ENDCHAR
STARTCHAR 050C
ENCODING 1292
SWIDTH 724 0
DWIDTH 18 0
BBX 15 18 2 0
BITMAP
07F0
1C18
3000
6000
C000
8000
8000
8000
8000
80FE
8006
8006
8004
C004
400C
2008
1830
07E0
ENDCHAR
STARTCHAR 050D
ENCODING 1293
SWIDTH 604 0
DWIDTH 15 0
BBX 13 13 1 0
BITMAP
0FE0
1830
2000
4000
4000
C000
C1F8
C008
4018
4010
6010
3860
0FC0
ENDCHAR
STARTCHAR 050E
ENCODING 1294
SWIDTH 684 0
DWIDTH 17 0
BBX 15 18 0 0
BITMAP
FFF8
0200
0200
0200
0200
0200
0200
0206
0206
0206
0206
0206
0206
0206
0206
0304
018C
00F8
ENDCHAR
STARTCHAR 050F
ENCODING 1295
SWIDTH 604 0
DWIDTH 15 0
BBX 13 13 0 0
BITMAP
FFC0
0400
0400
0400
0400
0408
0408
0408
0408
0408
0418
0210
01E0
ENDCHAR
STARTCHAR 0510
ENCODING 1296
SWIDTH 563 0
DWIDTH 14 0
BBX 12 18 1 0
BITMAP
0FC0
3070
6000
4000
4000
4000
6000
3800
07C0
3800
6000
4000
C000
C000
4000
6000
3030
0FE0
ENDCHAR
STARTCHAR 0511
ENCODING 1297
SWIDTH 442 0
DWIDTH 11 0
BBX 9 13 1 0
BITMAP
3F00
6080
4000
C000
4000
6000
1E00
6000
C000
8000
C000
6080
3F00
ENDCHAR
STARTCHAR 0512
ENCODING 1298
SWIDTH 684 0
DWIDTH 17 0
BBX 16 23 0 -5
BITMAP
03FC
0604
0604
0404
0404
0404
0404
0404
0404
0C04
0804
0804
0804
0804
1804
1004
3004
E007
0001
0001
0001
0003
000E
ENDCHAR
STARTCHAR 0513
ENCODING 1299
SWIDTH 563 0
DWIDTH 14 0
BBX 13 18 0 -5
BITMAP
0FF0
0C10
0C10
0810
0810
0810
0810
0810
1810
1010
1010
3010
E018
0008
0008
0008
0018
0030
ENDCHAR
STARTCHAR 1E00
ENCODING 7680
SWIDTH 604 0
DWIDTH 15 0
BBX 15 25 0 -7
BITMAP
0100
0180
0280
0280
06C0
0440
0460
0C60
0820
1830
1810
1FF0
3018
2008
600C
4004
4004
C006
0000
0000
0780
0480
0840
0480
0780
ENDCHAR
STARTCHAR 1E01
ENCODING 7681
SWIDTH 523 0
DWIDTH 13 0
BBX 10 20 1 -7
BITMAP
1F00
2180
00C0
0040
0040
0040
1FC0
7040
C040
8040
C0C0
6140
3E40
0000
0000
1E00
1200
2100
1200
1E00
ENDCHAR
STARTCHAR 1E3E
ENCODING 7742
SWIDTH 885 0
DWIDTH 22 0
BBX 16 23 3 0
BITMAP
0060
00C0
0080
0100
0000
C003
C003
E003
A005
A005
B00D
9009
9819
8811
8811
8421
8421
8661
8241
8241
8181
8181
8181
ENDCHAR
STARTCHAR 1E3F
ENCODING 7743
SWIDTH 885 0
DWIDTH 22 0
BBX 18 19 2 0
BITMAP
003000
006000
004000
008000
000000
000000
9F1F00
A1B180
C0C0C0
C0C040
C0C040
80C040
80C040
80C040
80C040
80C040
80C040
80C040
80C040
ENDCHAR
STARTCHAR 1E80
ENCODING 7808
SWIDTH 885 0
DWIDTH 22 0
BBX 20 23 1 0
BITMAP
018000
008000
004000
002000
000000
806010
806010
C06030
40B020
409020
409020
619060
210840
210840
210840
330CC0
120480
120480
120480
1C0300
0C0300
0C0300
0C0300
ENDCHAR
STARTCHAR 1E81
ENCODING 7809
SWIDTH 724 0
DWIDTH 18 0
BBX 16 19 1 0
BITMAP
0600
0200
0100
0080
0000
0000
8181
8181
81C1
C343
4242
4242
4622
2426
2424
2C14
3814
1818
1808
ENDCHAR
STARTCHAR 1E82
ENCODING 7810
SWIDTH 885 0
DWIDTH 22 0
BBX 20 23 1 0
BITMAP
001800
003000
002000
004000
000000
806010
806010
C06030
40B020
409020
409020
619060
210840
210840
210840
330CC0
120480
120480
120480
1C0300
0C0300
0C0300
0C0300
ENDCHAR
STARTCHAR 1E83
ENCODING 7811
SWIDTH 724 0
DWIDTH 18 0
BBX 16 19 1 0
BITMAP
0060
00C0
0080
0100
0000
0000
8181
8181
81C1
C343
4242
4242
4622
2426
2424
2C14
3814
1818
1808
ENDCHAR
STARTCHAR 1E84
ENCODING 7812
SWIDTH 885 0
DWIDTH 22 0
BBX 20 22 1 0
BITMAP
010800
010800
000000
000000
806010
806010
C06030
40B020
409020
409020
619060
210840
210840
210840
330CC0
120480
120480
120480
1C0300
0C0300
0C0300
0C0300
ENDCHAR
STARTCHAR 1E85
ENCODING 7813
SWIDTH 724 0
DWIDTH 18 0
BBX 16 18 1 0
BITMAP
0420
0420
0000
0000
0000
8181
8181
81C1
C343
4242
4242
4622
2426
2424
2C14
3814
1818
1808
ENDCHAR
STARTCHAR 1EA0
ENCODING 7840
SWIDTH 604 0
DWIDTH 15 0
BBX 15 22 0 -4
BITMAP
0100
0180
0280
0280
06C0
0440
0460
0C60
0820
1830
1810
1FF0
3018
2008
600C
4004
4004
C006
0000
0000
0100
0100
ENDCHAR
STARTCHAR 1EA1
ENCODING 7841
SWIDTH 523 0
DWIDTH 13 0
BBX 10 17 1 -4
BITMAP
1F00
2180
00C0
0040
0040
0040
1FC0
7040
C040
8040
C0C0
6140
3E40
0000
0000
0400
0400
ENDCHAR
STARTCHAR 1EA2
ENCODING 7842
SWIDTH 604 0
DWIDTH 15 0
BBX 15 25 0 0
BITMAP
0380
0040
0040
00C0
0100
0100
0000
0100
0180
0280
0280
06C0
0440
0460
0C60
0820
1830
1810
1FF0
3018
2008
600C
4004
4004
C006
ENDCHAR
STARTCHAR 1EA3
ENCODING 7843
SWIDTH 523 0
DWIDTH 13 0
BBX 10 21 1 0
BITMAP
0E00
0100
0100
0300
0400
0400
0000
0000
1F00
2180
00C0
0040
0040
0040
1FC0
7040
C040
8040
C0C0
6140
3E40
ENDCHAR
STARTCHAR 1EA4
ENCODING 7844
SWIDTH 604 0
DWIDTH 15 0
BBX 15 24 0 0
BITMAP
0018
0010
01A0
02C0
0C60
0000
0100
0180
0280
0280
06C0
0440
0460
0C60
0820
1830
1810
1FF0
3018
2008
600C
4004
4004
C006
ENDCHAR
STARTCHAR 1EA5
ENCODING 7845
SWIDTH 523 0
DWIDTH 13 0
BBX 11 20 1 0
BITMAP
0060
0040
0680
0B00
3180
0000
0000
1F00
2180
00C0
0040
0040
0040
1FC0
7040
C040
8040
C0C0
6140
3E40
ENDCHAR
STARTCHAR 1EA6
ENCODING 7846
SWIDTH 604 0
DWIDTH 15 0
BBX 15 24 0 0
BITMAP
3000
1000
0980
02C0
0C60
0000
0100
0180
0280
0280
06C0
0440
0460
0C60
0820
1830
1810
1FF0
3018
2008
600C
4004
4004
C006
ENDCHAR
STARTCHAR 1EA7
ENCODING 7847
SWIDTH 523 0
DWIDTH 13 0
BBX 10 20 1 0
BITMAP
C000
4000
2600
0B00
3180
0000
0000
1F00
2180
00C0
0040
0040
0040
1FC0
7040
C040
8040
C0C0
6140
3E40
ENDCHAR
STARTCHAR 1EA8
ENCODING 7848
SWIDTH 604 0
DWIDTH 15 0
BBX 15 26 0 0
BITMAP
0038
0008
0008
0198
0290
0440
0820
0000
0100
0180
0280
0280
06C0
0440
0460
0C60
0820
1830
1810
1FF0
3018
2008
600C
4004
4004
C006
ENDCHAR
STARTCHAR 1EA9
ENCODING 7849
SWIDTH 523 0
DWIDTH 13 0
BBX 11 22 1 0
BITMAP
00E0
0020
0020
0660
0A40
1100
2080
0000
0000
1F00
2180
00C0
0040
0040
0040
1FC0
7040
C040
8040
C0C0
6140
3E40
ENDCHAR
STARTCHAR 1EAA
ENCODING 7850
SWIDTH 604 0
DWIDTH 15 0
BBX 15 26 0 0
BITMAP
0620
0920
08C0
0000
0180
02C0
0C60
0000
0100
0180
0280
0280
06C0
0440
0460
0C60
0820
1830
1810
1FF0
3018
2008
600C
4004
4004
C006
ENDCHAR
STARTCHAR 1EAB
ENCODING 7851
SWIDTH 523 0
DWIDTH 13 0
BBX 10 22 1 0
BITMAP
1880
2480
2300
0000
0600
0B00
3180
0000
0000
1F00
2180
00C0
0040
0040
0040
1FC0
7040
C040
8040
C0C0
6140
3E40
ENDCHAR
STARTCHAR 1EAC
ENCODING 7852
SWIDTH 604 0
DWIDTH 15 0
BBX 15 27 0 -4
BITMAP
0300
0780
0480
0840
0000
0100
0180
0280
0280
06C0
0440
0460
0C60
0820
1830
1810
1FF0
3018
2008
600C
4004
4004
C006
0000
0000
0100
0100
ENDCHAR
STARTCHAR 1EAD
ENCODING 7853
SWIDTH 523 0
DWIDTH 13 0
BBX 10 23 1 -4
BITMAP
0C00
1E00
1200
2100
0000
0000
1F00
2180
00C0
0040
0040
0040
1FC0
7040
C040
8040
C0C0
6140
3E40
0000
0000
0400
0400
ENDCHAR
STARTCHAR 1EAE
ENCODING 7854
SWIDTH 604 0
DWIDTH 15 0
BBX 15 25 0 0
BITMAP
00C0
0080
0100
0820
0440
07C0
0000
0100
0180
0280
0280
06C0
0440
0460
0C60
0820
1830
1810
1FF0
3018
2008
600C
4004
4004
C006
ENDCHAR
STARTCHAR 1EAF
ENCODING 7855
SWIDTH 523 0
DWIDTH 13 0
BBX 10 21 1 0
BITMAP
0300
0200
0400
2080
1100
1F00
0000
0000
1F00
2180
00C0
0040
0040
0040
1FC0
7040
C040
8040
C0C0
6140
3E40
ENDCHAR
STARTCHAR 1EB0
ENCODING 7856
SWIDTH 604 0
DWIDTH 15 0
BBX 15 25 0 0
BITMAP
0600
0200
0100
0820
0440
07C0
0000
0100
0180
0280
0280
06C0
0440
0460
0C60
0820
1830
1810
1FF0
3018
2008
600C
4004
4004
C006
ENDCHAR
STARTCHAR 1EB1
ENCODING 7857
SWIDTH 523 0
DWIDTH 13 0
BBX 10 21 1 0
BITMAP
1800
0800
0400
2080
1100
1F00
0000
0000
1F00
2180
00C0
0040
0040
0040
1FC0
7040
C040
8040
C0C0
6140
3E40
ENDCHAR
STARTCHAR 1EB2
ENCODING 7858
SWIDTH 604 0
DWIDTH 15 0
BBX 15 26 0 0
BITMAP
0380
0080
0080
0100
0820
0440
07C0
0000
0100
0180
0280
0280
06C0
0440
0460
0C60
0820
1830
1810
1FF0
3018
2008
600C
4004
4004
C006
ENDCHAR
STARTCHAR 1EB3
ENCODING 7859
SWIDTH 523 0
DWIDTH 13 0
BBX 10 22 1 0
BITMAP
0E00
0200
0200
0400
2080
1100
1F00
0000
0000
1F00
2180
00C0
0040
0040
0040
1FC0
7040
C040
8040
C0C0
6140
3E40
ENDCHAR
STARTCHAR 1EB4
ENCODING 7860
SWIDTH 604 0
DWIDTH 15 0
BBX 15 26 0 0
BITMAP
0620
0920
08C0
0000
0820
0440
07C0
0000
0100
0180
0280
0280
06C0
0440
0460
0C60
0820
1830
1810
1FF0
3018
2008
600C
4004
4004
C006
ENDCHAR
STARTCHAR 1EB5
ENCODING 7861
SWIDTH 523 0
DWIDTH 13 0
BBX 10 22 1 0
BITMAP
1880
2480
2300
0000
2080
1100
1F00
0000
0000
1F00
2180
00C0
0040
0040
0040
1FC0
7040
C040
8040
C0C0
6140
3E40
ENDCHAR
STARTCHAR 1EB6
ENCODING 7862
SWIDTH 604 0
DWIDTH 15 0
BBX 15 26 0 -4
BITMAP
0840
0840
0780
0000
0100
0180
0280
0280
06C0
0440
0460
0C60
0820
1830
1810
1FF0
3018
2008
600C
4004
4004
C006
0000
0000
0100
0100
ENDCHAR
STARTCHAR 1EB7
ENCODING 7863
SWIDTH 523 0
DWIDTH 13 0
BBX 10 22 1 -4
BITMAP
1080
1080
0F00
0000
0000
1F00
2180
00C0
0040
0040
0040
1FC0
7040
C040
8040
C0C0
6140
3E40
0000
0000
0400
0400
ENDCHAR
STARTCHAR 1EB8
ENCODING 7864
SWIDTH 563 0
DWIDTH 14 0
BBX 9 22 3 -4
BITMAP
FF80
8000
8000
8000
8000
8000
8000
8000
FF80
8000
8000
8000
8000
8000
8000
8000
8000
FF80
0000
0000
0800
0800
ENDCHAR
STARTCHAR 1EB9
ENCODING 7865
SWIDTH 563 0
DWIDTH 14 0
BBX 12 17 1 -4
BITMAP
0F80
30C0
2060
4020
4020
4030
FFF0
4000
4000
4000
6000
3020
0FC0
0000
0000
0400
0400
ENDCHAR
STARTCHAR 1EBA
ENCODING 7866
SWIDTH 563 0
DWIDTH 14 0
BBX 9 25 3 0
BITMAP
1C00
0200
0200
0600
0800
0800
0000
FF80
8000
8000
8000
8000
8000
8000
8000
FF80
8000
8000
8000
8000
8000
8000
8000
8000
FF80
ENDCHAR
STARTCHAR 1EBB
ENCODING 7867
SWIDTH 563 0
DWIDTH 14 0
BBX 12 21 1 0
BITMAP
0700
0080
0080
0180
0200
0200
0000
0000
0F80
30C0
2060
4020
4020
4030
FFF0
4000
4000
4000
6000
3020
0FC0
ENDCHAR
STARTCHAR 1EBC
ENCODING 7868
SWIDTH 563 0
DWIDTH 14 0
BBX 9 22 3 0
BITMAP
7080
4900
8700
0000
FF80
8000
8000
8000
8000
8000
8000
8000
FF80
8000
8000
8000
8000
8000
8000
8000
8000
FF80
ENDCHAR
STARTCHAR 1EBD
ENCODING 7869
SWIDTH 563 0
DWIDTH 14 0
BBX 12 18 1 0
BITMAP
3840
2480
4380
0000
0000
0F80
30C0
2060
4020
4020
4030
FFF0
4000
4000
4000
6000
3020
0FC0
ENDCHAR
STARTCHAR 1EBE
ENCODING 7870
SWIDTH 563 0
DWIDTH 14 0
BBX 10 24 3 0
BITMAP
00C0
0080
0D00
1600
6300
0000
FF80
8000
8000
8000
8000
8000
8000
8000
FF80
8000
8000
8000
8000
8000
8000
8000
8000
FF80
ENDCHAR
STARTCHAR 1EBF
ENCODING 7871
SWIDTH 563 0
DWIDTH 14 0
BBX 12 20 1 0
BITMAP
0060
0040
0680
0B00
3180
0000
0000
0F80
30C0
2060
4020
4020
4030
FFF0
4000
4000
4000
6000
3020
0FC0
ENDCHAR
STARTCHAR 1EC0
ENCODING 7872
SWIDTH 563 0
DWIDTH 14 0
BBX 10 24 2 0
BITMAP
C000
4000
2600
0B00
3180
0000
7FC0
4000
4000
4000
4000
4000
4000
4000
7FC0
4000
4000
4000
4000
4000
4000
4000
4000
7FC0
ENDCHAR
STARTCHAR 1EC1
ENCODING 7873
SWIDTH 563 0
DWIDTH 14 0
BBX 12 20 1 0
BITMAP
C000
4000
2600
0B00
3180
0000
0000
0F80
30C0
2060
4020
4020
4030
FFF0
4000
4000
4000
6000
3020
0FC0
ENDCHAR
STARTCHAR 1EC2
ENCODING 7874
SWIDTH 563 0
DWIDTH 14 0
BBX 10 26 3 0
BITMAP
01C0
0040
0040
0CC0
1480
2200
4100
0000
FF80
8000
8000
8000
8000
8000
8000
8000
FF80
8000
8000
8000
8000
8000
8000
8000
8000
FF80
ENDCHAR
STARTCHAR 1EC3
ENCODING 7875
SWIDTH 563 0
DWIDTH 14 0
BBX 12 22 1 0
BITMAP
00E0
0020
0020
0660
0A40
1100
2080
0000
0000
0F80
30C0
2060
4020
4020
4030
FFF0
4000
4000
4000
6000
3020
0FC0
ENDCHAR
STARTCHAR 1EC4
ENCODING 7876
SWIDTH 563 0
DWIDTH 14 0
BBX 9 26 3 0
BITMAP
3100
4900
4600
0000
0C00
1600
6300
0000
FF80
8000
8000
8000
8000
8000
8000
8000
FF80
8000
8000
8000
8000
8000
8000
8000
8000
FF80
ENDCHAR
STARTCHAR 1EC5
ENCODING 7877
SWIDTH 563 0
DWIDTH 14 0
BBX 12 22 1 0
BITMAP
1880
2480
2300
0000
0600
0B00
3180
0000
0000
0F80
30C0
2060
4020
4020
4030
FFF0
4000
4000
4000
6000
3020
0FC0
ENDCHAR
STARTCHAR 1EC6
ENCODING 7878
SWIDTH 563 0
DWIDTH 14 0
BBX 9 27 3 -4
BITMAP
1800
3C00
2400
4200
0000
FF80
8000
8000
8000
8000
8000
8000
8000
FF80
8000
8000
8000
8000
8000
8000
8000
8000
FF80
0000
0000
0800
0800
ENDCHAR
STARTCHAR 1EC7
ENCODING 7879
SWIDTH 563 0
DWIDTH 14 0
BBX 12 23 1 -4
BITMAP
0600
0F00
0900
1080
0000
0000
0F80
30C0
2060
4020
4020
4030
FFF0
4000
4000
4000
6000
3020
0FC0
0000
0000
0400
0400
ENDCHAR
STARTCHAR 1EC8
ENCODING 7880
SWIDTH 241 0
DWIDTH 6 0
BBX 4 25 2 0
BITMAP
E0
10
10
30
40
40
00
C0
C0
C0
C0
C0
C0
C0
C0
C0
C0
C0
C0
C0
C0
C0
C0
C0
C0
ENDCHAR
STARTCHAR 1EC9
ENCODING 7881
SWIDTH 241 0
DWIDTH 6 0
BBX 4 21 2 0
BITMAP
E0
10
10
30
40
40
00
00
C0
C0
C0
C0
C0
C0
C0
C0
C0
C0
C0
C0
C0
ENDCHAR
STARTCHAR 1ECA
ENCODING 7882
SWIDTH 241 0
DWIDTH 6 0
BBX 2 22 2 -4
BITMAP
C0
C0
C0
C0
C0
C0
C0
C0
C0
C0
C0
C0
C0
C0
C0
C0
C0
C0
00
00
80
80
ENDCHAR
STARTCHAR 1ECB
ENCODING 7883
SWIDTH 241 0
DWIDTH 6 0
BBX 2 22 2 -4
BITMAP
C0
C0
00
00
00
C0
C0
C0
C0
C0
C0
C0
C0
C0
C0
C0
C0
C0
00
00
80
80
ENDCHAR
STARTCHAR 1ECC
ENCODING 7884
SWIDTH 765 0
DWIDTH 19 0
BBX 15 22 2 -4
BITMAP
07C0
1830
2008
4004
C006
8002
8002
8002
8002
8002
8002
8002
8002
C006
4004
2008
1830
07C0
0000
0000
0100
0100
ENDCHAR
STARTCHAR 1ECD
ENCODING 7885
SWIDTH 604 0
DWIDTH 15 0
BBX 13 17 1 -4
BITMAP
0F80
3060
6020
4010
4010
4010
C018
4010
4010
4010
2030
3060
0F80
0000
0000
0200
0200
ENDCHAR
STARTCHAR 1ECE
ENCODING 7886
SWIDTH 765 0
DWIDTH 19 0
BBX 15 25 2 0
BITMAP
0380
0040
0040
00C0
0100
0100
0000
07C0
1830
2008
4004
C006
8002
8002
8002
8002
8002
8002
8002
8002
C006
4004
2008
1830
07C0
ENDCHAR
STARTCHAR 1ECF
ENCODING 7887
SWIDTH 604 0
DWIDTH 15 0
BBX 13 21 1 0
BITMAP
0700
0080
0080
0180
0200
0200
0000
0000
0F80
3060
6020
4010
4010
4010
C018
4010
4010
4010
2030
3060
0F80
ENDCHAR
STARTCHAR 1ED0
ENCODING 7888
SWIDTH 765 0
DWIDTH 19 0
BBX 15 24 2 0
BITMAP
0018
0010
01A0
02C0
0C60
0000
07C0
1830
2008
4004
C006
8002
8002
8002
8002
8002
8002
8002
8002
C006
4004
2008
1830
07C0
ENDCHAR
STARTCHAR 1ED1
ENCODING 7889
SWIDTH 604 0
DWIDTH 15 0
BBX 13 20 1 0
BITMAP
0030
0020
0340
0580
18C0
0000
0000
0F80
3060
6020
4010
4010
4010
C018
4010
4010
4010
2030
3060
0F80
ENDCHAR
STARTCHAR 1ED2
ENCODING 7890
SWIDTH 765 0
DWIDTH 19 0
BBX 15 24 2 0
BITMAP
3000
1000
0980
02C0
0C60
0000
07C0
1830
2008
4004
C006
8002
8002
8002
8002
8002
8002
8002
8002
C006
4004
2008
1830
07C0
ENDCHAR
STARTCHAR 1ED3
ENCODING 7891
SWIDTH 604 0
DWIDTH 15 0
BBX 13 20 1 0
BITMAP
6000
2000
1300
0580
18C0
0000
0000
0F80
3060
6020
4010
4010
4010
C018
4010
4010
4010
2030
3060
0F80
ENDCHAR
STARTCHAR 1ED4
ENCODING 7892
SWIDTH 765 0
DWIDTH 19 0
BBX 15 26 2 0
BITMAP
0038
0008
0008
0198
0290
0440
0820
0000
07C0
1830
2008
4004
C006
8002
8002
8002
8002
8002
8002
8002
8002
C006
4004
2008
1830
07C0
ENDCHAR
STARTCHAR 1ED5
ENCODING 7893
SWIDTH 604 0
DWIDTH 15 0
BBX 13 22 1 0
BITMAP
0070
0010
0010
0330
0520
0880
1040
0000
0000
0F80
3060
6020
4010
4010
4010
C018
4010
4010
4010
2030
3060
0F80
ENDCHAR
STARTCHAR 1ED6
ENCODING 7894
SWIDTH 765 0
DWIDTH 19 0
BBX 15 26 2 0
BITMAP
0620
0920
08C0
0000
0180
02C0
0C60
0000
07C0
1830
2008
4004
C006
8002
8002
8002
8002
8002
8002
8002
8002
C006
4004
2008
1830
07C0
ENDCHAR
STARTCHAR 1ED7
ENCODING 7895
SWIDTH 604 0
DWIDTH 15 0
BBX 13 22 1 0
BITMAP
0C40
1240
1180
0000
0300
0580
18C0
0000
0000
0F80
3060
6020
4010
4010
4010
C018
4010
4010
4010
2030
3060
0F80
ENDCHAR
STARTCHAR 1ED8
ENCODING 7896
SWIDTH 765 0
DWIDTH 19 0
BBX 15 27 2 -4
BITMAP
0300
0780
0480
0840
0000
07C0
1830
2008
4004
C006
8002
8002
8002
8002
8002
8002
8002
8002
C006
4004
2008
1830
07C0
0000
0000
0100
0100
ENDCHAR
STARTCHAR 1ED9
ENCODING 7897
SWIDTH 604 0
DWIDTH 15 0
BBX 13 23 1 -4
BITMAP
0600
0F00
0900
1080
0000
0000
0F80
3060
6020
4010
4010
4010
C018
4010
4010
4010
2030
3060
0F80
0000
0000
0200
0200
ENDCHAR
STARTCHAR 1EDA
ENCODING 7898
SWIDTH 765 0
DWIDTH 19 0
BBX 17 23 2 0
BITMAP
006000
00C000
008000
010000
000180
07E180
183100
200B00
400400
C00600
800200
800200
800200
800200
800200
800200
800200
800200
C00600
400400
200800
183000
07C000
ENDCHAR
STARTCHAR 1EDB
ENCODING 7899
SWIDTH 604 0
DWIDTH 15 0
BBX 14 19 1 0
BITMAP
0180
0300
0200
0400
0004
0004
0F8C
3078
6020
4010
4010
4010
C018
4010
4010
4010
2030
3060
0F80
ENDCHAR
STARTCHAR 1EDC
ENCODING 7900
SWIDTH 765 0
DWIDTH 19 0
BBX 17 23 2 0
BITMAP
0C0000
040000
020000
010000
000180
07E180
183100
200B00
400400
C00600
800200
800200
800200
800200
800200
800200
800200
800200
C00600
400400
200800
183000
07C000
ENDCHAR
STARTCHAR 1EDD
ENCODING 7901
SWIDTH 604 0
DWIDTH 15 0
BBX 14 19 1 0
BITMAP
1800
0800
0400
0200
0004
0004
0F8C
3078
6020
4010
4010
4010
C018
4010
4010
4010
2030
3060
0F80
ENDCHAR
STARTCHAR 1EDE
ENCODING 7902
SWIDTH 765 0
DWIDTH 19 0
BBX 17 25 2 0
BITMAP
038000
004000
004000
00C000
010000
010000
000180
07E180
183100
200B00
400400
C00600
800200
800200
800200
800200
800200
800200
800200
800200
C00600
400400
200800
183000
07C000
ENDCHAR
STARTCHAR 1EDF
ENCODING 7903
SWIDTH 604 0
DWIDTH 15 0
BBX 14 21 1 0
BITMAP
0700
0080
0080
0180
0200
0200
0004
0004
0F8C
3078
6020
4010
4010
4010
C018
4010
4010
4010
2030
3060
0F80
ENDCHAR
STARTCHAR 1EE0
ENCODING 7904
SWIDTH 765 0
DWIDTH 19 0
BBX 17 22 2 0
BITMAP
0E1000
092000
10E000
000180
07E180
183100
200B00
400400
C00600
800200
800200
800200
800200
800200
800200
800200
800200
C00600
400400
200800
183000
07C000
ENDCHAR
STARTCHAR 1EE1
ENCODING 7905
SWIDTH 604 0
DWIDTH 15 0
BBX 14 18 1 0
BITMAP
1C20
1240
21C0
0004
0004
0F8C
3078
6020
4010
4010
4010
C018
4010
4010
4010
2030
3060
0F80
ENDCHAR
STARTCHAR 1EE2
ENCODING 7906
SWIDTH 765 0
DWIDTH 19 0
BBX 17 23 2 -4
BITMAP
000180
07E180
183100
200B00
400400
C00600
800200
800200
800200
800200
800200
800200
800200
800200
C00600
400400
200800
183000
07C000
000000
000000
010000
010000
ENDCHAR
STARTCHAR 1EE3
ENCODING 7907
SWIDTH 604 0
DWIDTH 15 0
BBX 14 19 1 -4
BITMAP
0004
0004
0F8C
3078
6020
4010
4010
4010
C018
4010
4010
4010
2030
3060
0F80
0000
0000
0200
0200
ENDCHAR
STARTCHAR 1EE4
ENCODING 7908
SWIDTH 724 0
DWIDTH 18 0
BBX 14 22 2 -4
BITMAP
C00C
C00C
C00C
C00C
C00C
C00C
C00C
C00C
C00C
C00C
C00C
C00C
C00C
4008
4008
6018
3870
0FC0
0000
0000
0200
0200
ENDCHAR
STARTCHAR 1EE5
ENCODING 7909
SWIDTH 604 0
DWIDTH 15 0
BBX 11 17 2 -4
BITMAP
8020
8020
8020
8020
8020
8020
8020
8060
8060
8060
C060
61A0
3F20
0000
0000
0400
0400
ENDCHAR
STARTCHAR 1EE6
ENCODING 7910
SWIDTH 724 0
DWIDTH 18 0
BBX 14 25 2 0
BITMAP
0700
0080
0080
0180
0200
0200
0000
C00C
C00C
C00C
C00C
C00C
C00C
C00C
C00C
C00C
C00C
C00C
C00C
C00C
4008
4008
6018
3870
0FC0
ENDCHAR
STARTCHAR 1EE7
ENCODING 7911
SWIDTH 604 0
DWIDTH 15 0
BBX 11 21 2 0
BITMAP
0E00
0100
0100
0300
0400
0400
0000
0000
8020
8020
8020
8020
8020
8020
8020
8060
8060
8060
C060
61A0
3F20
ENDCHAR
STARTCHAR 1EE8
ENCODING 7912
SWIDTH 724 0
DWIDTH 18 0
BBX 17 23 2 0
BITMAP
00C000
018000
010000
020000
000180
C00980
C00900
C00B00
C00E00
C00800
C00800
C00800
C00800
C00800
C00800
C00800
C00800
C00800
400800
400800
601000
306000
0FC000
ENDCHAR
STARTCHAR 1EE9
ENCODING 7913
SWIDTH 604 0
DWIDTH 15 0
BBX 14 19 2 0
BITMAP
0300
0600
0400
0800
000C
0008
8058
8070
8040
8040
8040
8040
8040
8040
8040
8040
C0C0
61C0
3E40
ENDCHAR
STARTCHAR 1EEA
ENCODING 7914
SWIDTH 724 0
DWIDTH 18 0
BBX 17 23 2 0
BITMAP
0C0000
040000
020000
010000
000180
C00980
C00900
C00B00
C00E00
C00800
C00800
C00800
C00800
C00800
C00800
C00800
C00800
C00800
400800
400800
601000
306000
0FC000
ENDCHAR
STARTCHAR 1EEB
ENCODING 7915
SWIDTH 604 0
DWIDTH 15 0
BBX 14 19 2 0
BITMAP
3000
1000
0800
0400
000C
0008
8058
8070
8040
8040
8040
8040
8040
8040
8040
8040
C0C0
61C0
3E40
ENDCHAR
STARTCHAR 1EEC
ENCODING 7916
SWIDTH 724 0
DWIDTH 18 0
BBX 17 25 2 0
BITMAP
070000
008000
008000
018000
020000
020000
000180
C00980
C00900
C00B00
C00E00
C00800
C00800
C00800
C00800
C00800
C00800
C00800
C00800
C00800
400800
400800
601000
306000
0FC000
ENDCHAR
STARTCHAR 1EED
ENCODING 7917
SWIDTH 604 0
DWIDTH 15 0
BBX 14 21 2 0
BITMAP
0E00
0100
0100
0300
0400
0400
000C
0008
8058
8070
8040
8040
8040
8040
8040
8040
8040
8040
C0C0
61C0
3E40
ENDCHAR
STARTCHAR 1EEE
ENCODING 7918
SWIDTH 724 0
DWIDTH 18 0
BBX 17 22 2 0
BITMAP
1C2000
124000
21C000
000180
C00980
C00900
C00B00
C00E00
C00800
C00800
C00800
C00800
C00800
C00800
C00800
C00800
C00800
400800
400800
601000
306000
0FC000
ENDCHAR
STARTCHAR 1EEF
ENCODING 7919
SWIDTH 604 0
DWIDTH 15 0
BBX 14 18 2 0
BITMAP
3840
2480
4380
000C
0008
8058
8070
8040
8040
8040
8040
8040
8040
8040
8040
C0C0
61C0
3E40
ENDCHAR
STARTCHAR 1EF0
ENCODING 7920
SWIDTH 724 0
DWIDTH 18 0
BBX 17 23 2 -4
BITMAP
000180
C00980
C00900
C00B00
C00E00
C00800
C00800
C00800
C00800
C00800
C00800
C00800
C00800
C00800
400800
400800
601000
306000
0FC000
000000
000000
020000
020000
ENDCHAR
STARTCHAR 1EF1
ENCODING 7921
SWIDTH 604 0
DWIDTH 15 0
BBX 14 19 2 -4
BITMAP
000C
0008
8058
8070
8040
8040
8040
8040
8040
8040
8040
8040
C0C0
61C0
3E40
0000
0000
0400
0400
ENDCHAR
STARTCHAR 1EF2
ENCODING 7922
SWIDTH 523 0
DWIDTH 13 0
BBX 13 23 0 0
BITMAP
1800
0800
0400
0200
0000
C018
4010
6030
2020
3060
1040
18C0
0880
0D80
0500
0200
0200
0200
0200
0200
0200
0200
0200
ENDCHAR
STARTCHAR 1EF3
ENCODING 7923
SWIDTH 442 0
DWIDTH 11 0
BBX 11 25 0 -6
BITMAP
3000
1000
0800
0400
0000
0000
8020
4040
4040
60C0
2080
2080
3180
1100
1100
0A00
0A00
0A00
0400
0400
0C00
0800
1800
1000
E000
ENDCHAR
STARTCHAR 1EF4
ENCODING 7924
SWIDTH 523 0
DWIDTH 13 0
BBX 13 22 0 -4
BITMAP
C018
4010
6030
2020
3060
1040
18C0
0880
0D80
0500
0200
0200
0200
0200
0200
0200
0200
0200
0000
0000
0200
0200
ENDCHAR
STARTCHAR 1EF5
ENCODING 7925
SWIDTH 442 0
DWIDTH 11 0
BBX 11 19 0 -6
BITMAP
8020
4040
4040
60C0
2080
2080
3180
1100
1100
0A00
0A00
0A00
0400
0400
0C00
0840
1840
1000
E000
ENDCHAR
STARTCHAR 1EF6
ENCODING 7926
SWIDTH 523 0
DWIDTH 13 0
BBX 13 25 0 0
BITMAP
0700
0080
0080
0180
0200
0200
0000
C018
4010
6030
2020
3060
1040
18C0
0880
0D80
0500
0200
0200
0200
0200
0200
0200
0200
0200
ENDCHAR
STARTCHAR 1EF7
ENCODING 7927
SWIDTH 442 0
DWIDTH 11 0
BBX 11 27 0 -6
BITMAP
0E00
0100
0100
0300
0400
0400
0000
0000
8020
4040
4040
60C0
2080
2080
3180
1100
1100
0A00
0A00
0A00
0400
0400
0C00
0800
1800
1000
E000
ENDCHAR
STARTCHAR 1EF8
ENCODING 7928
SWIDTH 523 0
DWIDTH 13 0
BBX 13 22 0 0
BITMAP
1C20
1240
21C0
0000
C018
4010
6030
2020
3060
1040
18C0
0880
0D80
0500
0200
0200
0200
0200
0200
0200
0200
0200
ENDCHAR
STARTCHAR 1EF9
ENCODING 7929
SWIDTH 442 0
DWIDTH 11 0
BBX 11 24 0 -6
BITMAP
3840
2480
4380
0000
0000
8020
4040
4040
60C0
2080
2080
3180
1100
1100
0A00
0A00
0A00
0400
0400
0C00
0800
1800
1000
E000
ENDCHAR
STARTCHAR 1F4D
ENCODING 8013
SWIDTH 805 0
DWIDTH 20 0
BBX 21 18 -3 0
BITMAP
641F00
8C60C0
C88020
D10010
030018
020008
020008
020008
020008
020008
020008
020008
020008
030018
010010
008020
0060C0
001F00
ENDCHAR
STARTCHAR 2000
ENCODING 8192
SWIDTH 523 0
DWIDTH 13 0
BBX 0 0 0 0
BITMAP
ENDCHAR
STARTCHAR 2001
ENCODING 8193
SWIDTH 1006 0
DWIDTH 25 0
BBX 0 0 0 0
BITMAP
ENDCHAR
STARTCHAR 2002
ENCODING 8194
SWIDTH 523 0
DWIDTH 13 0
BBX 0 0 0 0
BITMAP
ENDCHAR
STARTCHAR 2003
ENCODING 8195
SWIDTH 1006 0
DWIDTH 25 0
BBX 0 0 0 0
BITMAP
ENDCHAR
STARTCHAR 2004
ENCODING 8196
SWIDTH 322 0
DWIDTH 8 0
BBX 0 0 0 0
BITMAP
ENDCHAR
STARTCHAR 2005
ENCODING 8197
SWIDTH 241 0
DWIDTH 6 0
BBX 0 0 0 0
BITMAP
ENDCHAR
STARTCHAR 2006
ENCODING 8198
SWIDTH 161 0
DWIDTH 4 0
BBX 0 0 0 0
BITMAP
ENDCHAR
STARTCHAR 2007
ENCODING 8199
SWIDTH 563 0
DWIDTH 14 0
BBX 0 0 0 0
BITMAP
ENDCHAR
STARTCHAR 2008
ENCODING 8200
SWIDTH 241 0
DWIDTH 6 0
BBX 0 0 0 0
BITMAP
ENDCHAR
STARTCHAR 2009
ENCODING 8201
SWIDTH 201 0
DWIDTH 5 0
BBX 0 0 0 0
BITMAP
ENDCHAR
STARTCHAR 200A
ENCODING 8202
SWIDTH 120 0
DWIDTH 3 0
BBX 0 0 0 0
BITMAP
ENDCHAR
STARTCHAR 200B
ENCODING 8203
SWIDTH 0 0
DWIDTH 0 0
BBX 0 0 0 0
BITMAP
ENDCHAR
STARTCHAR 2013
ENCODING 8211
SWIDTH 523 0
DWIDTH 13 0
BBX 11 1 1 6
BITMAP
FFE0
ENDCHAR
STARTCHAR 2014
ENCODING 8212
SWIDTH 1006 0
DWIDTH 25 0
BBX 23 1 1 6
BITMAP
FFFFFE
ENDCHAR
STARTCHAR 2015
ENCODING 8213
SWIDTH 1006 0
DWIDTH 25 0
BBX 23 1 1 6
BITMAP
FFFFFE
ENDCHAR
STARTCHAR 2017
ENCODING 8215
SWIDTH 402 0
DWIDTH 10 0
BBX 10 4 0 -5
BITMAP
FFC0
0000
0000
FFC0
ENDCHAR
STARTCHAR 2018
ENCODING 8216
SWIDTH 161 0
DWIDTH 4 0
BBX 2 6 1 12
BITMAP
40
40
40
C0
80
80
ENDCHAR
STARTCHAR 2019
ENCODING 8217
SWIDTH 161 0
DWIDTH 4 0
BBX 3 6 0 12
BITMAP
20
20
60
40
40
80
ENDCHAR
STARTCHAR 201A
ENCODING 8218
SWIDTH 241 0
DWIDTH 6 0
BBX 3 6 0 -3
BITMAP
20
20
60
40
40
80
ENDCHAR
STARTCHAR 201B
ENCODING 8219
SWIDTH 161 0
DWIDTH 4 0
BBX 2 6 1 12
BITMAP
80
80
C0
40
40
40
ENDCHAR
STARTCHAR 201C
ENCODING 8220
SWIDTH 322 0
DWIDTH 8 0
BBX 7 6 1 12
BITMAP
42
44
44
CC
88
88
ENDCHAR
STARTCHAR 201D
ENCODING 8221
SWIDTH 322 0
DWIDTH 8 0
BBX 7 6 0 12
BITMAP
22
22
66
44
44
84
ENDCHAR
STARTCHAR 201E
ENCODING 8222
SWIDTH 362 0
DWIDTH 9 0
BBX 7 6 0 -3
BITMAP
22
22
66
44
44
84
ENDCHAR
STARTCHAR 2020
ENCODING 8224
SWIDTH 483 0
DWIDTH 12 0
BBX 10 19 1 0
BITMAP
0C00
0C00
0800
0800
0800
FFC0
0800
0800
0800
0800
0800
0800
0800
0800
0800
0C00
0C00
0C00
0C00
ENDCHAR
STARTCHAR 2021
ENCODING 8225
SWIDTH 483 0
DWIDTH 12 0
BBX 10 19 1 0
BITMAP
0C00
0C00
0800
0800
0800
FFC0
0800
0800
0800
0800
0800
0800
0800
FFC0
0800
0800
0800
0800
0C00
ENDCHAR
STARTCHAR 2022
ENCODING 8226
SWIDTH 362 0
DWIDTH 9 0
BBX 3 4 3 7
BITMAP
E0
E0
E0
E0
ENDCHAR
STARTCHAR 2026
ENCODING 8230
SWIDTH 724 0
DWIDTH 18 0
BBX 14 2 2 0
BITMAP
C30C
C30C
ENDCHAR
STARTCHAR 2030
ENCODING 8240
SWIDTH 1127 0
DWIDTH 28 0
BBX 26 18 1 0
BITMAP
38040000
640C0000
42080000
C2180000
C2100000
C2200000
C2200000
424F0F00
42598980
64909080
38909080
011090C0
0310D0C0
021090C0
06109080
04109080
08198980
080F0700
ENDCHAR
STARTCHAR 2032
ENCODING 8242
SWIDTH 201 0
DWIDTH 5 0
BBX 1 6 2 12
BITMAP
80
80
80
80
80
80
ENDCHAR
STARTCHAR 2033
ENCODING 8243
SWIDTH 362 0
DWIDTH 9 0
BBX 5 6 2 12
BITMAP
88
88
88
88
88
88
ENDCHAR
STARTCHAR 2039
ENCODING 8249
SWIDTH 241 0
DWIDTH 6 0
BBX 4 10 1 1
BITMAP
10
30
20
40
C0
C0
40
20
30
10
ENDCHAR
STARTCHAR 203A
ENCODING 8250
SWIDTH 241 0
DWIDTH 6 0
BBX 4 10 1 1
BITMAP
80
C0
40
20
30
30
20
40
C0
80
ENDCHAR
STARTCHAR 203C
ENCODING 8252
SWIDTH 442 0
DWIDTH 11 0
BBX 7 18 2 0
BITMAP
C6
C6
C6
C6
C6
C6
C6
84
84
84
84
84
84
00
00
00
C6
C6
ENDCHAR
STARTCHAR 2044
ENCODING 8260
SWIDTH 120 0
DWIDTH 3 0
BBX 11 18 -4 0
BITMAP
0020
0040
00C0
0080
0180
0100
0200
0200
0400
0400
0800
0800
1000
3000
2000
4000
4000
8000
ENDCHAR
STARTCHAR 2070
ENCODING 8304
SWIDTH 322 0
DWIDTH 8 0
BBX 6 11 1 7
BITMAP
78
CC
84
84
84
84
84
84
84
CC
78
ENDCHAR
STARTCHAR 2074
ENCODING 8308
SWIDTH 322 0
DWIDTH 8 0
BBX 8 11 0 7
BITMAP
04
0C
1C
14
24
64
44
FF
04
04
04
ENDCHAR
STARTCHAR 2075
ENCODING 8309
SWIDTH 322 0
DWIDTH 8 0
BBX 6 11 1 7
BITMAP
FC
80
80
80
F8
0C
04
04
04
0C
F8
ENDCHAR
STARTCHAR 2076
ENCODING 8310
SWIDTH 322 0
DWIDTH 8 0
BBX 7 11 1 7
BITMAP
0C
30
60
C0
B8
C4
84
86
84
CC
78
ENDCHAR
STARTCHAR 2077
ENCODING 8311
SWIDTH 322 0
DWIDTH 8 0
BBX 6 11 1 7
BITMAP
FC
04
0C
08
08
18
10
30
20
20
40
ENDCHAR
STARTCHAR 2078
ENCODING 8312
SWIDTH 322 0
DWIDTH 8 0
BBX 6 11 1 7
BITMAP
78
CC
84
84
48
78
8C
84
84
8C
78
ENDCHAR
STARTCHAR 2079
ENCODING 8313
SWIDTH 322 0
DWIDTH 8 0
BBX 7 11 0 7
BITMAP
3C
46
42
C2
42
46
3A
02
02
0C
78
ENDCHAR
STARTCHAR 207F
ENCODING 8319
SWIDTH 362 0
DWIDTH 9 0
BBX 7 8 1 10
BITMAP
BC
C6
C2
82
82
82
82
82
ENDCHAR
STARTCHAR 20A3
ENCODING 8355
SWIDTH 563 0
DWIDTH 14 0
BBX 12 18 1 0
BITMAP
3FF0
3000
3000
3000
3000
3000
3000
3000
3000
3FE0
3000
3000
3000
FF00
3000
3000
3000
3000
ENDCHAR
STARTCHAR 20A4
ENCODING 8356
SWIDTH 563 0
DWIDTH 14 0
BBX 12 18 1 0
BITMAP
07C0
0820
1000
1000
1000
1000
1000
FF80
1000
1000
1000
FF80
1000
1000
1000
2000
6000
FFF0
ENDCHAR
STARTCHAR 20A7
ENCODING 8359
SWIDTH 724 0
DWIDTH 18 0
BBX 15 18 2 0
BITMAP
F800
8600
8300
8100
8100
8110
8110
8110
837E
8610
F810
8010
8010
8010
8010
8010
8018
800E
ENDCHAR
STARTCHAR 20AB
ENCODING 8363
SWIDTH 604 0
DWIDTH 15 0
BBX 14 22 1 -3
BITMAP
0010
0010
0010
07FC
0010
0010
0F90
30D0
6030
4030
4030
C010
C010
C010
4030
4030
6030
30D0
1F90
0000
0000
7FE0
ENDCHAR
STARTCHAR 20AC
ENCODING 8364
SWIDTH 563 0
DWIDTH 14 0
BBX 12 18 1 0
BITMAP
03E0
0E10
1800
1000
3000
2000
FF80
2000
2000
2000
FF80
2000
3000
1000
1000
0800
0E10
03F0
ENDCHAR
STARTCHAR 2105
ENCODING 8453
SWIDTH 805 0
DWIDTH 20 0
BBX 16 18 2 0
BITMAP
3C08
4018
8010
8030
8020
8040
C040
3C80
0080
0100
011E
0223
0641
0441
0C41
0841
1023
101E
ENDCHAR
STARTCHAR 2113
ENCODING 8467
SWIDTH 523 0
DWIDTH 13 0
BBX 10 18 1 0
BITMAP
0F00
1980
1080
1080
1080
1080
1100
1300
1600
3800
D000
1000
1000
1000
1040
1040
1880
0F00
ENDCHAR
STARTCHAR 2116
ENCODING 8470
SWIDTH 1006 0
DWIDTH 25 0
BBX 21 18 3 0
BITMAP
803000
C03000
C03000
A03000
A03000
903000
983000
8831E0
843330
863210
823218
833218
813210
80B330
80F1E0
807000
807000
8033F0
ENDCHAR
STARTCHAR 2120
ENCODING 8480
SWIDTH 765 0
DWIDTH 19 0
BBX 16 9 1 9
BITMAP
7D83
C183
8145
4145
3945
0D29
0529
0D29
F911
ENDCHAR
STARTCHAR 2122
ENCODING 8482
SWIDTH 724 0
DWIDTH 18 0
BBX 16 9 0 9
BITMAP
FD83
1183
1145
1145
1145
1129
1129
1119
1111
ENDCHAR
STARTCHAR 2126
ENCODING 8486
SWIDTH 765 0
DWIDTH 19 0
BBX 17 18 1 0
BITMAP
07F000
0C1C00
300600
200200
600300
400100
400100
400100
400100
400100
400100
400300
600300
200200
100400
180C00
0C1800
FE3F80
ENDCHAR
STARTCHAR 212E
ENCODING 8494
SWIDTH 604 0
DWIDTH 15 0
BBX 13 13 1 0
BITMAP
0F80
3060
6020
6030
E030
E038
FFF8
E000
E000
6010
6020
3060
0F80
ENDCHAR
STARTCHAR 215B
ENCODING 8539
SWIDTH 765 0
DWIDTH 19 0
BBX 16 18 0 0
BITMAP
3008
7010
9030
1020
1060
1040
1080
109E
1133
1121
1221
0212
041E
0C23
0821
1021
1023
201E
ENDCHAR
STARTCHAR 215C
ENCODING 8540
SWIDTH 765 0
DWIDTH 19 0
BBX 17 18 0 0
BITMAP
3C0200
460400
020C00
020800
061800
3C1000
022000
022F00
025980
865080
7C9080
008900
010F00
031180
021080
041080
041180
080F00
ENDCHAR
STARTCHAR 215D
ENCODING 8541
SWIDTH 765 0
DWIDTH 19 0
BBX 16 18 1 0
BITMAP
FC04
8008
8018
8010
F830
0C20
0440
045E
04B3
0CA1
F921
0112
021E
0623
0421
0821
0823
101E
ENDCHAR
STARTCHAR 215E
ENCODING 8542
SWIDTH 765 0
DWIDTH 19 0
BBX 16 18 1 0
BITMAP
FC10
0420
0C60
0840
08C0
1880
1100
311E
2233
2221
4421
0412
081E
1823
1021
2021
2023
401E
ENDCHAR
STARTCHAR 2202
ENCODING 8706
SWIDTH 563 0
DWIDTH 14 0
BBX 11 18 1 0
BITMAP
0F80
08C0
0060
0020
0020
0020
0F20
18A0
2060
6020
4020
4060
C060
C040
C0C0
4180
6300
3E00
ENDCHAR
STARTCHAR 2206
ENCODING 8710
SWIDTH 563 0
DWIDTH 14 0
BBX 14 18 0 0
BITMAP
0300
0300
0300
0480
0480
0C80
0840
0840
1860
1020
1020
3030
2010
2010
6018
4008
4008
FFFC
ENDCHAR
STARTCHAR 220F
ENCODING 8719
SWIDTH 724 0
DWIDTH 18 0
BBX 14 24 2 -6
BITMAP
FFFC
C00C
C00C
C00C
C00C
C00C
C00C
C00C
C00C
C00C
C00C
C00C
C00C
C00C
C00C
C00C
C00C
C00C
C00C
C00C
C00C
C00C
C00C
C00C
ENDCHAR
STARTCHAR 2211
ENCODING 8721
SWIDTH 644 0
DWIDTH 16 0
BBX 14 24 1 -6
BITMAP
FFF8
4000
2000
3000
1800
0800
0400
0600
0300
0180
0080
00C0
0080
0100
0300
0200
0400
0C00
1800
1000
2000
6000
4000
FFFC
ENDCHAR
STARTCHAR 2212
ENCODING 8722
SWIDTH 563 0
DWIDTH 14 0
BBX 12 1 1 8
BITMAP
FFF0
ENDCHAR
STARTCHAR 221A
ENCODING 8730
SWIDTH 563 0
DWIDTH 14 0
BBX 15 20 0 0
BITMAP
0006
0004
0004
000C
0008
0008
0010
0010
0010
F020
1020
1060
0840
0840
08C0
0480
0480
0700
0300
0300
ENDCHAR
STARTCHAR 221E
ENCODING 8734
SWIDTH 724 0
DWIDTH 18 0
BBX 14 8 2 5
BITMAP
7878
CCCC
8784
8304
8304
8704
CCCC
7878
ENDCHAR
STARTCHAR 222B
ENCODING 8747
SWIDTH 362 0
DWIDTH 9 0
BBX 8 25 0 -6
BITMAP
07
0C
08
08
08
08
08
08
08
08
08
08
08
08
08
08
08
08
08
08
08
08
18
10
E0
ENDCHAR
STARTCHAR 2248
ENCODING 8776
SWIDTH 563 0
DWIDTH 14 0
BBX 12 8 1 5
BITMAP
3810
C630
81C0
0000
0000
3810
C630
81C0
ENDCHAR
STARTCHAR 2260
ENCODING 8800
SWIDTH 563 0
DWIDTH 14 0
BBX 12 14 1 2
BITMAP
0080
0080
0080
0100
FFF0
0200
0200
0400
0400
FFF0
0800
1000
1000
1000
ENDCHAR
STARTCHAR 2264
ENCODING 8804
SWIDTH 563 0
DWIDTH 14 0
BBX 12 15 1 0
BITMAP
0010
0060
0180
0600
1800
6000
C000
3000
0E00
0380
00E0
0010
0000
0000
FFF0
ENDCHAR
STARTCHAR 2265
ENCODING 8805
SWIDTH 563 0
DWIDTH 14 0
BBX 12 15 1 0
BITMAP
8000
6000
1800
0600
0180
0060
0030
00C0
0700
1C00
7000
8000
0000
0000
FFF0
ENDCHAR
STARTCHAR 25CA
ENCODING 9674
SWIDTH 604 0
DWIDTH 15 0
BBX 11 18 2 0
BITMAP
0400
0A00
0A00
1100
3180
2080
4040
C060
8020
8020
C060
4040
2080
3180
1100
0A00
0A00
0400
ENDCHAR
STARTCHAR FB00
ENCODING 64256
SWIDTH 604 0
DWIDTH 15 0
BBX 17 19 0 0
BITMAP
078780
080800
181800
101000
101000
101000
FFFF00
101000
101000
101000
101000
101000
101000
101000
101000
101000
101000
101000
101000
ENDCHAR
STARTCHAR FB01
ENCODING 64257
SWIDTH 523 0
DWIDTH 13 0
BBX 12 19 0 0
BITMAP
0780
0830
1830
1000
1000
1000
FF30
1030
1030
1030
1030
1030
1030
1030
1030
1030
1030
1030
1030
ENDCHAR
STARTCHAR FB02
ENCODING 64258
SWIDTH 523 0
DWIDTH 13 0
BBX 12 19 0 0
BITMAP
07B0
0830
1830
1030
1030
1030
FF30
1030
1030
1030
1030
1030
1030
1030
1030
1030
1030
1030
1030
ENDCHAR
STARTCHAR FB03
ENCODING 64259
SWIDTH 845 0
DWIDTH 21 0
BBX 19 19 0 0
BITMAP
078780
080860
181860
101000
101000
101000
FFFF60
101060
101060
101060
101060
101060
101060
101060
101060
101060
101060
101060
101060
ENDCHAR
STARTCHAR FB04
ENCODING 64260
SWIDTH 845 0
DWIDTH 21 0
BBX 19 19 0 0
BITMAP
0787E0
080860
181860
101060
101060
101060
FFFF60
101060
101060
101060
101060
101060
101060
101060
101060
101060
101060
101060
101060
ENDCHAR
STARTCHAR FEFF
ENCODING 65279
SWIDTH 0 0
DWIDTH 0 0
BBX 0 0 0 0
BITMAP
ENDCHAR
STARTCHAR FFFC
ENCODING 65532
SWIDTH 1006 0
DWIDTH 25 0
BBX 23 24 1 -5
BITMAP
F7B9CE
800002
800002
800002
000000
800002
800002
800002
8F1E32
0D9230
989232
98DE32
989332
899332
0F1EE0
800002
800002
800002
800002
000000
800002
800002
800002
F7B9CE
ENDCHAR
STARTCHAR FFFD
ENCODING 65533
SWIDTH 1006 0
DWIDTH 25 0
BBX 23 23 1 -4
BITMAP
001000
003800
007C00
00FE00
01FF00
038380
0601C0
0F10E0
1FF8F0
3FF8F8
7FF1FC
FFE1FE
7FC7FC
3FCFF8
1FCFF0
0FFFE0
07FFC0
03C780
018700
00CE00
007C00
003800
001000
ENDCHAR
ENDFONT
